<?xml version="1.0" encoding="utf-8"?>
<!-- Generator: Adobe Illustrator 18.1.1, SVG Export Plug-In . SVG Version: 6.00 Build 0)  -->
<svg version="1.1" id="Layer_1" xmlns="http://www.w3.org/2000/svg" xmlns:xlink="http://www.w3.org/1999/xlink" x="0px" y="0px"
	 viewBox="0 0 960 560" enable-background="new 0 0 960 560" xml:space="preserve">
<g>
	<path d="M820.7,86.1c2-1.9,4.7-1,7.2-1.2C825.5,85.2,823.1,85.6,820.7,86.1z"/>
	<path d="M835.1,298.2c0-0.9,0-1.8,0-2.7c0-0.4,0-0.8,0-1.2c0-0.3-0.2-1.2,0.2-1.2c0,0.9,0,1.8,0,2.7c0,0.4,0,0.8,0,1.2
		C835.3,297.4,835.5,298.2,835.1,298.2C835.1,296.5,835.1,298.2,835.1,298.2z"/>
	<path d="M811,88.4c0.5-0.1,1-0.3,1.5-0.4c0.4-0.1,1.1-0.5,1.2-0.1c0.1,0.5-0.7,0.5-1.1,0.6c-0.5,0.1-1,0.3-1.5,0.4
		C811,88.8,811,88.6,811,88.4C811.8,88.2,811,88.6,811,88.4z"/>
	<path d="M835.3,276.8c0,1.1,0,2.3,0,3.4c-0.4,0-0.2-1.3-0.2-1.6c0-0.7,0-1.3,0-2C835.1,276.7,835.2,276.8,835.3,276.8
		C835.3,278,835.2,276.8,835.3,276.8z"/>
	<path d="M808.9,89.3c-0.5,0.1-0.9,0.2-1.4,0.3c-0.5,0.1-1,0.5-1.1-0.1c0.5-0.1,1-0.3,1.5-0.4C808.5,89,808.7,88.7,808.9,89.3
		C808.1,89.5,808.9,89.2,808.9,89.3z"/>
	<path d="M492.9,276.1c-0.4,0.4-0.7,0.8-1.1,1.2C492,276.3,491.9,275.7,492.9,276.1C492.9,276.2,492,275.7,492.9,276.1z"/>
	<path d="M539.4,260.7c-0.3-0.2-1.3-0.7-1.1-1c0.2-0.3,1,0.5,1.3,0.7C539.5,260.5,539.5,260.6,539.4,260.7
		C539,260.5,539.5,260.6,539.4,260.7z"/>
	<path d="M151.7,520.8c0.4,0.1,0.7,0.2,1.1,0.2c-0.1,0.3-0.1,0.4-0.4,0.4c-0.2,0-0.3-0.1-0.5-0.1
		C151.5,521.3,151.4,521.1,151.7,520.8C152,520.9,151.6,520.9,151.7,520.8z"/>
	<path d="M399.7,303.9c-0.3-0.2-0.6-0.3-0.9-0.5c-0.4-0.2-0.7-0.2-0.5-0.6c0.2-0.4,0.4-0.2,0.8,0c0.3,0.1,0.7,0.3,1,0.4
		C399.9,303.4,399.8,303.6,399.7,303.9C399.2,303.6,399.8,303.6,399.7,303.9z"/>
	<path d="M835.2,287.3c0.2,0.4,0.1,0.9,0.1,1.4C834.9,288.6,834.9,287.6,835.2,287.3C835.2,287.4,835.1,287.4,835.2,287.3z"/>
	<path d="M317.5,289.4c-0.4-0.1-0.7-0.1-1.1-0.2c-0.4-0.1-1.2-0.2-0.5-0.5c0.2-0.1,0.8,0,1.1,0C317.6,288.7,317.5,288.8,317.5,289.4
		C316.9,289.3,317.5,289.2,317.5,289.4z"/>
	<path d="M276.5,287.6c0.8,0,1.7,0,2.5,0c-0.1,0.5-0.5,0.3-0.9,0.3c-0.5,0-1,0-1.6,0C276.5,287.8,276.5,287.7,276.5,287.6
		C277.4,287.6,276.5,287.7,276.5,287.6z"/>
	<g>
		<g>
			<polygon fill="none" stroke="#FFFFFF" stroke-width="3" stroke-miterlimit="10" points="1.5,286.1 238.3,282.3 352.1,77.1 
				442.4,301.1 303.6,226.3 252.1,311.9 1.5,315.4 			"/>
			<polygon fill="none" stroke="#FFFFFF" stroke-width="3" stroke-miterlimit="10" points="314.7,204.6 349.1,128.2 401.3,250.3 			
				"/>
		</g>
		<polygon fill="none" stroke="#FFFFFF" stroke-width="3" stroke-miterlimit="10" points="405,70 447,100.2 490.1,227.7 
			533.9,171.3 581.4,231.5 694.8,33.5 955.5,33.5 955.5,65.4 712.2,65.5 588.7,300.5 535.4,227.7 481.1,300.9 		"/>
	</g>
</g>
</svg>
