<?xml version="1.0" encoding="utf-8"?>
<!-- Generator: Adobe Illustrator 18.1.1, SVG Export Plug-In . SVG Version: 6.00 Build 0)  -->
<svg version="1.1" id="Layer_1" xmlns="http://www.w3.org/2000/svg" xmlns:xlink="http://www.w3.org/1999/xlink" x="0px" y="0px"
	 viewBox="0 0 247.3 233.6" enable-background="new 0 0 247.3 233.6" xml:space="preserve">
<path fill="#00CC85" d="M85.9,225.9c0,0-41.7-53.3-41.7-72.6s14.5-44.5,20.9-52.5c6.4-8,34.4-21.9,42.9-21.9s34.3,14.5,40.6,18.5
	c6.3,4,31.3,34.3,33.6,42.8c2.3,8.5,2,26.8,0,35.3c-2,8.5-16.2,31.3-16.2,31.3l-16.2,19.2H85.9z"/>
<path fill="#00CC85" d="M150.3,98c0,0,5.3-44.1,14.7-55.8s43.2-22.1,54.1-14.2c10.9,7.9,17.2,42.4,16.4,54.3c0,42-26.9,45-29.5,47.2
	c-2.6,2.2-21,4.9-29.5,0C168,124.5,150.3,98,150.3,98z"/>
<path fill="#00CC85" d="M99.6,81c0,0-3.9-35.4-9.6-48.5S72.5,16.8,60.3,11.9s-25.6,1-31.9,9.6S25,52,29.1,61.8s13.5,22.8,22.8,27
	s21.8,5.4,21.8,5.4L99.6,81z"/>
<line fill="#FFFFFF" stroke="#FFFFFF" stroke-miterlimit="10" x1="76.1" y1="150.6" x2="82.7" y2="143.1"/>
<line fill="#FFFFFF" stroke="#FFFFFF" stroke-miterlimit="10" x1="76.1" y1="143.1" x2="82.7" y2="151"/>
<line fill="#FFFFFF" stroke="#FFFFFF" stroke-miterlimit="10" x1="77.4" y1="177.2" x2="84" y2="169.7"/>
<line fill="#FFFFFF" stroke="#FFFFFF" stroke-miterlimit="10" x1="77.4" y1="169.7" x2="84" y2="177.5"/>
<g>
	<line fill="#FFFFFF" stroke="#FFFFFF" stroke-miterlimit="10" x1="68.8" y1="164.1" x2="75.4" y2="156.6"/>
	<line fill="#FFFFFF" stroke="#FFFFFF" stroke-miterlimit="10" x1="68.8" y1="156.6" x2="75.4" y2="164.4"/>
</g>
<line fill="#FFFFFF" stroke="#FFFFFF" stroke-miterlimit="10" x1="52.6" y1="138.5" x2="59.2" y2="131"/>
<line fill="#FFFFFF" stroke="#FFFFFF" stroke-miterlimit="10" x1="52.6" y1="131" x2="59.2" y2="138.9"/>
<g>
	<line fill="#FFFFFF" stroke="#FFFFFF" stroke-miterlimit="10" x1="68.3" y1="138.3" x2="75" y2="130.8"/>
	<line fill="#FFFFFF" stroke="#FFFFFF" stroke-miterlimit="10" x1="68.3" y1="130.8" x2="75" y2="138.7"/>
</g>
<g>
	<line fill="#FFFFFF" stroke="#FFFFFF" stroke-miterlimit="10" x1="59.1" y1="124.9" x2="65.7" y2="117.4"/>
	<line fill="#FFFFFF" stroke="#FFFFFF" stroke-miterlimit="10" x1="59.1" y1="117.4" x2="65.7" y2="125.3"/>
</g>
<line fill="#FFFFFF" stroke="#FFFFFF" stroke-miterlimit="10" x1="58.6" y1="151.1" x2="65.2" y2="143.6"/>
<line fill="#FFFFFF" stroke="#FFFFFF" stroke-miterlimit="10" x1="58.6" y1="143.6" x2="65.2" y2="151.4"/>
<line fill="#FFFFFF" stroke="#FFFFFF" stroke-miterlimit="10" x1="85.2" y1="163.9" x2="91.8" y2="156.4"/>
<line fill="#FFFFFF" stroke="#FFFFFF" stroke-miterlimit="10" x1="85.2" y1="156.4" x2="91.8" y2="164.3"/>
<line fill="#FFFFFF" stroke="#FFFFFF" stroke-miterlimit="10" x1="99.5" y1="137.1" x2="106.2" y2="129.6"/>
<line fill="#FFFFFF" stroke="#FFFFFF" stroke-miterlimit="10" x1="99.5" y1="129.6" x2="106.2" y2="137.4"/>
<line fill="#FFFFFF" stroke="#FFFFFF" stroke-miterlimit="10" x1="101.9" y1="163.6" x2="108.5" y2="156.1"/>
<line fill="#FFFFFF" stroke="#FFFFFF" stroke-miterlimit="10" x1="101.9" y1="156.1" x2="108.5" y2="164"/>
<g>
	<line fill="#FFFFFF" stroke="#FFFFFF" stroke-miterlimit="10" x1="93.2" y1="150.5" x2="99.9" y2="143"/>
	<line fill="#FFFFFF" stroke="#FFFFFF" stroke-miterlimit="10" x1="93.2" y1="143" x2="99.9" y2="150.9"/>
</g>
<line fill="#FFFFFF" stroke="#FFFFFF" stroke-miterlimit="10" x1="76.1" y1="124.9" x2="82.7" y2="117.4"/>
<line fill="#FFFFFF" stroke="#FFFFFF" stroke-miterlimit="10" x1="76.1" y1="117.4" x2="82.7" y2="125.3"/>
<g>
	<line fill="#FFFFFF" stroke="#FFFFFF" stroke-miterlimit="10" x1="93.8" y1="124.8" x2="100.4" y2="117.2"/>
	<line fill="#FFFFFF" stroke="#FFFFFF" stroke-miterlimit="10" x1="93.8" y1="117.2" x2="100.4" y2="125.1"/>
</g>
<g>
	<line fill="#FFFFFF" stroke="#FFFFFF" stroke-miterlimit="10" x1="84.6" y1="110.4" x2="91.2" y2="102.8"/>
	<line fill="#FFFFFF" stroke="#FFFFFF" stroke-miterlimit="10" x1="84.6" y1="102.8" x2="91.2" y2="110.7"/>
</g>
<line fill="#FFFFFF" stroke="#FFFFFF" stroke-miterlimit="10" x1="84" y1="137.5" x2="90.6" y2="130"/>
<line fill="#FFFFFF" stroke="#FFFFFF" stroke-miterlimit="10" x1="84" y1="130" x2="90.6" y2="137.9"/>
<line fill="#FFFFFF" stroke="#FFFFFF" stroke-miterlimit="10" x1="108.6" y1="150.3" x2="115.2" y2="142.8"/>
<line fill="#FFFFFF" stroke="#FFFFFF" stroke-miterlimit="10" x1="108.6" y1="142.8" x2="115.2" y2="150.7"/>
<line fill="#FFFFFF" stroke="#FFFFFF" stroke-miterlimit="10" x1="110.1" y1="201.8" x2="116.7" y2="194.3"/>
<line fill="#FFFFFF" stroke="#FFFFFF" stroke-miterlimit="10" x1="110.1" y1="194.3" x2="116.7" y2="202.2"/>
<g>
	<line fill="#FFFFFF" stroke="#FFFFFF" stroke-miterlimit="10" x1="102.8" y1="215.2" x2="109.4" y2="207.7"/>
	<line fill="#FFFFFF" stroke="#FFFFFF" stroke-miterlimit="10" x1="102.8" y1="207.7" x2="109.4" y2="215.6"/>
</g>
<line fill="#FFFFFF" stroke="#FFFFFF" stroke-miterlimit="10" x1="86.6" y1="189.7" x2="93.2" y2="182.1"/>
<line fill="#FFFFFF" stroke="#FFFFFF" stroke-miterlimit="10" x1="86.6" y1="182.1" x2="93.2" y2="190"/>
<g>
	<line fill="#FFFFFF" stroke="#FFFFFF" stroke-miterlimit="10" x1="102.3" y1="189.5" x2="108.9" y2="182"/>
	<line fill="#FFFFFF" stroke="#FFFFFF" stroke-miterlimit="10" x1="102.3" y1="182" x2="108.9" y2="189.8"/>
</g>
<g>
	<line fill="#FFFFFF" stroke="#FFFFFF" stroke-miterlimit="10" x1="94.1" y1="176.1" x2="100.7" y2="168.6"/>
	<line fill="#FFFFFF" stroke="#FFFFFF" stroke-miterlimit="10" x1="94.1" y1="168.6" x2="100.7" y2="176.4"/>
</g>
<line fill="#FFFFFF" stroke="#FFFFFF" stroke-miterlimit="10" x1="92.5" y1="202.2" x2="99.1" y2="194.7"/>
<line fill="#FFFFFF" stroke="#FFFFFF" stroke-miterlimit="10" x1="92.5" y1="194.7" x2="99.1" y2="202.6"/>
<line fill="#FFFFFF" stroke="#FFFFFF" stroke-miterlimit="10" x1="119.1" y1="215.1" x2="125.8" y2="207.5"/>
<line fill="#FFFFFF" stroke="#FFFFFF" stroke-miterlimit="10" x1="119.1" y1="207.5" x2="125.8" y2="215.4"/>
<line fill="#FFFFFF" stroke="#FFFFFF" stroke-miterlimit="10" x1="133.4" y1="188.9" x2="140" y2="181.4"/>
<line fill="#FFFFFF" stroke="#FFFFFF" stroke-miterlimit="10" x1="133.4" y1="181.4" x2="140" y2="189.2"/>
<line fill="#FFFFFF" stroke="#FFFFFF" stroke-miterlimit="10" x1="136.7" y1="215.4" x2="143.3" y2="207.9"/>
<line fill="#FFFFFF" stroke="#FFFFFF" stroke-miterlimit="10" x1="136.7" y1="207.9" x2="143.3" y2="215.8"/>
<g>
	<line fill="#FFFFFF" stroke="#FFFFFF" stroke-miterlimit="10" x1="126.1" y1="202.3" x2="132.7" y2="194.8"/>
	<line fill="#FFFFFF" stroke="#FFFFFF" stroke-miterlimit="10" x1="126.1" y1="194.8" x2="132.7" y2="202.7"/>
</g>
<line fill="#FFFFFF" stroke="#FFFFFF" stroke-miterlimit="10" x1="111.9" y1="176.7" x2="118.5" y2="169.2"/>
<line fill="#FFFFFF" stroke="#FFFFFF" stroke-miterlimit="10" x1="111.9" y1="169.2" x2="118.5" y2="177.1"/>
<g>
	<line fill="#FFFFFF" stroke="#FFFFFF" stroke-miterlimit="10" x1="127.6" y1="176.6" x2="134.3" y2="169"/>
	<line fill="#FFFFFF" stroke="#FFFFFF" stroke-miterlimit="10" x1="127.6" y1="169" x2="134.3" y2="176.9"/>
</g>
<g>
	<line fill="#FFFFFF" stroke="#FFFFFF" stroke-miterlimit="10" x1="118.4" y1="163.2" x2="125" y2="155.6"/>
	<line fill="#FFFFFF" stroke="#FFFFFF" stroke-miterlimit="10" x1="118.4" y1="155.6" x2="125" y2="163.5"/>
</g>
<line fill="#FFFFFF" stroke="#FFFFFF" stroke-miterlimit="10" x1="117.9" y1="189.3" x2="124.5" y2="181.8"/>
<line fill="#FFFFFF" stroke="#FFFFFF" stroke-miterlimit="10" x1="117.9" y1="181.8" x2="124.5" y2="189.7"/>
<line fill="#FFFFFF" stroke="#FFFFFF" stroke-miterlimit="10" x1="142.5" y1="202.1" x2="149.1" y2="194.6"/>
<line fill="#FFFFFF" stroke="#FFFFFF" stroke-miterlimit="10" x1="142.5" y1="194.6" x2="149.1" y2="202.5"/>
<line fill="#FFFFFF" stroke="#FFFFFF" stroke-miterlimit="10" x1="158.2" y1="176.7" x2="164.8" y2="169.2"/>
<line fill="#FFFFFF" stroke="#FFFFFF" stroke-miterlimit="10" x1="158.2" y1="169.2" x2="164.8" y2="177.1"/>
<g>
	<line fill="#FFFFFF" stroke="#FFFFFF" stroke-miterlimit="10" x1="156.7" y1="202.6" x2="163.3" y2="195.1"/>
	<line fill="#FFFFFF" stroke="#FFFFFF" stroke-miterlimit="10" x1="156.7" y1="195.1" x2="163.3" y2="202.9"/>
</g>
<g>
	<line fill="#FFFFFF" stroke="#FFFFFF" stroke-miterlimit="10" x1="148.9" y1="189.3" x2="155.6" y2="181.8"/>
	<line fill="#FFFFFF" stroke="#FFFFFF" stroke-miterlimit="10" x1="148.9" y1="181.8" x2="155.6" y2="189.7"/>
</g>
<line fill="#FFFFFF" stroke="#FFFFFF" stroke-miterlimit="10" x1="135.5" y1="163.7" x2="142.1" y2="156.2"/>
<line fill="#FFFFFF" stroke="#FFFFFF" stroke-miterlimit="10" x1="135.5" y1="156.2" x2="142.1" y2="164.1"/>
<g>
	<line fill="#FFFFFF" stroke="#FFFFFF" stroke-miterlimit="10" x1="151.2" y1="163.5" x2="157.8" y2="156"/>
	<line fill="#FFFFFF" stroke="#FFFFFF" stroke-miterlimit="10" x1="151.2" y1="156" x2="157.8" y2="163.9"/>
</g>
<g>
	<line fill="#FFFFFF" stroke="#FFFFFF" stroke-miterlimit="10" x1="141.4" y1="150.2" x2="148" y2="142.6"/>
	<line fill="#FFFFFF" stroke="#FFFFFF" stroke-miterlimit="10" x1="141.4" y1="142.6" x2="148" y2="150.5"/>
</g>
<g>
	<line fill="#FFFFFF" stroke="#FFFFFF" stroke-miterlimit="10" x1="142.7" y1="177.2" x2="149.3" y2="169.7"/>
	<line fill="#FFFFFF" stroke="#FFFFFF" stroke-miterlimit="10" x1="142.7" y1="169.7" x2="149.3" y2="177.6"/>
</g>
<g>
	<line fill="#FFFFFF" stroke="#FFFFFF" stroke-miterlimit="10" x1="164.3" y1="189.1" x2="170.9" y2="181.6"/>
	<line fill="#FFFFFF" stroke="#FFFFFF" stroke-miterlimit="10" x1="164.3" y1="181.6" x2="170.9" y2="189.5"/>
</g>
<g>
	<line fill="#FFFFFF" stroke="#FFFFFF" stroke-miterlimit="10" x1="124.1" y1="124.3" x2="130.7" y2="116.8"/>
	<line fill="#FFFFFF" stroke="#FFFFFF" stroke-miterlimit="10" x1="124.1" y1="116.8" x2="130.7" y2="124.7"/>
</g>
<g>
	<line fill="#FFFFFF" stroke="#FFFFFF" stroke-miterlimit="10" x1="125" y1="150.3" x2="131.7" y2="142.8"/>
	<line fill="#FFFFFF" stroke="#FFFFFF" stroke-miterlimit="10" x1="125" y1="142.8" x2="131.7" y2="150.7"/>
</g>
<g>
	<line fill="#FFFFFF" stroke="#FFFFFF" stroke-miterlimit="10" x1="115.1" y1="136.9" x2="121.7" y2="129.4"/>
	<line fill="#FFFFFF" stroke="#FFFFFF" stroke-miterlimit="10" x1="115.1" y1="129.4" x2="121.7" y2="137.3"/>
</g>
<g>
	<line fill="#FFFFFF" stroke="#FFFFFF" stroke-miterlimit="10" x1="100.6" y1="110.2" x2="107.2" y2="102.7"/>
	<line fill="#FFFFFF" stroke="#FFFFFF" stroke-miterlimit="10" x1="100.6" y1="102.7" x2="107.2" y2="110.5"/>
</g>
<g>
	<line fill="#FFFFFF" stroke="#FFFFFF" stroke-miterlimit="10" x1="116.3" y1="110" x2="122.9" y2="102.5"/>
	<line fill="#FFFFFF" stroke="#FFFFFF" stroke-miterlimit="10" x1="116.3" y1="102.5" x2="122.9" y2="110.4"/>
</g>
<g>
	<line fill="#FFFFFF" stroke="#FFFFFF" stroke-miterlimit="10" x1="68.3" y1="110.4" x2="75" y2="102.8"/>
	<line fill="#FFFFFF" stroke="#FFFFFF" stroke-miterlimit="10" x1="68.3" y1="102.8" x2="75" y2="110.7"/>
</g>
<line fill="#FFFFFF" stroke="#FFFFFF" stroke-miterlimit="10" x1="108.5" y1="124.7" x2="115.1" y2="117.2"/>
<line fill="#FFFFFF" stroke="#FFFFFF" stroke-miterlimit="10" x1="108.5" y1="117.2" x2="115.1" y2="125.1"/>
<g>
	<line fill="#FFFFFF" stroke="#FFFFFF" stroke-miterlimit="10" x1="132.1" y1="136.6" x2="138.7" y2="129.1"/>
	<line fill="#FFFFFF" stroke="#FFFFFF" stroke-miterlimit="10" x1="132.1" y1="129.2" x2="138.7" y2="137.1"/>
</g>
<g>
	<line fill="#FFFFFF" stroke="#FFFFFF" stroke-miterlimit="10" x1="75.7" y1="202.3" x2="82.3" y2="194.8"/>
	<line fill="#FFFFFF" stroke="#FFFFFF" stroke-miterlimit="10" x1="75.7" y1="194.8" x2="82.3" y2="202.7"/>
</g>
<g>
	<line fill="#FFFFFF" stroke="#FFFFFF" stroke-miterlimit="10" x1="68.9" y1="190" x2="75.6" y2="182.5"/>
	<line fill="#FFFFFF" stroke="#FFFFFF" stroke-miterlimit="10" x1="68.9" y1="182.5" x2="75.6" y2="190.4"/>
</g>
<g>
	<line fill="#FFFFFF" stroke="#FFFFFF" stroke-miterlimit="10" x1="61.7" y1="176.6" x2="68.3" y2="169.1"/>
	<line fill="#FFFFFF" stroke="#FFFFFF" stroke-miterlimit="10" x1="61.7" y1="169.1" x2="68.3" y2="177"/>
</g>
<g>
	<line fill="#FFFFFF" stroke="#FFFFFF" stroke-miterlimit="10" x1="86.8" y1="215.6" x2="93.4" y2="208.1"/>
	<line fill="#FFFFFF" stroke="#FFFFFF" stroke-miterlimit="10" x1="86.8" y1="208.1" x2="93.4" y2="216"/>
</g>
<g>
	<line fill="#FFFFFF" stroke="#FFFFFF" stroke-miterlimit="10" x1="52.2" y1="163.9" x2="58.9" y2="156.4"/>
	<line fill="#FFFFFF" stroke="#FFFFFF" stroke-miterlimit="10" x1="52.2" y1="156.4" x2="58.9" y2="164.3"/>
</g>
<g>
	<line fill="#FFFFFF" stroke="#FFFFFF" stroke-miterlimit="10" x1="92.8" y1="98" x2="99.4" y2="90.4"/>
	<line fill="#FFFFFF" stroke="#FFFFFF" stroke-miterlimit="10" x1="92.8" y1="90.4" x2="99.4" y2="98.3"/>
</g>
<g>
	<line fill="#FFFFFF" stroke="#FFFFFF" stroke-miterlimit="10" x1="108.8" y1="97.8" x2="115.4" y2="90.3"/>
	<line fill="#FFFFFF" stroke="#FFFFFF" stroke-miterlimit="10" x1="108.8" y1="90.3" x2="115.4" y2="98.1"/>
</g>
<g>
	<line fill="#FFFFFF" stroke="#FFFFFF" stroke-miterlimit="10" x1="124.5" y1="97.6" x2="131.2" y2="90.1"/>
	<line fill="#FFFFFF" stroke="#FFFFFF" stroke-miterlimit="10" x1="124.5" y1="90.1" x2="131.2" y2="97.9"/>
</g>
<line fill="#FFFFFF" stroke="#FFFFFF" stroke-miterlimit="10" x1="165.7" y1="163.3" x2="172.4" y2="155.8"/>
<line fill="#FFFFFF" stroke="#FFFFFF" stroke-miterlimit="10" x1="165.7" y1="155.8" x2="172.4" y2="163.6"/>
<g>
	<line fill="#FFFFFF" stroke="#FFFFFF" stroke-miterlimit="10" x1="157.3" y1="149.9" x2="163.9" y2="142.4"/>
	<line fill="#FFFFFF" stroke="#FFFFFF" stroke-miterlimit="10" x1="157.3" y1="142.4" x2="163.9" y2="150.3"/>
</g>
<g>
	<line fill="#FFFFFF" stroke="#FFFFFF" stroke-miterlimit="10" x1="149.4" y1="136.4" x2="156" y2="128.9"/>
	<line fill="#FFFFFF" stroke="#FFFFFF" stroke-miterlimit="10" x1="149.4" y1="128.9" x2="156" y2="136.8"/>
</g>
<g>
	<line fill="#FFFFFF" stroke="#FFFFFF" stroke-miterlimit="10" x1="140.3" y1="124.3" x2="146.9" y2="116.8"/>
	<line fill="#FFFFFF" stroke="#FFFFFF" stroke-miterlimit="10" x1="140.3" y1="116.8" x2="146.9" y2="124.7"/>
</g>
<g>
	<line fill="#FFFFFF" stroke="#FFFFFF" stroke-miterlimit="10" x1="132.9" y1="109.9" x2="139.5" y2="102.4"/>
	<line fill="#FFFFFF" stroke="#FFFFFF" stroke-miterlimit="10" x1="132.9" y1="102.4" x2="139.5" y2="110.3"/>
</g>
<line fill="#FFFFFF" stroke="#FFFFFF" stroke-miterlimit="10" x1="172.5" y1="150.4" x2="179.1" y2="142.8"/>
<line fill="#FFFFFF" stroke="#FFFFFF" stroke-miterlimit="10" x1="172.5" y1="142.8" x2="179.1" y2="150.7"/>
<g>
	<line fill="#FFFFFF" stroke="#FFFFFF" stroke-miterlimit="10" x1="164" y1="136" x2="170.7" y2="128.5"/>
	<line fill="#FFFFFF" stroke="#FFFFFF" stroke-miterlimit="10" x1="164" y1="128.5" x2="170.7" y2="136.4"/>
</g>
<g>
	<line fill="#FFFFFF" stroke="#FFFFFF" stroke-miterlimit="10" x1="155.1" y1="124.5" x2="161.7" y2="117"/>
	<line fill="#FFFFFF" stroke="#FFFFFF" stroke-miterlimit="10" x1="155.1" y1="117" x2="161.7" y2="124.9"/>
</g>
<g>
	<line fill="#FFFFFF" stroke="#FFFFFF" stroke-miterlimit="10" x1="172.5" y1="176.9" x2="179.1" y2="169.4"/>
	<line fill="#FFFFFF" stroke="#FFFFFF" stroke-miterlimit="10" x1="172.5" y1="169.4" x2="179.1" y2="177.3"/>
</g>
<line fill="#FFFFFF" stroke="#FFFFFF" stroke-miterlimit="10" x1="180.1" y1="117.8" x2="185.8" y2="111.1"/>
<line fill="#FFFFFF" stroke="#FFFFFF" stroke-miterlimit="10" x1="180.1" y1="111.1" x2="185.8" y2="118.2"/>
<g>
	<line fill="#FFFFFF" stroke="#FFFFFF" stroke-miterlimit="10" x1="173.4" y1="106.7" x2="179.1" y2="99.9"/>
	<line fill="#FFFFFF" stroke="#FFFFFF" stroke-miterlimit="10" x1="173.4" y1="99.9" x2="179.1" y2="107.1"/>
</g>
<line fill="#FFFFFF" stroke="#FFFFFF" stroke-miterlimit="10" x1="200.4" y1="105.6" x2="206.2" y2="98.8"/>
<line fill="#FFFFFF" stroke="#FFFFFF" stroke-miterlimit="10" x1="200.4" y1="98.8" x2="206.2" y2="105.9"/>
<g>
	<line fill="#FFFFFF" stroke="#FFFFFF" stroke-miterlimit="10" x1="195" y1="117.7" x2="200.7" y2="111"/>
	<line fill="#FFFFFF" stroke="#FFFFFF" stroke-miterlimit="10" x1="195" y1="111" x2="200.7" y2="118.1"/>
</g>
<line fill="#FFFFFF" stroke="#FFFFFF" stroke-miterlimit="10" x1="180.1" y1="94.6" x2="185.8" y2="87.9"/>
<line fill="#FFFFFF" stroke="#FFFFFF" stroke-miterlimit="10" x1="180.1" y1="87.9" x2="185.8" y2="95"/>
<g>
	<line fill="#FFFFFF" stroke="#FFFFFF" stroke-miterlimit="10" x1="195.4" y1="94.5" x2="201.2" y2="87.7"/>
	<line fill="#FFFFFF" stroke="#FFFFFF" stroke-miterlimit="10" x1="195.4" y1="87.7" x2="201.2" y2="94.8"/>
</g>
<g>
	<line fill="#FFFFFF" stroke="#FFFFFF" stroke-miterlimit="10" x1="187.4" y1="81.5" x2="193.2" y2="74.7"/>
	<line fill="#FFFFFF" stroke="#FFFFFF" stroke-miterlimit="10" x1="187.4" y1="74.7" x2="193.2" y2="81.8"/>
</g>
<line fill="#FFFFFF" stroke="#FFFFFF" stroke-miterlimit="10" x1="186.9" y1="106" x2="192.7" y2="99.2"/>
<line fill="#FFFFFF" stroke="#FFFFFF" stroke-miterlimit="10" x1="186.9" y1="99.2" x2="192.7" y2="106.3"/>
<line fill="#FFFFFF" stroke="#FFFFFF" stroke-miterlimit="10" x1="208.3" y1="117.6" x2="214" y2="110.8"/>
<line fill="#FFFFFF" stroke="#FFFFFF" stroke-miterlimit="10" x1="208.3" y1="110.8" x2="214" y2="117.9"/>
<g>
	<line fill="#FFFFFF" stroke="#FFFFFF" stroke-miterlimit="10" x1="213.9" y1="105.4" x2="219.7" y2="98.6"/>
	<line fill="#FFFFFF" stroke="#FFFFFF" stroke-miterlimit="10" x1="213.9" y1="98.6" x2="219.7" y2="105.8"/>
</g>
<g>
	<line fill="#FFFFFF" stroke="#FFFFFF" stroke-miterlimit="10" x1="201.3" y1="81.3" x2="207.1" y2="74.5"/>
	<line fill="#FFFFFF" stroke="#FFFFFF" stroke-miterlimit="10" x1="201.3" y1="74.5" x2="207.1" y2="81.6"/>
</g>
<g>
	<line fill="#FFFFFF" stroke="#FFFFFF" stroke-miterlimit="10" x1="173.4" y1="81.5" x2="179.1" y2="74.7"/>
	<line fill="#FFFFFF" stroke="#FFFFFF" stroke-miterlimit="10" x1="173.4" y1="74.7" x2="179.1" y2="81.8"/>
</g>
<line fill="#FFFFFF" stroke="#FFFFFF" stroke-miterlimit="10" x1="181.2" y1="69.3" x2="186.9" y2="62.6"/>
<line fill="#FFFFFF" stroke="#FFFFFF" stroke-miterlimit="10" x1="181.2" y1="62.6" x2="186.9" y2="69.7"/>
<g>
	<line fill="#FFFFFF" stroke="#FFFFFF" stroke-miterlimit="10" x1="174.4" y1="58.2" x2="180.2" y2="51.4"/>
	<line fill="#FFFFFF" stroke="#FFFFFF" stroke-miterlimit="10" x1="174.4" y1="51.4" x2="180.2" y2="58.5"/>
</g>
<line fill="#FFFFFF" stroke="#FFFFFF" stroke-miterlimit="10" x1="201.5" y1="57.1" x2="207.3" y2="50.3"/>
<line fill="#FFFFFF" stroke="#FFFFFF" stroke-miterlimit="10" x1="201.5" y1="50.3" x2="207.3" y2="57.4"/>
<g>
	<line fill="#FFFFFF" stroke="#FFFFFF" stroke-miterlimit="10" x1="196.1" y1="69.2" x2="201.8" y2="62.5"/>
	<line fill="#FFFFFF" stroke="#FFFFFF" stroke-miterlimit="10" x1="196.1" y1="62.5" x2="201.8" y2="69.6"/>
</g>
<line fill="#FFFFFF" stroke="#FFFFFF" stroke-miterlimit="10" x1="222" y1="94.1" x2="227.7" y2="87.4"/>
<line fill="#FFFFFF" stroke="#FFFFFF" stroke-miterlimit="10" x1="222.4" y1="87.4" x2="228.1" y2="94.5"/>
<g>
	<line fill="#FFFFFF" stroke="#FFFFFF" stroke-miterlimit="10" x1="196.5" y1="46" x2="202.3" y2="39.2"/>
	<line fill="#FFFFFF" stroke="#FFFFFF" stroke-miterlimit="10" x1="196.5" y1="39.2" x2="202.3" y2="46.3"/>
</g>
<g>
	<line fill="#FFFFFF" stroke="#FFFFFF" stroke-miterlimit="10" x1="215" y1="81.5" x2="220.8" y2="74.7"/>
	<line fill="#FFFFFF" stroke="#FFFFFF" stroke-miterlimit="10" x1="215" y1="74.7" x2="220.8" y2="81.8"/>
</g>
<line fill="#FFFFFF" stroke="#FFFFFF" stroke-miterlimit="10" x1="188" y1="57.5" x2="193.8" y2="50.7"/>
<line fill="#FFFFFF" stroke="#FFFFFF" stroke-miterlimit="10" x1="188" y1="50.7" x2="193.8" y2="57.8"/>
<line fill="#FFFFFF" stroke="#FFFFFF" stroke-miterlimit="10" x1="209.4" y1="69.1" x2="215.1" y2="62.3"/>
<line fill="#FFFFFF" stroke="#FFFFFF" stroke-miterlimit="10" x1="209.4" y1="62.3" x2="215.1" y2="69.4"/>
<g>
	<line fill="#FFFFFF" stroke="#FFFFFF" stroke-miterlimit="10" x1="215" y1="56.9" x2="220.8" y2="50.1"/>
	<line fill="#FFFFFF" stroke="#FFFFFF" stroke-miterlimit="10" x1="215" y1="50.1" x2="220.8" y2="57.3"/>
</g>
<g>
	<line fill="#FFFFFF" stroke="#FFFFFF" stroke-miterlimit="10" x1="209.4" y1="94.3" x2="215.1" y2="87.5"/>
	<line fill="#FFFFFF" stroke="#FFFFFF" stroke-miterlimit="10" x1="209.4" y1="87.5" x2="215.1" y2="94.6"/>
</g>
<g>
	<line fill="#FFFFFF" stroke="#FFFFFF" stroke-miterlimit="10" x1="166.1" y1="94.6" x2="171.9" y2="87.9"/>
	<line fill="#FFFFFF" stroke="#FFFFFF" stroke-miterlimit="10" x1="166.1" y1="87.9" x2="171.9" y2="95"/>
</g>
<g>
	<line fill="#FFFFFF" stroke="#FFFFFF" stroke-miterlimit="10" x1="220.8" y1="69.3" x2="226.5" y2="62.6"/>
	<line fill="#FFFFFF" stroke="#FFFFFF" stroke-miterlimit="10" x1="220.8" y1="62.6" x2="226.5" y2="69.7"/>
</g>
<g>
	<line fill="#FFFFFF" stroke="#FFFFFF" stroke-miterlimit="10" x1="209.4" y1="46" x2="215.1" y2="39.2"/>
	<line fill="#FFFFFF" stroke="#FFFFFF" stroke-miterlimit="10" x1="209.4" y1="39.2" x2="215.1" y2="46.3"/>
</g>
<g>
	<line fill="#FFFFFF" stroke="#FFFFFF" stroke-miterlimit="10" x1="78.6" y1="62.8" x2="84.8" y2="55.7"/>
	<line fill="#FFFFFF" stroke="#FFFFFF" stroke-miterlimit="10" x1="78.6" y1="55.7" x2="84.8" y2="63.1"/>
</g>
<g>
	<line fill="#FFFFFF" stroke="#FFFFFF" stroke-miterlimit="10" x1="44.4" y1="76.3" x2="50.6" y2="69.2"/>
	<line fill="#FFFFFF" stroke="#FFFFFF" stroke-miterlimit="10" x1="44.4" y1="69.2" x2="50.6" y2="76.7"/>
</g>
<g>
	<line fill="#FFFFFF" stroke="#FFFFFF" stroke-miterlimit="10" x1="35.7" y1="62.8" x2="41.9" y2="55.7"/>
	<line fill="#FFFFFF" stroke="#FFFFFF" stroke-miterlimit="10" x1="35.7" y1="55.7" x2="41.9" y2="63.1"/>
</g>
<line fill="#FFFFFF" stroke="#FFFFFF" stroke-miterlimit="10" x1="31" y1="50.1" x2="37.2" y2="43"/>
<line fill="#FFFFFF" stroke="#FFFFFF" stroke-miterlimit="10" x1="31" y1="43" x2="37.2" y2="50.4"/>
<g>
	<line fill="#FFFFFF" stroke="#FFFFFF" stroke-miterlimit="10" x1="64.3" y1="87.7" x2="70.5" y2="80.7"/>
	<line fill="#FFFFFF" stroke="#FFFFFF" stroke-miterlimit="10" x1="64.3" y1="80.7" x2="70.5" y2="88.1"/>
</g>
<g>
	<line fill="#FFFFFF" stroke="#FFFFFF" stroke-miterlimit="10" x1="50.7" y1="62.6" x2="56.9" y2="55.5"/>
	<line fill="#FFFFFF" stroke="#FFFFFF" stroke-miterlimit="10" x1="50.7" y1="55.5" x2="56.9" y2="62.9"/>
</g>
<line fill="#FFFFFF" stroke="#FFFFFF" stroke-miterlimit="10" x1="50.9" y1="37.3" x2="57.1" y2="30.2"/>
<line fill="#FFFFFF" stroke="#FFFFFF" stroke-miterlimit="10" x1="50.9" y1="30.2" x2="57.1" y2="37.7"/>
<g>
	<line fill="#FFFFFF" stroke="#FFFFFF" stroke-miterlimit="10" x1="45.1" y1="50" x2="51.3" y2="42.9"/>
	<line fill="#FFFFFF" stroke="#FFFFFF" stroke-miterlimit="10" x1="45.1" y1="42.9" x2="51.3" y2="50.3"/>
</g>
<line fill="#FFFFFF" stroke="#FFFFFF" stroke-miterlimit="10" x1="73" y1="76" x2="79.2" y2="68.9"/>
<line fill="#FFFFFF" stroke="#FFFFFF" stroke-miterlimit="10" x1="73.5" y1="68.9" x2="79.7" y2="76.3"/>
<g>
	<line fill="#FFFFFF" stroke="#FFFFFF" stroke-miterlimit="10" x1="45.5" y1="25.7" x2="51.8" y2="18.7"/>
	<line fill="#FFFFFF" stroke="#FFFFFF" stroke-miterlimit="10" x1="45.5" y1="18.7" x2="51.8" y2="26.1"/>
</g>
<g>
	<line fill="#FFFFFF" stroke="#FFFFFF" stroke-miterlimit="10" x1="65.5" y1="62.8" x2="71.7" y2="55.7"/>
	<line fill="#FFFFFF" stroke="#FFFFFF" stroke-miterlimit="10" x1="65.5" y1="55.7" x2="71.7" y2="63.1"/>
</g>
<line fill="#FFFFFF" stroke="#FFFFFF" stroke-miterlimit="10" x1="36.4" y1="37.7" x2="42.6" y2="30.7"/>
<line fill="#FFFFFF" stroke="#FFFFFF" stroke-miterlimit="10" x1="36.4" y1="30.7" x2="42.6" y2="38.1"/>
<line fill="#FFFFFF" stroke="#FFFFFF" stroke-miterlimit="10" x1="59.4" y1="49.8" x2="65.6" y2="42.7"/>
<line fill="#FFFFFF" stroke="#FFFFFF" stroke-miterlimit="10" x1="59.4" y1="42.7" x2="65.6" y2="50.2"/>
<g>
	<line fill="#FFFFFF" stroke="#FFFFFF" stroke-miterlimit="10" x1="65.5" y1="37.1" x2="71.7" y2="30.1"/>
	<line fill="#FFFFFF" stroke="#FFFFFF" stroke-miterlimit="10" x1="65.5" y1="30.1" x2="71.7" y2="37.5"/>
</g>
<g>
	<line fill="#FFFFFF" stroke="#FFFFFF" stroke-miterlimit="10" x1="59.4" y1="76.1" x2="65.6" y2="69.1"/>
	<line fill="#FFFFFF" stroke="#FFFFFF" stroke-miterlimit="10" x1="59.4" y1="69.1" x2="65.6" y2="76.5"/>
</g>
<g>
	<line fill="#FFFFFF" stroke="#FFFFFF" stroke-miterlimit="10" x1="71.7" y1="50.1" x2="77.9" y2="43"/>
	<line fill="#FFFFFF" stroke="#FFFFFF" stroke-miterlimit="10" x1="71.7" y1="43" x2="77.9" y2="50.4"/>
</g>
<g>
	<line fill="#FFFFFF" stroke="#FFFFFF" stroke-miterlimit="10" x1="59.4" y1="25.7" x2="65.6" y2="18.7"/>
	<line fill="#FFFFFF" stroke="#FFFFFF" stroke-miterlimit="10" x1="59.4" y1="18.7" x2="65.6" y2="26.1"/>
</g>
</svg>
