<?xml version="1.0" encoding="utf-8"?>
<!-- Generator: Adobe Illustrator 18.1.1, SVG Export Plug-In . SVG Version: 6.00 Build 0)  -->
<svg version="1.1" id="Layer_1" xmlns="http://www.w3.org/2000/svg" xmlns:xlink="http://www.w3.org/1999/xlink" x="0px" y="0px"
	 viewBox="0 0 960 560" enable-background="new 0 0 960 560" xml:space="preserve">
<path fill="none" d="M86.8,331.8c-1,2.1-2.2,4.2-3.1,6.4c-0.9,2.1-1.5,4.3-2.2,6.4c-1.3,4.4-2.5,8.9-4,13.2
	c-1.5,4.4-3.5,8.7-5.5,12.9c-2,4.2-4,8.6-6.2,12.7c-0.9,1.7-2.6,3.9-1.3,5.9c0.9,1.4,3.8-0.4,4.9-0.8c4.5-1.7,9.1-3,13.5-4.7
	c4.4-1.7,8.5-3.7,13-5.1c2.3-0.7,4.6-1.3,6.8-2.2c2.2-0.9,4.4-1.8,6.5-2.9c4.3-2.1,8.6-4.2,12.9-6.3c1.9-1,3.7-2.2,5.6-3.2
	c1.5-0.7,3.2-0.9,4.1-2.6c1-1.9,1.4-4.2,2-6.2c0.7-2.3,1.4-4.6,2.2-6.9c1.5-4.6,3.6-8.9,5.6-13.2c2-4.4,4.1-8.7,6.3-13
	c0.5-1,1-2,1.4-3c0.5-1.1,0.9-2.3,1.6-3.3c1.1-1.6,2.8-1.2,4.4-0.9c4.7,0.8,9.5,1.3,14.3,1.8c2.4,0.2,4.9,0.4,7.3,0.7
	c1.2,0.1,2.4,0.2,3.5,0.3c0.7,0.1,1.4,0.2,1.9,0.8c0.5,0.6,0.5,1.5,0.6,2.2c0.1,1.2,0.2,2.5,0.2,3.7c0.2,2.4,0.3,4.8,0.5,7.2
	c0.2,2.4,0.4,4.8,0.7,7.1c0.2,2.2,0.3,4.4,0.8,6.6c0.5,2.2,1.6,4.2,2,6.3c0.5,2.4,0.8,4.7,1.2,7.1c0.4,2.4,0.8,4.8,1.2,7.2
	c0.1,0.7,0.3,1.4,0.9,1.9c0.7,0.6,1.8,0.8,2.7,1.2c2,1.1,4.1,2.1,6.2,3c2.2,0.9,4.4,1.6,6.6,2.5c1,0.4,1.6,0.5,1.6,1.6
	c0,1.1-0.5,2.2-0.7,3.2c-0.6,2.3-1.1,4.6-1.5,7c-0.8,4.8-1.3,9.6-2.2,14.3c-0.2,1-0.5,2-0.7,3.1c-0.1,0.6-0.4,2.1,0.3,2.6
	c0.6,0.3,1.7-0.4,2.1-0.7c1-0.7,2-1.3,3.1-1.9c4.1-2.3,8.2-4.6,12.4-6.6c4.1-2,8.3-3.8,12.5-5.6c1.7-0.7,3.3-1.5,4.8-2.6
	c0.7-0.6,1.4-1.2,2.1-1.9c0.3-0.3,0.6-0.9,1-1c0.5-0.1,1.5,0.4,1.9,0.5c1.8,0.5,4.2,1.5,5-0.9c0.3-0.8,0.3-1.7,0.5-2.6
	c0.2-0.8,0.6-1.6,1.1-2.4c0.9-1.4,2.2-2.2,3.7-3c2-1,1.9-2.9,2-4.8c0.2-4.9,0.5-9.8,0.7-14.7c0.2-4.8,0.3-9.7,0.5-14.5
	c0.2-4.8,1-9.4,1.5-14.2c0.4-4.8,0.7-9.5,1.3-14.3c0.3-2.3,0.6-4.6,1-6.9c0.2-1.1,0.4-2.2,0.6-3.2c0.1-0.5,0.3-0.8,0.6-1.2
	c0.1-0.1,0.3-0.3,0.4-0.4c0.4-0.3,0.3-0.4,0.6-0.2c0.8,0.4,1.1,1.7,1.4,2.5c0.4,1.1,0.8,2.1,1.2,3.2c0.8,2.3,1.5,4.6,2.2,6.9
	c1.3,4.5,2.3,9,3.3,13.5c0.9,4.3,2.3,8.4,4,12.4c0.9,2,2,3.9,3,5.9c1.1,1.9,1.8,4,2.6,6.1c0.6,1.5,1.2,3.8,3,4.3
	c0.9,0.2,1.8,0,2.7-0.1c1.2-0.2,2.4-0.3,3.6-0.5c0.9-0.1,2-0.4,2.6,0.5c0.3,0.5,0.4,1.1,0.6,1.6c0.4,1.1,0.8,2.2,1.1,3.4
	c0.6,2.2,1.3,4.5,1.9,6.7c0.3,1.1,0.6,2.1,0.9,3.2c0.3,1.1,0.7,1.9,1.3,2.8c1.4-4,2.7-8,4.1-11.9c0.3-0.9,0.6-1.8,0.9-2.7
	c0.1-0.4,0.3-1.1,0.6-1.2c0.7-0.2,0.6,0.7,0.7,1.1c0.2,1.9-0.3,3.8,0,5.7c0.3,2,1,3.8,1.6,5.7c0.6,1.9,0.9,3.9,1,5.9
	c0.1,3.4,0.8,6.8,2.9,9.7c0.3,0.5,0.9,1.4,1.6,1.2c0.7-0.2,1.1-1.9,1.4-2.5c0.8-2,1.2-4,1.2-6.1c0.1-4.2-1.1-8.3-1.5-12.4
	c-0.5-4.2-0.5-8.5,0.1-12.7c0.2-1.3,0.3-2.9,1.9-3.3c0.8-0.2,1.6,0,2.4,0.2c0.6,0.2,1.3,0.6,2,0.5c0.8-0.2,1-1.1,1.3-1.8
	c0.4-1.1,0.8-2.1,1.1-3.2c0.4-1.1,0.7-2.2,0.9-3.3c0.1-0.4,0.1-1.4,0.4-1.7c0.4-0.5,0.6,0.1,0.8,0.5c0.4,1.3,0.6,3.6,2.5,2.7
	c1.9-1,2.7-3.5,3.7-5.3c0.5,0.7,1.5,1.3,1.5,2.3c0,0.5-0.5,0.9-0.6,1.3c-0.1,0.5,0.2,1.4,0.3,2c0.2,1.4,0.4,2.9,0.7,4.3
	c0.3,1.2,1.3,1.7,2.2,2.6c0.4-0.6,1.1-1,1.4-1.6c0.3-0.7,0.1-1.9,0.2-2.7c0.1-2,0.1-4,0-6c-0.2-3.9-1.2-7.8-2.1-11.6
	c-0.9-3.7-1.8-7.2-1.2-11c0.6-3.7,2.4-7.4,3.9-10.8c0.9-2,1.7-4,2.6-6c0.8-1.9,1.6-3.9,2.8-5.6c0.9,2,0.8,4.5,1,6.7
	c0.2,2.4,0.4,4.9,0.6,7.3c0.4,4.7,0.9,9.4,1.5,14.1c0.6,4.8,1.1,9.5,1.4,14.3c0.1,1.2,0.2,2.3,0.2,3.5c0.1,0.9,0,1.8,0.6,2.5
	c0.5,0.6,0.3,0.9,0.2,1.7c-0.2,1.1,0,2.2,0.1,3.3c0.4,2.3,0.2,4.9,0.3,7.2c0,2.4,0.1,4.7,0.1,7.1c0.1,4.6-0.1,9.3,0.6,13.8
	c0.3,1.8,0.7,3.8,2.3,4.9c0.6,0.4,1.3,0.7,2,0.9c0.4,0.1,0.8,0.2,1.2,0.3c0.1,0,0.4,0,0.6,0.1c0.4,0.2,0.3,0.2,0.2,0.8
	c-0.1,2.2-1,4.5-1.5,6.7c-0.6,2.4-1.1,4.7-1.7,7.1c-0.6,2.5-1.3,5.1-1.5,7.7c-0.1,1.2-0.1,2.5-0.1,3.7c0.1,0.7,0.2,1.5,0.8,2
	c0.6,0.4,1.4,0.3,2.1,0.1c1.2-0.3,2.3-0.7,3.4-1.2c2.2-0.9,4.2-2.1,6.2-3.4c0.1,1.4,0.1,2.9,0.3,4.3c0.1,0.9,0.2,2.5,1.2,2.8
	c1.1,0.4,2.3-0.6,3.1-1.3c1-0.8,2-1.7,2.8-2.7c0.9-1,1.5-2.1,2.1-3.3c0.7-1.3,1.3-1.1,2.5-0.5c2.7,1.3,4.7-1.1,6.6-2.6
	c-0.5,3.8-1.2,7.5-1.6,11.3c-0.2,1.6-0.7,3.5,0.1,4.9c0.6,1.1,1.8,1.8,3,1.9c1.3,0.1,2.3-0.7,2.9-1.9c0.9-1.7,1.3-3.8,1.9-5.6
	c1.1-3.8,2-7.6,3-11.5c0.7,0.9,1.3,1.8,2,2.7c0.3,0.4,0.4,0.8,0.8,0.7c0.5-0.1,0.5-1.3,0.6-1.8c0.2-0.8,0.5-2,1.2-2.6
	c0.7-0.6,1.6,0.2,2.2,0.6c0.6,0.4,1.3,0.9,2.1,0.7c0.9-0.2,1.6-1.2,2-1.9c1.4-2,2.2-4.2,3.2-6.4c0.4-0.8,0.7-1.8,1.4-2.4
	c0.8-0.7,1.5-0.3,2.4-0.1c0.7,0.2,1.9,0.6,2.6,0.3c0.8-0.3,1.1-1.4,1.3-2.1c1.6-4.7,3.4-9.4,4.7-14.2c1.3-4.6,2.2-9.3,3.8-13.8
	c0.8-2.4,1.9-4.6,2.9-6.9c0.9-2.2,1.8-4.5,2.8-6.7c1.1-2.3,2.3-4.6,3.6-6.9c0.6-1,1.1-2,1.7-3c0.6-1.1,1.2-1.6,2.5-1.6
	c1.2,0.1,2.3,0.3,3.5,0.3c1.3,0,2.6,0,3.9-0.1c2.6-0.1,5.2,0,7.8,0c2.5,0.1,4.9,0.1,7.4,0.1c1.3,0,2.6,0,3.9-0.1
	c1,0,1.9-0.1,2.8,0.4c1.4,1,1.7,3.4,2.1,4.9c0.7,2.4,1.2,4.8,1.8,7.3c1.1,4.9,2.1,9.7,3.3,14.6c1.3,4.9,2.7,9.8,3.6,14.8
	c0.5,2.5,0.8,5.1,1.3,7.7c0.5,2.4,1.1,4.7,1.6,7.1c0.5,2.4,0.9,4.9,1.5,7.3c0.2,1,0.3,2,1.1,2.9c0.2,0.3,0.6,0.8,0.9,0.9
	c0.4,0.2,0.1,0.1,0.5-0.1c0.3-0.1,0.6-0.5,0.8-0.7c0.7-0.7,1-1.7,1.4-2.6c0.5-1,1-2.1,1.4-3.2c0.4-1.1,0.8-2.2,1-3.3
	c0.2-1.1,0.2-2.3,0.6-3.4c0.3-0.8,0.8-2.2,1.4-2.8c0.2-0.2,0.1-0.4,0.5-0.2c0.2,0.1,0.2,0.3,0.2,0.6c0,0.6-0.2,1.3-0.2,2
	c-0.3,2.5-0.7,5-1.2,7.4c-1,4.9-1.7,9.9-1.6,15c0,1.6,0.2,2.7,1.9,3.1c2.3,0.5,4.4-0.4,6.6-1.1c4.9-1.5,9.7-3.1,14.5-4.9
	c0.3-0.1,1.4-0.7,1.7-0.6c0.2,0.1,0.6,0.9,0.7,1.1c0.6,0.9,1.2,1.7,2.2,2c0.8,0.3,1.6,0.6,2.1-0.3c0.6-1,0.6-2.2,0.8-3.2
	c0.3-2.2,0.7-4.3,1.1-6.5c1.9,1.6,5,5,7.5,2.6c0.9-0.9,1.2-2.3,1.2-3.5c0-1.8,0.3-3.6,0.5-5.5c0.9,0.4,1,1.1,1.3,2
	c0.4,1.1,0.8,2.2,1.2,3.4c0.7,2,1.6,3.9,2.6,5.7c0.8,1.4,1.8,4,3.7,3.9c1.5-0.1,1.1-3.3,1.2-4.2c0-1.1,0-2.2,0-3.3
	c0-0.9-0.4-2.4,0-3.3c0.2-0.5,0.7-0.7,1.1-1c0.6-0.5,0.8-0.4,1.6-0.4c0.8,0,1.4-0.6,2.1-1c0.8-0.4,1.6-0.5,2.4-0.8
	c1.6-0.5,2.3-2.6,2.9-4c0.8-2,1.2-4,1.5-6.1c0.2-2.2,0.6-4.3,0.9-6.5c0.6-4.5,1.3-9,2-13.6c1.4-9.1,3.6-18,5.5-27
	c2.2-10.1,4.1-20.3,6.7-30.3c1.3,1.1,0.9,3,1,4.5c0.1,1.8,0.2,3.7,0.2,5.5c0.1,3.6,0.4,7.2,0.1,10.8c-0.3,3.6-0.5,7.1-0.6,10.7
	c-0.1,1.8-0.2,3.6-0.2,5.4c0,1.5,0.4,2.8,0.6,4.2c0.6-0.6,1.2-1.1,1.8-1.7c0.4,4.6,0.9,9.2,1.1,13.9c0.3,4.7,0.2,9.5,0,14.2
	c-0.1,2.3-0.3,4.6,0,7c0.3,2.3,0.8,4.5,1.3,6.8c0.3,1.3,0.5,3.7,2.4,3.2c2.1-0.6,2.9-3,3.8-4.7c0.5-1,0.9-2,1.4-3
	c0.5-0.9,0.8-2.1,1.5-2.9c0.6-0.7,0.9-0.7,1.8-0.5c1,0.2,2.1,0.3,3.1,0.1c0.8-0.2,1.6-0.5,2.4-0.9c0.8-0.5,1.6-1.3,2.4-1.6
	c1.8-0.7,2.5,2.9,2.7,4c0.5,2.2,0.9,4.5,1.3,6.8c0.2,1,1.3,4.6,3,3.1c0.7-0.6,1.2-1.9,1.6-2.7c0.6-1,1.1-2,1.6-3c1-2,1.5-4,2-6.1
	c0.5-2,1.2-4,2.4-5.7c1-1.5,2.5-2.5,3.8-3.7c1.2-1.2,2.3-2.5,2.9-4.1c0.4-1,0.3-3.4,1.9-2.7c1.4,0.7,2.5,2,4.2,1.3
	c0.8-0.3,1.4-1,2-1.6c0.1-0.1,0.3-0.3,0.5-0.4c0.5-0.3,0.1-0.2,0.5,0c0.4,0.2,0.7,0.8,1.1,1.1c1.2,1,2.9,1.4,4.3,0.7
	c1.6-0.7,2.1-2.6,4-2.7c1.4-0.1,2.9,0.8,4.3,0.1c1.4-0.8,1.5-3.1,1.7-4.5c0.9-4.6,0.5-9.2,1-13.8c0.9-9.3,3.1-18.5,4.8-27.8
	c1.7-9.2,2.7-18.5,4.3-27.8c0.8-4.7,0.9-9.5,1.6-14.2c0.7-4.7,1.3-9.4,1.9-14.1c0.6-4.8,1.2-9.5,1.7-14.3c0.6-4.8,0.9-9.6,1.5-14.4
	c0.6-4.7,1.4-9.3,2-14c0.6-4.7,1.1-9.4,1.5-14.1c0.5-4.8,1-9.6,1.5-14.4c0.2-2.4,0.5-4.7,0.7-7.1c0.1-1,0-2.2,0.5-3
	c0.5-1,0.2-2.8,1-3.6c0.3-0.3-26.6,187.6-27.4,187.3c-0.8-0.3-1.4,2.5-1.5,2.9c-0.5,1.8-0.9,3.7-1.2,5.5c-0.3,1.8-0.7,3.6-0.5,5.5
	c0.2,1.9,0.8,3.7,0.9,5.5c0.1,2-0.4,3.8-0.7,5.8c-0.3,1.9-0.5,3.9-0.4,5.9c0.1,1.7,0.2,3.9,0.9,5.5c0.7,1.5,2.3,1.5,3.7,1.2
	c1.6-0.3,3.1-1.7,4.3-2.8c0.9-0.9,1.8-2.2,3-2.9c1-0.5,2.2,0,3.2,0.4c1.5,0.5,3,0.7,4,1.9c1,1.1,1.2,2.6,1.3,4.1
	c0.1,1.7-0.3,3.5-0.3,5.3c0,1.8,0.1,3.5,0.3,5.2c0.5,3.5,1.6,6.8,3.2,10c0.8,1.6,1.8,3,2.3,4.6c0.2,0.7,0.4,1.7,0.9,2.2
	c0.2,0.2,0.5,0.4,0.7,0.5c0,0,0.4,0.3,0.4,0.3c0.1,0,0.4-0.5,0.4-0.6c1-1.4,0.8-3.5,0.9-5.2c0.1-2,0.2-4,0.3-6c0.2-4,0.6-8,1.2-12
	c0.3-1.9,0.6-3.9,1.2-5.7c0.5-1.7,0.9-3.7,1.8-5.2c0.6-1.1,1.8-1.5,3-1.7c1.4-0.2,2.7-0.3,4.1-0.7c2.8-1,4.4-3,5.5-5.7
	c0.8-2.1,2-6.5,5.1-5.8c1.6,0.4,3.1,1.5,4.4,2.4c1.6,1,3.1,2.2,4.6,3.3c2.4,1.9,4.8,4.4,8.1,4.3c1.3-0.1,2.6-0.5,3.6-1.3
	c1.2-0.9,1.7-2.1,2.5-3.4c1-1.6,2.6-2,4.3-2.2c1.9-0.1,3.6-0.5,5.5-1c1.9-0.4,3.8-0.4,5.6-0.7c1.9-0.3,3.7-0.8,5.6-1.3
	c0.8-0.2,1.6-0.5,2.5-0.8c0.8-0.3,1.7-0.4,2.2-1.2c0.9-1.4,1.1-3.5,1.7-5.2c0.5-1.3,1.5-2.1,2.9-1.6c1.3,0.5,1.6,1.8,1.7,3
	c0.2,1.9,0.2,3.9,0.7,5.8c0.5,1.8,1.3,3.6,2.1,5.3c0.9,1.7,1.4,3.3,1.4,5.3c0,2,0,4,0.3,6c0.2,1.9,0.5,3.9,0.8,5.8
	c0.2,1.6,0.2,3.7,1.3,5c0.8,1,2.2,1.4,3.4,0.8c1.2-0.5,1.4-1.8,1.4-2.9c0.1-2,0-4.1,0-6.1c0-1.9,0.2-4.1-0.1-6
	c-0.3-1.8-0.8-3.5-1-5.3c-0.2-2-0.2-4.1-0.2-6.1c0-2-0.1-4-0.1-6c0-1.5-0.3-3.2-0.2-4.7c0.1-1.3,1.6-1.6,2.6-2
	c0.7-0.2,1.6-0.6,2.3-0.3c1,0.5,1.3,1.7,2.1,2.4c0.9,0.9,3,1.6,3.9,0.5c1.1-1.3,1.1-3.1,1.3-4.7c0.2-1.5,0.6-3,0.9-4.5
	c0.8,0.8,1.6,2.2,2.7,2.6c1.4,0.6,2.5-0.5,2.9-1.7c1.3-3.4,1.2-7.2,0.8-10.8c-0.3-3.5-0.9-7-0.8-10.6c0.1-3.6,1.3-7.1,2.3-10.5
	c0.5-1.7,1-3.4,1.6-5.1c0.6-1.6,1.4-3.1,2.1-4.7c1.4-3.2,2.1-6.6,2.4-10.1c0.1-1.6,0.3-3.3,0.1-5c-0.2-1.7-1-3.2-1.4-4.9
	c-1-3.5-0.9-7-1-10.6c-0.1-3.8-0.2-7.5,0.5-11.2c0.7-3.6,1.9-7.2,2.4-10.8c1.2-7.3,0.8-14.7-0.1-22c-0.9-7.3-3.3-14.1-5.3-21.1
	c-0.5-1.7-2.3-7.8-2.4-9.6c0-0.4,4.7,10.4,5.6,27.2c0.3,4.7,3.6,9.7,2.8,20.2c-0.7,10.1-3.8,20.3-3.5,30.8c0.1,5,2.4,10.5,2.4,15.2
	c0,10.8-7.7,25-8.6,32.2c-1,8.6,4.9,9.3,5,9.3c1.7-0.4,3.4-0.8,5.2-1.1c2.4-0.5,5-1,6.6-3.1c1.7-2.2,1.7-5.5,2.4-8.1
	c0.9-3.4,2.2-6.8,3.4-10.1c2.4-6.6,4.8-13.2,7.6-19.7c0.7-1.6,1.4-3.2,2-4.7c0.7-1.5,1.5-2.9,2.2-4.4c1.4-3.3,2.7-6.7,4.1-10
	c0.4-1.1,0.8-2.4,2-2.9c1.3-0.5,3-0.2,4.3-0.1c3.5,0.1,7,0.2,10.5,0.4c3.6,0.2,7.3,0.4,10.9,0.7c1.7,0.1,4.3-0.1,5,1.8
	c0.5,1.2,0.6,2.5,0.9,3.7c0.4,1.7,0.7,3.4,1.1,5.1c0.7,3.4,1.5,6.8,2.3,10.2c1.5,6.8,3,13.7,5.2,20.3c1.1,3.2,2.2,6.4,3.3,9.6
	c1.1,3.2,1.4,6.6,1.6,9.9c0.6,7,1.2,14,2.3,21c0.1,0.8,0.2,1.7,0.4,2.5c0.1,0.8,0.5,1.3,0.9,1.9c0.4-0.3,0.9-0.5,1.3-0.9
	c0.4-0.4,0.6-1,0.9-1.5c0.6-1.1,1.2-2.2,1.7-3.4c0.5-1.2,0.9-2.4,1.1-3.6c0.2-1.4,0.5-2.6,0.9-4c1.1,1.1,1.1,3.5,3,3.7
	c1.7,0.2,3.4-1.9,4.3-3c1.2-1.5,2.3-3.3,4.5-2.7c0.9,0.2,1.6,0.8,2.5,1.1c0.6,0.2,1.2,0.4,1.8,0.8c1,0.6,1.2,1.5,1.2,2.5
	c0,2.1-0.2,4.3-0.2,6.4c0,2.4,0.2,4.9,0.5,7.3c0.1,1.1,0.1,4,1.9,3.6c0.8-0.2,1.6-0.9,2.2-1.3c0.9-0.7,1.8-1.5,2.7-2.2
	c0.9-0.8,2.2-1.4,3.4-1.7c0.5-0.1,0.8-0.1,1.1,0.3c0.5,0.8,0.8,2.1,0.9,3.1c0.3,2.3,0.4,4.6,0.6,6.9c0.2,2.3,0.3,4.6,1.6,6.5
	c0.5,0.7,1,1.4,1.9,1.3c0.9-0.1,1.5-0.9,2-1.6c2.2-3.8,1.2-8.8,1.2-13c0-2.3,0.2-4.6,0.8-6.8c0.7-2.4,1.9-4.2,3.1-6.3
	c1.3-2.2,0.7-5.1,0.5-7.5c-0.1-1.2-0.2-2.4-0.4-3.5c-0.2-1.2-0.2-2.4,0.5-3.5c0.6,1.6,0.6,3.3,1.7,4.7c0.9,1.1,2.5,1.3,3.6,0.3
	c0.6-0.5,0.9-1.3,1.5-1.8c0.6-0.6,1.3-0.8,1.9-1.3c1.3-1.1,0.7-2.5,0.1-3.8c-1.7-3.4-2.3-7.3-3.1-11c-0.9-3.9-1.7-7.8-2.5-11.8
	c-1.7-7.8-4-15.4-6-23.1c-2-7.7-3.7-15.6-5.4-23.4c-0.9-3.9-1.5-7.8-2.1-11.7c-0.7-4.1-1.4-8.1-2.1-12.2c-0.6-3.9-1.5-7.7-2.2-11.6
	c-0.7-4-1.4-8-2.2-12c-0.7-3.9-1.9-7.6-2.8-11.5c-0.9-3.9-1.5-7.9-2.2-11.9c-1.4-7.9-3.4-15.6-3.7-23.6c-0.1-2-0.1-4,0-6
	c0-1.1,0.2-2.9-0.8-3.7c-1.1-0.8-1.8,0.8-2.1,1.6c-0.3,0.8-0.2,1.5-0.3,2.3c-0.1,1.1-0.2,2.1-0.4,3.2c-0.2,1.9-0.7,3.8-0.9,5.8
	c-0.2,1.9,0.2,3.8,0.2,5.7c0,3.6-0.5,7.4-1.3,10.9c-0.3,1.5-1.8,5.9-2.2,3.7c-0.3-2.6-0.6-5.2-0.9-7.8c-0.1-1.3-0.3-2.6-0.5-3.9
	c-0.2-1.4-0.7-2.1-1.5-3.3c-3.1-4-4.1-9.4-3.8-14.4c0.1-2,1.1-4.5-0.1-6.4c-0.9-1.4-2.5-1.9-4.1-1.7c-0.9,0.1-1.8,0.6-2.6,0.3
	c-1-0.3-1.2-1.5-1.4-2.4c-0.4-1.8-0.5-4.6-2.6-5.4c-1-0.4-1.5,0.5-2.2,1.1c-0.8,0.8-1.7,1.5-2.5,2.3c-1.8,2-2.5,4.9-3.4,7.4
	c-1.1-0.5-2.2-1-3.3-1.6c-1.2-0.7-1.7-1.6-2.4-2.8c-1.1-2.2-1.9-4.4-2.3-6.8c-0.4-2.6-0.1-5.3-0.2-8c-0.1-2-0.6-3.5-2.4-4.6
	c-0.4-0.2-1-0.7-1.4-0.5c-0.5,0.2-1,1.1-1.4,1.5c-0.9,1-1.9,2-2.8,3.1c-1.7,2-3.4,4.1-5.1,6.1c-1.1,1.3-2.8,3.5-4.8,2.6
	c-1-0.5-2-1.3-3-1.9c-0.2-0.1-0.4-0.3-0.6-0.4c-0.4-0.1-0.3-0.1-0.7,0.2c-0.5,0.4-1,0.8-1.6,1.2c-1.9,1.4-3.1,3.8-4.3,5.8
	c-0.5,0.7-1,1.4-1.8,1.8c-0.9,0.4-1.9,0.3-2.9,0.5c-2,0.6-3.4,2.2-3.8,4.2c-0.5,2.8-0.9,5.5-1.3,8.3c-0.8,5.5-1.2,11.1-1.6,16.6
	c-0.4,5.6-1.2,11.3-0.9,16.9c0.2,2.8,0.4,5.5,0.6,8.3c0.2,2.6,0.7,5.4,0.1,8c-0.1,0.5-0.1,1.4-0.7,1.4c-0.5,0.1-0.8-0.6-1.1-1
	c-0.6-1.1-0.8-2.8-1-4.1c-0.5-2.7-0.3-5.6-0.4-8.4c-0.3-11.3-0.2-22.5,0.3-33.8c0.2-5.5,0.4-11.1,0.7-16.6c0.2-2.7,0.4-5.5,0.4-8.2
	c0-0.9-0.1-1.8-0.6-2.6c-0.2-0.3-0.8-1.1-1.1-1.1c-0.3,0-1.4,1.2-1.6,1.4c-1.8,1.6-2.8,3.3-3.6,5.4c-0.8,2.1-1.8,4-2.8,6.1
	c-1.1,2.3-1.8,4.7-2.6,7.2c-0.8,2.4-1.7,4.7-2.7,7c-2,4.8-4.9,9.1-6.5,14c-1.6,5-3.1,10.1-4.7,15.2c-0.1,0.4-0.3,1.6-1,1
	c-0.3-0.2-0.4-1.2-0.5-1.6c-0.4-1.4-0.7-2.8-1.1-4.2c-0.4-1.3-0.7-2.6-1.1-3.9c-0.3-1-0.7-1.8-1.7-2.2c-2-0.8-3.7,0-4.3,2
	c-0.8,2.6-1.6,5.3-2.3,7.9c-0.7,2.6-1.4,5.2-2.3,7.7c-0.6-2-1.2-4.2-1.3-6.3c0-0.9,0.2-1.8,0.3-2.7c0.1-1-0.1-1.9-0.3-2.9
	c-0.7-3.8-1.9-7.6-3.6-11.2c-1.5-3.2-3.3-6.2-5.9-8.6c-1.2-1.1-2.6-2.1-4.1-2.9c-1.4-0.7-2.8-1.5-3.8-2.8c-1.2-1.5-1.6-3.4-2.1-5.2
	c-0.5-2.1-1.1-4.1-1.6-6.2c-0.9-3.7-1.7-7.5-3.2-11c-1.2-2.9-3.1-5.9-5.8-7.6c-2.3-1.4-5.1-2.1-7.8-1.9c-1.4,0.1-2.8,0.5-3.9,1.3
	c-1.3,0.9-2.3,2.2-3.5,3.2c-1.4,1.2-3,2.2-4.4,3.4c-1.2,1-2.3,1.7-3.9,1.8c-1.4,0.1-2.8-0.2-3.9-1c-1.2-0.9-1.9-2.1-3.2-2.9
	c-3.1-1.8-5.4,0.3-7,3c-2,3.5-3.5,7.2-5.4,10.8c-0.9,1.7-1.9,3.4-3.1,4.9c-0.4,0.5-0.8,1-1.5,0.6c-0.7-0.5-0.6-1.9-0.6-2.6
	c-0.2-2.2-0.4-4.4-0.5-6.5c-0.1-1.1,0.3-4.2-1.4-4.2c-0.7,0-1.6,0.7-2.2,1.1c-0.9,0.5-1.7,1.1-2.4,1.8c-1.5,1.4-2.8,2.9-4.2,4.5
	c-0.3,0.4-0.7,0.7-1,1.1c-0.2,0.3-0.7,1-1,1.1c-0.5,0.3-0.6-0.1-0.5-0.6c0.1-0.5,0.2-1.1,0.3-1.6c0.4-2.1,0.8-4.3,1.2-6.4
	c0.8-3.8,3-7.7,2.4-11.7c-0.3-1.9-1.2-2.9-2.7-3.9c-1.4-1-1.2,0.4-2.1,0.9c-1.5,0.9-2.7,2.3-3.9,3.6c-1.3,1.4-2.7,2.3-4.4,3.1
	c-1.8,0.8-3.4,1.7-5,2.8c0.5,0.1,0.3,0.2,0.2,0.6c-0.1,0.3-0.2,0.6-0.2,1c-0.2,0.6-0.3,1.3-0.5,1.9c-0.3,1.3-0.7,2.7-1,4
	c-0.3,1.3-0.7,2.5-1,3.8c0,0.2-0.1,0.9-0.2,1c-0.1,0-0.3-0.1-0.4-0.1c-0.3,0.1-0.4,0-0.4-0.2c-0.1-0.4,0.2-1.5,0.2-1.9
	c-0.9,0.8-1,2.4-2,3.1c-1.1,0.7-2.1,1.1-2.8,2.4c-0.5,1-0.6,2.2-1.5,3c-0.9,0.8-2.5,0.9-3.5,1.6c-1.3,0.8-2.6,1.4-2.8,3
	c-0.2,1.8-0.3,3.7-0.4,5.5c-0.3,3.3-0.6,6.7-1.2,9.9c-0.3,1.8-0.7,3.6-1.3,5.4c-0.3,0.9-0.6,1.9-0.9,2.8c-0.3,0.8-0.9,1.7-0.8,2.6
	c0.3-0.2,0.7-0.4,1-0.6c-0.3,1.4-1.1,2.3-1.7,3.5c-0.7,1.3-1,3.1-1.3,4.5c-0.7,3.2-1.2,6.4-1.1,9.7c0.1,1.7,0.4,3.4,0.7,5.1
	c0.3,1.3,0.2,2.6-0.4,3.9c-0.3,0.7-1.5,2.7-2.5,2.1c-1-0.6-0.9-2.5-1.6-3.4c-0.6-0.7-2.4-1.7-3.3-1.5c-1.2,0.4-1.5,2.6-1.8,3.6
	c-1,3.4-1.3,7-1.8,10.4c-0.5,3.5-1,7-1.6,10.5c-0.3,1.6-0.7,3.2-1.5,4.7c-0.3,0.6-0.7,1.4-1.1,1.9c-0.8,0.9-0.9-0.8-1-1.3
	c-0.6-3.3-0.3-6.7-0.5-10.1c-0.2-3.5-0.5-7-0.2-10.4c0.1-1.8,0.4-3.5,0.8-5.2c0.3-1.6,0-3.2,0-4.9c0-3.4,0.1-6.8-0.1-10.2
	c-0.2-3.5-0.7-6.9-1.2-10.4c-0.5-3.5-0.6-7-0.8-10.5c-0.1-1.7-0.2-3.4-0.3-5.1c-0.1-1.6-1.1-2.9-1.4-4.4c-0.3-1.5,0-3.1-0.4-4.5
	c-0.3-1.2-1.2-2.1-1.9-3.1c-0.3-0.4-0.5-1-0.9-1.2c-0.6-0.2-1.4,0.2-1.9,0.4c-1.5,0.5-2.7,1.4-4.4,1.2c-2.5-0.2-4.2-2.7-6.6-0.8
	c-1.1,0.8-1.9,2-3.3,2.4c-0.6,0.2-1.3,0.2-1.9,0c-0.6-0.2-1.1-0.5-1.7-0.3c-1.2,0.4-1.5,2.2-1.8,3.2c-0.6,1.7-1.4,3.3-2,4.9
	c-0.7,1.6-1.4,3.3-2.1,4.9c-0.3,0.7-0.5,1.4-1.1,1.8c-0.1,0.1-0.6,0.5-0.7,0.5c-0.1,0-0.6-0.7-0.7-0.8c-0.8-1.2-0.8-3.2-1-4.6
	c-0.3-1.5-0.6-3-1.1-4.4c-0.4-1.1-0.8-2.5-1.7-3.3c-0.8-0.7-1.9-1-2.5-2c-0.5-1-0.4-2.3-0.3-3.4c0.1-1.5-0.2-3.1-0.6-4.6
	c-0.3-1.2-0.7-2.3-2-2.8c-1.2-0.4-2,0-2.7,0.9c-1,1.3-2,2.6-2.9,3.9c-0.9,1.4-1.4,2.7-2.1,4.2c-1.4,3-4.6,0.1-6.9,0.6
	c-1.3,0.2-2.2,1-2.9,2c-1.1,1.4-2.1,2.9-3.1,4.3c-1,1.4-2.1,2.9-3.1,4.3c-0.5,0.7-1,1.4-1.5,2.1c-0.2,0.3-0.4,0.6-0.7,0.8
	c-0.1,0.1-0.4,0.4-0.5,0.4c-0.3,0.1-0.2,0-0.4-0.2c-0.5-0.5-0.5-1.2-0.6-1.9c-0.1-0.9-0.2-1.8-0.3-2.6c-0.2-1.7-0.3-3.4-0.5-5.1
	c-0.2-1.6-0.4-3.3-0.6-4.9c-0.2-1.4-0.1-3.3-1.1-4.4c-0.8-1-1.6-1.1-2.5-0.2c-1,0.9-1.2,2.7-1.5,3.9c-1.8,6.6-2.1,13.6-3.2,20.3
	c-1.1,7-2.3,14-3.6,20.9c-2.5,13.8-5.7,27.5-8.7,41.3c-0.7,3.4-1.4,6.8-2.1,10.3c-0.7-0.7-0.7-1.8-0.8-2.7c-0.2-1.1-0.3-2.2-0.5-3.3
	c-0.3-2.2-0.7-4.3-1-6.5c-0.7-4.3-1.3-8.6-2-12.9c-1.4-8.5-3.4-16.8-5.7-25.1c-0.6-2.2-1.2-4.5-1.7-6.7c-0.3-1.1-0.5-2.3-0.9-3.3
	c-0.4-1-1.1-1.7-1.7-2.5c-1.3,1.8-2.6,3.5-3.8,5.3c-1.3-2.4-1.6-5.3-2.2-7.9c-0.7-2.9-1.3-5.8-1.9-8.7c-0.3-1.4-0.6-2.7-1-4.1
	c-0.2-0.8-0.6-1.7-1.5-2c-1.8-0.6-4.2,0.5-5.2,2c-0.6,0.9-1.1,1.6-2.2,2c-1.1,0.4-2,0.3-2.7-0.7c-1.5-2.1-1.9-4.8-3.3-6.9
	c-0.5-0.8-1.3-1.4-2.1-1.7c-1.1-0.3-1.7,0.2-2.6,0.7c-0.4,0.2-1.3,0.4-1.5,0.8c-0.2,0.3,0,0.7-0.3,1c-0.6,0.8-1.9,0.6-2.8,0.7
	c-2.4,0.1-4.6,1.1-6.9-0.1c-1.1-0.6-2-1.5-2.9-2.4c-1-1-2-2.1-2.9-3.2c-1.3-1.6-2.8-3.7-5.2-3.1c-2.3,0.6-3.4,2.9-5.4,3.9
	c-1.9,0.9-3.1-1.7-5-1.6c-2,0.1-3.3,3.4-4.1,4.9c-1.2,2.3-1.8,4.7-2.4,7.2c-0.5,2.1-1.5,4.4-3.9,4.8c-1.5,0.2-3.8-1.2-5-0.1
	c-0.6,0.5-0.7,1.5-0.8,2.2c-0.2,1.6-0.3,3.2-0.4,4.9c-0.3,3.3-0.4,6.6-0.7,9.8c-0.2,2.8-3.8,6-3.9,5.1c-0.1-1.1-1.8-5.3-1.9-7.5
	c-0.2-4.3,0.7-11,0.5-15.3c-0.1-2,0-4.1-0.5-6c-0.3-1.2-1.1-3.1-2.7-2.8c-1.6,0.3-2,2.7-2.3,3.9c-0.6,2.1-0.7,4.2-1,6.3
	c-1.2,8.7-3.2,17.2-5.1,25.7c-1.9,8.3-3.2,16.7-5.3,24.9c-1.2,4.6-2.8,9.2-4.1,13.7c-1.3,4.7-1.5,12.7-2.7,17.4
	c-0.8-0.7-1.4-5.2-1.4-6.1c-0.1-1.2-0.1-2.3-0.2-3.5c-0.1-2.3-0.3-4.5-0.5-6.8c-0.5-4.6-1.2-9.1-1.9-13.6c-0.3-2.2-0.7-4.4-1-6.5
	c-0.3-2.3-0.4-4.7-0.6-7.1c-0.3-4.6-1-9.1-1.1-13.7c-0.1-2,0.1-4-0.6-5.9c-0.6-1.7-5.2-3.8-6.4-4c-0.8-0.2-1.7-0.3-2.5-0.5
	c-0.8-0.2-1.1-0.1-1.4-0.9c-0.5-1.3-1-2.8-2.3-3.4c-1.3-0.6-2.1,0-2.5,1.3c-0.4,1.6-0.4,3.5-0.5,5.2c-0.1,1.9-0.2,3.8-0.2,5.8
	c0,1.8,0,3.6,0,5.4c0,0.9,0,1.8-0.1,2.6c-0.1,0.9-0.5,1.8-0.7,2.8c-0.4-0.2-0.9-0.4-1.2-0.8c-0.3-0.6-0.4-1.6-0.6-2.3
	c-0.4-1.5-0.7-3-1-4.6c-0.5-3.2-0.2-6.5-0.6-9.8c-0.2-1.6-0.5-3.1-0.7-4.7c-0.2-1.5-0.3-3-0.6-4.5c-0.3-1.3-0.9-2.5-1.6-3.6
	c-0.7-1-1.5-2.3-2.9-2.4c-1.5,0-2.5,1.4-3.5,2.3c-1.3,1.2-2.7,2.3-4.1,3.5c-1-1.6-2.2-3.1-3.1-4.8c-0.8-1.7-1.2-3.5-1.8-5.3
	c-0.5-1.6-1.1-3.2-2.5-4.2c-0.4-0.3-1.1-0.8-1.7-0.6c-0.6,0.1-1.1,0.9-1.5,1.3c-2.2,2.7-2.9,6.4-3.5,9.7c-0.6,3.8-1.2,7.7-1.9,11.5
	c-0.7,3.9-2.2,7.6-3.5,11.3c-1.4,3.8-2.7,7.6-3.9,11.4c-2.5,7.9-5.1,15.8-7.1,23.8c-1.1,4.5-2.2,9-3.4,13.5
	c-0.6,2.3-1.2,4.5-1.9,6.7c-0.3,1-0.5,2-1,3c-0.5,1-1.1,1.9-1.6,2.9c-1.5-1.8-2.5-3.9-3-6.2c-0.5-2.1-0.4-4.3-0.8-6.4
	c-0.5-2.5-1.2-5-1.8-7.5c-0.7-2.6-1.3-5.3-1.9-7.9c-1.2-5.1-2.1-10.3-3.2-15.5c-1.1-5.3-2.2-10.5-3.2-15.8
	c-0.8-4.5-1.8-9.1-4.1-13.2c-1.1-1.9-2.5-3.7-3-5.9c-0.6-2.4,0.7-4.5,0.6-6.9c-0.1-2.4-0.1-4.8-0.4-7.2c-0.1-0.8-0.4-1.3-1.2-1.4
	c-0.9-0.1-2.1-0.1-2.9,0.2c-1.7,0.6-1.8,3.3-2.6,4.9c-0.9,1.9-2.3,3.7-3.2,5.6c-0.5,0.9-1,1.8-1.7,2.6c-0.4,0.5-1,1.6-1.7,1.7
	c-0.6,0.1-1.2-0.7-1.6-1.1c-0.6-0.7-1.3-1.6-2.2-2c-1.8-0.6-3.7,1.9-4.7,2.9c-1.8,1.7-3.4,3.5-5.2,5.3c-0.8,0.8-1.6,1.8-2.5,2.5
	c-0.9,0.6-1.8,0.6-2.8,0.7c-1.2,0-2.5,0.1-3.3,1c-0.9,1,0.4,3.1,0.1,4.4c-0.2,1.2-0.5,2.2-1.6,3.1c-0.4,0.3-0.6,0.7-0.9,0.7
	c-0.3,0-0.3-0.2-0.4-0.5c-0.1-0.6-0.1-1.2-0.1-1.8c-0.1-2.7-0.2-5.5-0.3-8.2c-0.1-2-0.5-3.8-2-5.2c-1-0.9-1.2-1.8-2.7-0.7
	c-0.7,0.5-1.5,2.5-1.6,3.3c-0.3,1.3-0.5,2.7-0.8,4c-0.9,5.2-1.7,10.4-2.6,15.6c-0.8,5.3-1.8,10.6-2.3,15.9c-0.2,2.5-0.3,5.1-0.7,7.6
	c-0.1,0.6-0.2,1.2-0.4,1.8c-0.1,0.3-0.2,1.6-0.4,1.8c-0.9,0.6-1.3-2.6-1.4-3c-1.1-5.3-1.9-10.6-2.7-16c-0.8-5.3-1.4-10.6-2.4-15.8
	c-0.9-5.2-1.5-10.4-1.9-15.7c-0.1-1.3-0.2-2.6-0.3-3.9c-0.1-1.3-0.6-1.5-1.4-2.4c-0.8,1-1.4,1.7-1.8,2.9c-0.4,1.2-1,2.3-1.4,3.5
	c-0.7,2.6-0.4,5.6-0.5,8.2c-0.1,2.8-0.2,5.6-0.2,8.3c0,2.3,0.3,4.3-1.4,6.1c-0.9-2.4-2-4.8-2.6-7.3c-0.6-2.6-1-5.2-1.5-7.8
	c-1-5.4-1.6-10.9-1.6-16.4c0-1.7-0.3-3.5-1.9-4.5c-1.5-1-3.6-0.3-4.1-2.4c-0.5-1.9-1.2-3.9-3.2-4.5c-0.8-0.3-1.7-0.2-2.4,0.3
	c-0.8,0.6-1,1.6-1.6,2.3c-0.6,0.7-1.4,1.2-2.4,1.3c-1,0.1-2.1-0.4-2.9,0.5c-0.8,0.9-0.7,2.8-0.8,3.9c-0.1,1.3-0.3,2.5-0.6,3.8
	c-1.4-2.6-2.8-5.1-4.2-7.7c-1.6-2.9-2.4-6-3.3-9.1c-0.5-1.6-0.9-3.1-1.4-4.7c-0.4-1.4-0.6-3.1-1.4-4.3c-1.4-2.3-4.1,0.3-5.2,1.6
	c-1.9,2-2.5,4.6-4.1,6.8c-0.4,0.6-2.1,2.9-2.8,2.6c-0.4-0.2-1-1.1-1.3-1.5c-0.5-0.5-1-1-1.5-1.4c-1.9-1.4-3.9-1-5.4,0.8
	c-1.9,2.3-2.8,5.3-4.5,7.8c-1.4,2.1-3.2,2.9-5.7,3.3c-2.4,0.4-2.5,2.1-2.4,4.2c0.1,1.6-0.2,3.2-0.3,4.8c-0.1,1.6-0.3,3.3-0.4,4.9
	c-0.3,3.3-0.5,6.6-0.8,9.8c-0.5,6.6-1.1,13.2-1.8,19.8c-0.3,3.3-0.6,6.6-1.1,9.9c-0.2,1.6-0.5,3.2-0.8,4.8c-0.1,0.7-0.3,1.5-0.5,2.2
	c-0.1,0.4-0.3,2.1-0.6,2.3c0,0-0.5-0.1-0.5-0.1c-0.2-0.2-0.1-0.1-0.2-0.4c-0.1-0.4,0-0.8,0-1.2c0-0.8,0-1.7-0.1-2.5
	c-0.1-1.6-0.4-3.1-0.5-4.7c-0.2-3.3,0.2-6.6,0.5-9.9c0.5-6.6,1-13.1,1.8-19.7c0.8-6.6,1.2-13.2,1.5-19.9c0.3-5.9,1.3-12.4-1.3-17.9
	c-0.5-1-1.1-2.5-2.2-2.9c-1.1-0.4-2.4,0.2-3.4,0.7c-2.4,1.3-3.4,3.7-4.4,6.1c-2.5,5.9-4.7,11.9-6.7,18c-2,6-4.4,11.7-6.8,17.5
	c-1.2,2.8-2.3,5.7-3.3,8.6c-1,3.1-1.7,6.2-2.6,9.4c-1.8,6.3-4,12.5-5.7,18.8c-1.7,6.3-3.1,12.7-4.9,19c-0.9,3.1-2,6.1-3.1,9.1
	c-1.1,3.1-2.1,6.2-3.2,9.4c-1,3-2,6-3.2,9c-1.1,2.8-2.1,5.8-3.4,8.5c-0.6,1.3-1.3,2.5-1.8,3.9C87.6,328.4,86.6,331.8,86.8,331.8z
	 M671.4,258.1c-0.2,1.6-0.3,3.2-0.5,4.7c-0.3,3-0.5,6.1-0.7,9.1c-0.3,6.1-0.6,12.1-0.9,18.2c-0.1,2.9-0.7,5.7-0.4,8.6
	c0.1,1.2,0.6,2.1,1.7,2.7c0.8,0.4,1.7,0.5,2.6,0.9c1.3,0.6,1.2,1.9,1.2,3.1c0,1.3,0.2,2.4,0.5,3.7c0.2,1.1,0.4,3,1.2,3.8
	c1,0.8,1.6,0.1,2.1-0.8c0.7-1.3,1.3-2.7,2-4c0.9-1.6,1.9-3,3.9-3.2c1.2-0.1,3.5,0.9,4.3-0.4c0.8-1.3,0.3-3.2,1.3-4.5
	c0.4-0.5,0.9-0.7,1.5-0.9c0.8-0.2,2,0,2.6-0.6c0.7-0.6,0.3-1.8,0.4-2.5c0.1-1.2,0.3-2.3,0.9-3.3c0.5-0.9-0.9-1.2-0.5-2.2
	c0.5-1.3,1.5-3.6,1.5-4.9c0.1-3,1.2-5.6,1.1-8.6c-0.1-3.3-0.3-6.5-0.4-9.8c0-0.7,0.1-1.7-0.3-2.4c-0.2-0.3-0.9-1.2-1.3-1.2
	c-0.9-0.1-1.7,1.5-2.1,2.1c-1.6,2.3-3.2,4.3-4,7.1c-0.4,1.3-0.4,2.7-0.9,4c-0.4,1.4-1.1,2.7-1.5,4.1c-0.9-1.2-1.7-2.5-2.5-3.8
	c-0.9-1.5-2.1-3.1-2.6-4.8c-0.2-0.9,0-2,0.1-2.9c0.1-0.9,0.2-1.8,0.3-2.7c0.2-2,0.5-3.9,0.7-5.9c0.2-1.9,0.3-3.9,0-5.7
	c-0.1-0.5-0.3-1.3-0.7-1.6c-0.5-0.4-1.5,0-2,0.3c-1.6,0.8-2.9,2.2-4.2,3.4c-0.4,0.3-0.3,0.4-0.8,0.3c-0.3-0.1-0.7-0.5-0.9-0.7
	C673.6,256.1,671.5,257,671.4,258.1z M817.6,218.6c-1,0.8-1.8,1.6-2.4,2.8c-0.6,1.1-1,2.4-1.4,3.6c-0.7,2.6-1,5.3-1.6,7.9
	c-1.3,5.7-4.3,10.8-6.2,16.3c-0.9,2.8-1.6,5.7-1.6,8.7c0,1.4,0.1,2.7,0.3,4.1c0.2,1.3,0.5,2.8,1.2,4c1.1,1.8,3.7,1.7,4.1-0.5
	c0.5-2.8,0.5-5.8,0.8-8.6c0.1-1.6,0.3-3.2,0.4-4.7c0.1-0.9,0.3-1.9,0.8-2.7c1.2-2,3.8-2.2,5.9-2.8c1.5-0.4,3-0.8,4.4-1.3
	c1.1-0.3,2.2-0.8,3.4-0.8c0.9-0.1,1.7,0.1,2.5,0.6c0.9,0.6,1.3,1.9,2.3,2.2c0.6,0.2,2.2,0.4,2.7-0.2c0.7-0.7,0.1-2.5-0.3-3.2
	c-1.4-2.4-2.3-5.1-3.4-7.8c-0.6-1.4-1.1-2.9-1.7-4.3c-0.4-1.1-0.8-2.4-0.9-3.7c-0.2-1.8,0-8.3-0.3-9.8c-0.3-1.7-0.1-3.2,0.1-4.8
	c0.1-1.2,0.6-2.9-0.3-4c-0.9-1-1.7-0.2-2.5,0.3c-0.9,0.6-1.8,1.2-2.5,2c-0.8,1.1-0.1,2.7-1,3.7C818.1,218.2,818.7,216.9,817.6,218.6
	z M708.1,272.6c-0.7-0.2-0.7-0.3-0.7-1c-0.1-0.5-0.1-1-0.2-1.6c-0.1-1.1-0.2-2.2-0.3-3.4c-0.1-1.2-0.6-4-2.5-3.3
	c-1.6,0.6-2.2,2.9-2.8,4.3c-0.7,1.9-1,3.8-0.9,5.8c0.1,2.1,0.3,4.2,0.1,6.4c-0.1,2.2,0.4,4.9,0.2,7.1c-0.2,2.2-1,3.9-1.2,6.1
	c-0.1,2.2-0.2,3.9,1.1,5.8c0.4,0.6,1,1.4,1.8,1.2c0.9-0.1,1.3-1.1,1.5-1.9c0.7-2.2,0.9-4.5,1-6.7c1.1,0.5,2.1,1.3,3.4,1.3
	c1.1,0,2-0.7,2.5-1.6c1.2-2.1,0.5-6.5,3.8-6.5c0.9,0,2,0.2,2.3-0.8c0.2-0.5,0.1-1,0.1-1.5c0-1,0-2.1,0-3.1c0-2,0-4-0.1-6
	c-0.1-1.5-0.1-3.5-1.2-4.7C713.9,266,709.6,271.1,708.1,272.6C707.9,272.5,708.8,272,708.1,272.6z M124.7,386.5
	c0,3.1,0.4,6.3,2.5,8.8c0.4,0.5,1,1.3,1.6,1.5c0.8,0.3,1.3-0.7,1.6-1.3c0.7-1.8,0.8-3.7,0.4-5.6c-0.4-2-1.1-3.7-0.9-5.8
	c0.2-1.9,0.9-3.6,0.8-5.6c-0.1-1.4-0.4-2.7-1.7-3.3c-0.9-0.4-2.2-0.4-3,0.3c-1.2,1.1-1.9,3.3-2,4.9c0,1.1,0.3,2.2,0.4,3.3
	C124.5,384.7,124.6,385.6,124.7,386.5C124.7,390.6,124.6,385.5,124.7,386.5z M332.9,367.9c-0.5,0-0.3-0.5-0.3-0.9
	c0-0.4,0-0.9-0.1-1.3c-0.1-0.5-0.2-1.1-0.6-1.5c-0.6-0.6-2.1-1-2.9-0.6c-0.9,0.5-0.7,1.8-0.7,2.6c0,1.8,0.1,3.5,0.2,5.3
	c0.1,1.3-0.2,3.3,0.6,4.4c0.4,0.6,1.6,1.6,2.3,1.3c1.4-0.6,1.4-2.7,1.4-3.9C333,371.4,332.9,369.6,332.9,367.9
	C332.9,367.9,332.9,370.2,332.9,367.9z M56.1,159.1c0-1.2-0.8-1.3-1.8-1.4c-1.3-0.1-1.9,0.2-2,1.6c-0.1,1.3,0.3,1.9,1.6,1.8
	C55.1,160.8,56.1,160.4,56.1,159.1C56.1,157.5,56,160.8,56.1,159.1z"/>
<polyline fill="#F7B5E8" points="761.8,225.6 762.3,228.3 765.7,240.2 767.8,248.9 769,258.2 769,264 768.8,276.5 "/>
<path fill="none" stroke="#F7B5E8" stroke-width="2" stroke-miterlimit="10" d="M87.4,329.1c-1,2.1-2.2,4.2-3.1,6.4
	c-0.9,2.1-1.5,4.3-2.2,6.4c-1.3,4.4-2.5,8.9-4,13.2c-1.5,4.4-3.5,8.7-5.5,12.9c-2,4.2-4,8.6-6.2,12.7c-0.9,1.7-2.6,3.9-1.3,5.9
	c0.9,1.4,3.8-0.4,4.9-0.8c4.5-1.7,9.1-3,13.5-4.7c4.4-1.7,8.5-3.7,13-5.1c2.3-0.7,4.6-1.3,6.8-2.2c2.2-0.9,4.4-1.8,6.5-2.9
	c4.3-2.1,8.6-4.2,12.9-6.3c1.9-1,3.7-2.2,5.6-3.2c1.5-0.7,3.2-0.9,4.1-2.6c1-1.9,1.4-4.2,2-6.2c0.7-2.3,1.4-4.6,2.2-6.9
	c1.5-4.6,3.6-8.9,5.6-13.2c2-4.4,4.1-8.7,6.3-13c0.5-1,1-2,1.4-3c0.5-1.1,0.9-2.3,1.6-3.3c1.1-1.6,2.8-1.2,4.4-0.9
	c4.7,0.8,9.5,1.3,14.3,1.8c2.4,0.2,4.9,0.4,7.3,0.7c1.2,0.1,2.4,0.2,3.5,0.3c0.7,0.1,1.4,0.2,1.9,0.8c0.5,0.6,0.5,1.5,0.6,2.2
	c0.1,1.2,0.2,2.5,0.2,3.7c0.2,2.4,0.3,4.8,0.5,7.2c0.2,2.4,0.4,4.8,0.7,7.1c0.2,2.2,0.3,4.4,0.8,6.6c0.5,2.2,1.6,4.2,2,6.3
	c0.5,2.4,0.8,4.7,1.2,7.1c0.4,2.4,0.8,4.8,1.2,7.2c0.1,0.7,0.3,1.4,0.9,1.9c0.7,0.6,1.8,0.8,2.7,1.2c2,1.1,4.1,2.1,6.2,3
	c2.2,0.9,4.4,1.6,6.6,2.5c1,0.4,1.6,0.5,1.6,1.6c0,1.1-0.5,2.2-0.7,3.2c-0.6,2.3-1.1,4.6-1.5,7c-0.8,4.8-1.3,9.6-2.2,14.3
	c-0.2,1-0.5,2-0.7,3.1c-0.1,0.6-0.4,2.1,0.3,2.6c0.6,0.3,1.7-0.4,2.1-0.7c1-0.7,2-1.3,3.1-1.9c4.1-2.3,8.2-4.6,12.4-6.6
	c4.1-2,8.3-3.8,12.5-5.6c1.7-0.7,3.3-1.5,4.8-2.6c0.7-0.6,1.4-1.2,2.1-1.9c0.3-0.3,0.6-0.9,1-1c0.5-0.1,1.5,0.4,1.9,0.5
	c1.8,0.5,4.2,1.5,5-0.9c0.3-0.8,0.3-1.7,0.5-2.6c0.2-0.8,0.6-1.6,1.1-2.4c0.9-1.4,2.2-2.2,3.7-3c2-1,1.9-2.9,2-4.8
	c0.2-4.9,0.5-9.8,0.7-14.7c0.2-4.8,0.3-9.7,0.5-14.5c0.2-4.8,1-9.4,1.5-14.2c0.4-4.8,0.7-9.5,1.3-14.3c0.3-2.3,0.2-4.6,0.6-6.9
	c0.2-1.1,0.2-2.6,0.4-3.7c0.1-0.5,0.2-2.8,0.9-3.5c0.3-0.4,1.2,0,1.6,0.2c0.8,0.4,2.1,2,2.4,2.8c0.4,1.1,1.2,2.8,1.6,3.9
	c0.8,2.3,1.1,5.2,1.6,7.5c1,4.9,2.1,9.3,3.1,13.8c0.9,4.3,1.6,8.4,3.3,12.4c0.9,2,2,3.9,3,5.9c1.1,1.9,1.8,4,2.6,6.1
	c0.6,1.5,1.2,3.8,3,4.3c0.9,0.2,1.8,0,2.7-0.1c1.2-0.2,2.4-0.3,3.6-0.5c0.9-0.1,2-0.4,2.6,0.5c0.3,0.5,0.4,1.1,0.6,1.6
	c0.4,1.1,0.8,2.2,1.1,3.4c0.6,2.2,1.6,3.6,2.3,5.9c0.3,1.1,0.6,2.1,0.9,3.1c0.3,1.1,0.3,1.5,0.9,2.5c1.4-4,1.5-6.9,2.9-10.9
	c0.3-0.9,1-2.4,1.3-3.3c0.1-0.4,1.2-0.9,1.6-1c0.7-0.2,2.6,0.9,2.6,1.3c0.2,1.9,0,3.5,0.3,5.4c0.3,2,0.3,3.5,0.6,5.5
	c0.3,2.2-0.4,4.8-0.3,6.8c0.1,3.4,0.8,6.8,2.9,9.7c0.3,0.5,0.9,1.4,1.6,1.2c0.7-0.2,1.1-1.9,1.4-2.5c0.8-2-0.3-5.9-0.7-8
	c-0.5-3-0.3-6.5-0.7-10.6c-0.5-4.2-0.3-9,0.2-13.2c0.2-1.3,1.3-3.3,2.9-3.6c0.8-0.2,1.5,0.6,2.3,1.1c0.6,0.3,1.3,0.6,2,0.5
	c0.8-0.2,1-1.1,1.3-1.8c0.4-1.1,0.8-2.1,1.1-3.2c0.4-1.1,0.7-2.2,0.9-3.3c0.1-0.4,0.1-1.4,0.4-1.7c0.4-0.5,0.6,0.1,0.8,0.5
	c0.4,1.3,0.6,3.6,2.5,2.7c1.9-1,2.8-5.2,4-7c0.7,0,1.3,3.1,1.3,4c0,0.5,0.5,2.6,0.5,3.1c0.2,1.4,0,2.8,0.9,3.9
	c1.2,1.4,2.2-0.8,2.2-1.6c0.1-2,0.2-3.8,0.1-5.8c-0.2-3.9-0.8-7.7-1.7-11.5c-0.9-3.7-1.8-7.2-1.2-11c0.6-3.7,2.4-7.4,3.9-10.8
	c0.9-2,1.1-4.3,1.9-6.3c0.8-1.9,4.1-11.7,4.9-10.1c0.9,2,1.5,8.3,1.7,10.4c0.2,2.4,0.5,4.9,0.7,7.3c0.4,4.7,1.1,8.6,1.7,13.3
	c0.6,4.8,1.6,7.8,1.9,12.6c0.1,1.2,1.2,9.4,1.3,10.2c0.2,1.8-0.1,16.3-0.1,18.7c0.1,4.6-0.1,7.7,0.5,12.2c0.3,1.8,0,3.4,0.7,5.2
	c0.6,1.4,1.9,2.3,2.3,2.4c0.1,0,0.8,0.3,0.8,0.9c-0.1,2.2-1,4.5-1.5,6.7c-0.6,2.4-1.1,4.7-1.7,7.1c-0.6,2.5-1.3,5.1-1.5,7.7
	c-0.1,1.2-0.1,2.5-0.1,3.7c0.1,0.7,0.2,1.5,0.8,2c0.6,0.4,1.4,0.3,2.1,0.1c1.2-0.3,2.3-0.7,3.4-1.2c2.2-0.9,4.2-2.1,6.2-3.4
	c0.1,1.4,0.1,2.9,0.3,4.3c0.1,0.9,0.2,2.5,1.2,2.8c1.1,0.4,2.3-0.6,3.1-1.3c1-0.8,2-1.7,2.8-2.7c0.9-1,1.5-2.1,2.1-3.3
	c0.7-1.3,1.3-1.1,2.5-0.5c2.7,1.3,4.7-1.1,6.6-2.6c-0.5,3.8-1.2,7.5-1.6,11.3c-0.2,1.6-0.7,3.5,0.1,4.9c0.6,1.1,1.8,1.8,3,1.9
	c1.3,0.1,2.3-0.7,2.9-1.9c0.9-1.7,1.3-3.8,1.9-5.6c1.1-3.8,2-7.6,3-11.5c0.7,0.9,1.3,1.8,2,2.7c0.3,0.4,0.4,0.8,0.8,0.7
	c0.5-0.1,0.5-1.3,0.6-1.8c0.2-0.8,0.5-2,1.2-2.6c0.7-0.6,1.6,0.2,2.2,0.6c0.6,0.4,1.3,0.9,2.1,0.7c0.9-0.2,1.6-1.2,2-1.9
	c1.4-2,2.2-4.2,3.2-6.4c0.4-0.8,0.7-1.8,1.4-2.4c0.8-0.7,1.5-0.3,2.4-0.1c0.7,0.2,1.9,0.6,2.6,0.3c0.8-0.3,1.1-1.4,1.3-2.1
	c1.6-4.7,3.4-9.4,4.7-14.2c1.3-4.6,2.2-9.3,3.8-13.8c0.8-2.4,1.9-4.6,2.9-6.9c0.9-2.2,1.8-4.5,2.8-6.7c1.1-2.3,2.3-4.6,3.6-6.9
	c0.6-1,1.1-2,1.7-3c0.6-1.1,1.2-1.6,2.5-1.6c1.2,0.1,2.3,0.3,3.5,0.3c1.3,0,2.6,0,3.9-0.1c2.6-0.1,5.2,0,7.8,0
	c2.5,0.1,4.9,0.1,7.4,0.1c1.3,0,2.6,0,3.9-0.1c1,0,4.5,0.4,5.4,0.9c1.4,1,1.3,3.5,1.7,5c0.7,2.4,0.9,4.7,1.5,7.1
	c1.1,4.9,1.6,8.9,2.9,13.7c1.3,4.9,2.3,10.2,3.2,15.2c0.5,2.5,1.2,5.1,1.7,7.7c0.5,2.4,1.1,5,1.6,7.4c0.5,2.4,0.3,4.1,0.8,6.5
	c0.2,1,1.4,4.4,1.8,4.2c0.3-0.1,3.2-5.4,3.6-6.4c0.4-1.1,0.8-2.2,1-3.3c0.2-1.1,0.2-2.3,0.6-3.4c0.3-0.8,0.8-2.2,1.4-2.8
	c0.2-0.2,0.1-0.4,0.5-0.2c0.2,0.1,0.2,0.3,0.2,0.6c0,0.6-0.2,1.3-0.2,2c-0.3,2.5-0.7,5-1.2,7.4c-1,4.9-1.7,9.9-1.6,15
	c0,1.6,0.2,2.7,1.9,3.1c2.3,0.5,4.4-0.4,6.6-1.1c4.9-1.5,9.7-3.1,14.5-4.9c0.3-0.1,1.4-0.7,1.7-0.6c0.2,0.1,0.6,0.9,0.7,1.1
	c0.6,0.9,1.2,1.7,2.2,2c0.8,0.3,1.6,0.6,2.1-0.3c0.6-1,0.6-2.2,0.8-3.2c0.3-2.2,0.7-4.3,1.1-6.5c1.9,1.6,5,5,7.5,2.6
	c0.9-0.9,1.2-2.3,1.2-3.5c0-1.8,0.3-3.6,0.5-5.5c0.9,0.4,1,1.1,1.3,2c0.4,1.1,0.8,2.2,1.2,3.4c0.7,2,1.6,3.9,2.6,5.7
	c0.8,1.4,1.8,4,3.7,3.9c1.5-0.1,1.1-3.3,1.2-4.2c0-1.1,0-2.2,0-3.3c0-0.9-0.4-2.4,0-3.3c0.2-0.5,0.7-0.7,1.1-1
	c0.6-0.5,0.8-0.4,1.6-0.4c0.8,0,1.4-0.6,2.1-1c0.8-0.4,1.6-0.5,2.4-0.8c1.6-0.5,2.3-2.6,2.9-4c0.8-2,1.2-4,1.5-6.1
	c0.2-2.2,0.6-4.3,0.9-6.5c0.6-4.5,1.3-9,2-13.6c1.4-9.1,3.6-18,5.5-27c2.2-10.1,4.1-20.3,6.7-30.3c1.3,1.1,0.9,3,1,4.5
	c0.1,1.8,0.2,3.7,0.2,5.5c0.1,3.6,0.4,7.2,0.1,10.8c-0.3,3.6-0.5,7.1-0.6,10.7c-0.1,1.8-0.2,3.6-0.2,5.4c0,1.5,0.4,2.8,0.6,4.2
	c0.6-0.6,1.2-1.1,1.8-1.7c0.4,4.6,0.9,9.2,1.1,13.9c0.3,4.7,0.2,9.5,0,14.2c-0.1,2.3-0.3,4.6,0,7c0.3,2.3,0.8,4.5,1.3,6.8
	c0.3,1.3,0.5,3.7,2.4,3.2c2.1-0.6,2.9-3,3.8-4.7c0.5-1,0.9-2,1.4-3c0.5-0.9,0.8-2.1,1.5-2.9c0.6-0.7,0.9-0.7,1.8-0.5
	c1,0.2,2.1,0.3,3.1,0.1c0.8-0.2,1.6-0.5,2.4-0.9c0.8-0.5,1.6-1.3,2.4-1.6c1.8-0.7,2.5,2.9,2.7,4c0.5,2.2,0.9,4.5,1.3,6.8
	c0.2,1,1.3,4.6,3,3.1c0.7-0.6,1.2-1.9,1.6-2.7c0.6-1,1.1-2,1.6-3c1-2,1.5-4,2-6.1c0.5-2,1.2-4,2.4-5.7c1-1.5,2.5-2.5,3.8-3.7
	c1.2-1.2,2.3-2.5,2.9-4.1c0.4-1,0.3-3.4,1.9-2.7c1.4,0.7,2.5,2,4.2,1.3c0.8-0.3,1.4-1,2-1.6c0.1-0.1,0.3-0.3,0.5-0.4
	c0.5-0.3,0.1-0.2,0.5,0c0.4,0.2,0.7,0.8,1.1,1.1c1.2,1,2.9,1.4,4.3,0.7c1.6-0.7,2.1-2.6,4-2.7c1.4-0.1,2.9,0.8,4.3,0.1
	c1.4-0.8,1.5-3.1,1.7-4.5c0.9-4.6,0.5-9.2,1-13.8c0.9-9.3,3.1-18.5,4.8-27.8c1.7-9.2,2.7-18.5,4.3-27.8c0.8-4.7,0.9-9.5,1.6-14.2
	c0.7-4.7,1.3-9.4,1.9-14.1c0.6-4.8,1.2-9.5,1.7-14.3c0.6-4.8,0.9-9.6,1.5-14.4c0.6-4.7,1.4-9.3,2-14c0.6-4.7,1.1-9.4,1.5-14.1
	c0.5-4.8,1-9.6,1.5-14.4c0.2-2.4,0.5-4.7,0.7-7.1c0.1-1,0-2.2,0.5-3c0.5-1,1.6-1.9,2.4-2.8c1.6-1.7,3.1-3.3,4.7-5
	c0.7-0.8,1.5-1.6,2.2-2.3c0.3-0.3,0.8-1,1.3-0.6c0.3,0.2,0.4,1.4,0.5,1.8c0.6,2.2,0.7,4.4,0.9,6.6c0.1,1.4,0,3.7,1.5,4.4
	c1.5,0.7,3.3-0.9,4.2-2c1.4-1.5,2.1-3.4,2.8-5.3c1.6-3.8,3.3-7.7,5.9-10.9c1-1.2,2.5-2.4,4.1-1.6c1.3,0.7,1.7,2.3,2.9,3.2
	c2.2,1.5,5.4,1.8,7.9,1c1.6-0.5,2.8-1.8,3.8-3c1.4-1.5,2.8-3,4.4-4.4c2.4-2.2,5-2.7,8.1-2c2.8,0.7,5.5,2.3,6.9,4.9
	c1.1,2,2,4.1,2.7,6.4c0.6,2.2,1.2,4.4,1.8,6.7c1,3.8,1.3,8.2,3.6,11.5c2.1,3,5.3,4.4,8,6.7c7.1,6,7.4,16.1,8.5,24.6
	c0.6,4.3,1.3,8.6,2,12.9c0.5-0.6,1.2-1.1,1.7-1.7c0.5-0.7,0.7-1.5,1-2.3c0.5-1.8,1-3.6,1.5-5.4c1.1-3.7,2.2-7.5,3.6-11.1
	c0.4-1.1,1.2-2.8,2.6-1.8c1.3,0.9,1.8,3.2,2.1,4.6c0.6,3.8,1.4,7.5,2.4,11.2c2.1,7.4,5.1,14.7,5.6,22.4c0.3,3.9,1.2,7.6,1.4,11.5
	c0.2,3.7-0.2,7.5-0.5,11.2c-0.2,1.7-0.4,3.3-1,4.9c-0.3,0.8-0.8,1.5-1.2,2.2c-0.3,0.7-0.4,1.5-0.5,2.3c0,0.3,0,0.8-0.2,1
	c-0.1,0.1-0.3,0.2-0.4,0.3c-0.4,0.6-0.4,2.1-0.5,2.9c-0.2,2-0.2,4.1-0.2,6.1c0,2,0,4.1,0,6.1c0,1.9,0.6,3.4,1.2,5.2
	c1.2,3.7,2.5,7.3,2.3,11.2c-0.1,3.9-1.4,7.6-2.7,11.2c-1.3,3.7-2.7,7.4-3.9,11.2c-1.1,3.6-2.2,7.2-2.4,10.9c-0.1,2,0.1,4,0.3,6
	c0.1,2.1,0.2,4.1,0.3,6.2c0.1,1.9,0.4,3.9,0.1,5.8c-0.1,0.4-0.1,0.8-0.2,1.2c-0.1,0.4-0.1,0.7-0.7,0.6c-0.5-0.1-0.2,0.1-0.4-0.3
	c-0.1-0.2-0.2-0.5-0.3-0.6c-0.2-0.4-0.4-0.9-0.6-1.3c-1.6-3.5-1.4-7.4-2.2-11.1c-0.3-1.2-0.7-3.1-1.9-3.8c-1.3-0.7-2.7,0.5-3.7,1.2
	c-1.4,1-2.6,2.1-3.3,3.7c-0.7,1.6-1.3,3.1-2.4,4.6c-0.3,0.4-1,1.7-1.4,1.4c-0.4-0.3,0.4-2,0.6-2.4c-4.3,5.5-3.2,12.6-2.7,19
	c0.3,3.6,0.4,7.1,0.5,10.7c0.1,1.8,0.2,3.7,0.5,5.5c0.3,1.7,0.9,3.3,1,5c0.1,1.9,0.2,3.9,0.2,5.8c0,1.9-0.1,3.8-0.4,5.7
	c-2.5-1.2-2.2-4.2-2.5-6.6c-0.2-1.5-0.5-2.9-0.7-4.4c-0.2-1.4,0.2-2.9,0.1-4.3c0-1.5-0.3-3-0.6-4.5c-0.3-1.2-0.6-2.6-1.5-3.5
	c-0.8-0.8-1.5-1.5-1.8-2.6c-0.4-1.2-0.4-2.5-0.5-3.7c-0.2-2.5-0.5-5.1-2.2-7.1c-0.8-0.9-1.9-1.6-3.1-0.9c-1.2,0.8-2.3,2.2-3.2,3.3
	c-1.5,1.9-2.6,3.9-4.7,5.2c-2.1,1.4-4.4,1.6-6.8,1.8c-3.1,0.2-6.4,0.5-9.4,1.2c-2.7,0.6-4.7,1.9-6.2,4.1c-0.7,1-1.3,2.2-2.4,2.8
	c-1,0.6-2.7,0.3-3.7,0c-2.8-0.6-4.8-2.7-6.9-4.4c-2.9-2.3-10.2-8-13.1-2.8c-1.3,2.3-2.1,4.9-3.4,7.1c-1.3,2-3,2.6-5.2,2.7
	c-1.3,0-2.7,0-3.9,0.7c-0.5,0.3-0.9,0.7-1.3,1.1c-0.4,0.5-0.5,1.1-0.9,1.6c-0.2,0.2-0.5,0.3-0.6,0.5c-0.3,0.3-0.3,0.5-0.4,0.9
	c-0.2,0.8-0.4,1.7-0.6,2.5c-0.4,1.7-0.7,3.4-1,5.1c-1.2,6.8-1.9,13.7-2,20.7c-4.9-5.4-5.2-12.4-5.2-19.3c0-2.7,0.3-6.3-1.4-8.6
	c-0.7-0.9-1.7-1.4-2.8-1.7c-0.7-0.2-1.3-0.3-2-0.6c-0.7-0.4-1.4-0.9-2.3-1c-1.7-0.3-2.9,1.1-4.1,2.1c-1.1,0.9-2.1,1.7-3.1,2.7
	c-0.8,0.7-2.1,1.8-3.2,1.6c-0.8-0.2-0.8-1.5-0.9-2.2c-0.1-1-0.2-2-0.3-3c-0.1-1.9,0-3.9,0.4-5.8c0.3-1.8,0.8-3.6,0.8-5.5
	c0-2-0.6-3.5-1.3-5.3c-0.7-1.8-0.1-3.5,0.4-5.2c0.5-1.9,0.8-3.8,1.1-5.7c0.1-0.4,0.1-0.7,0.1-1.1c0-0.2,0.7-1.8-0.1-2.1
	c-0.8-0.3-1.4,2.5-1.5,2.9c-0.5,1.8-0.9,3.7-1.2,5.5c-0.3,1.8-0.7,3.6-0.5,5.5c0.2,1.9,0.8,3.7,0.9,5.5c0.1,2-0.4,3.8-0.7,5.8
	c-0.3,1.9-0.5,3.9-0.4,5.9c0.1,1.7,0.2,3.9,0.9,5.5c0.7,1.5,2.3,1.5,3.7,1.2c1.6-0.3,3.1-1.7,4.3-2.8c0.9-0.9,1.8-2.2,3-2.9
	c1-0.5,2.2,0,3.2,0.4c1.5,0.5,3,0.7,4,1.9c1,1.1,1.2,2.6,1.3,4.1c0.1,1.7-0.3,3.5-0.3,5.3c0,1.8,0.1,3.5,0.3,5.2
	c0.5,3.5,1.6,6.8,3.2,10c0.8,1.6,1.8,3,2.3,4.6c0.2,0.7,0.4,1.7,0.9,2.2c0.2,0.2,0.5,0.4,0.7,0.5c0,0,0.4,0.3,0.4,0.3
	c0.1,0,0.4-0.5,0.4-0.6c1-1.4,0.8-3.5,0.9-5.2c0.1-2,0.2-4,0.3-6c0.2-4,0.6-8,1.2-12c0.3-1.9,0.6-3.9,1.2-5.7
	c0.5-1.7,0.9-3.7,1.8-5.2c0.6-1.1,1.8-1.5,3-1.7c1.4-0.2,2.7-0.3,4.1-0.7c2.8-1,4.4-3,5.5-5.7c0.8-2.1,2-6.5,5.1-5.8
	c1.6,0.4,3.1,1.5,4.4,2.4c1.6,1,3.1,2.2,4.6,3.3c2.4,1.9,4.8,4.4,8.1,4.3c1.3-0.1,2.6-0.5,3.6-1.3c1.2-0.9,1.7-2.1,2.5-3.4
	c1-1.6,2.6-2,4.3-2.2c1.9-0.1,3.6-0.5,5.5-1c1.9-0.4,3.8-0.4,5.6-0.7c1.9-0.3,3.7-0.8,5.6-1.3c0.8-0.2,1.6-0.5,2.5-0.8
	c0.8-0.3,1.7-0.4,2.2-1.2c0.9-1.4,1.1-3.5,1.7-5.2c0.5-1.3,1.5-2.1,2.9-1.6c1.3,0.5,1.6,1.8,1.7,3c0.2,1.9,0.2,3.9,0.7,5.8
	c0.5,1.8,1.3,3.6,2.1,5.3c0.9,1.7,1.4,3.3,1.4,5.3c0,2,0,4,0.3,6c0.2,1.9,0.5,3.9,0.8,5.8c0.2,1.6,0.2,3.7,1.3,5
	c0.8,1,2.2,1.4,3.4,0.8c1.2-0.5,1.4-1.8,1.4-2.9c0.1-2,0-4.1,0-6.1c0-1.9,0.2-4.1-0.1-6c-0.3-1.8-0.8-3.5-1-5.3
	c-0.2-2-0.2-4.1-0.2-6.1c0-2-0.1-4-0.1-6c0-1.5-0.3-3.2-0.2-4.7c0.1-1.3,1.6-1.6,2.6-2c0.7-0.2,1.6-0.6,2.3-0.3
	c1,0.5,1.3,1.7,2.1,2.4c0.9,0.9,3,1.6,3.9,0.5c1.1-1.3,1.1-3.1,1.3-4.7c0.2-1.5,0.6-3,0.9-4.5c0.8,0.8,1.6,2.2,2.7,2.6
	c1.4,0.6,2.5-0.5,2.9-1.7c1.3-3.4,1.2-7.2,0.8-10.8c-0.3-3.5-0.9-7-0.8-10.6c0.1-3.6,1.3-7.1,2.3-10.5c0.5-1.7,1-3.4,1.6-5.1
	c0.6-1.6,1.4-3.1,2.1-4.7c1.4-3.2,2.1-6.6,2.4-10.1c0.1-1.6,0.3-3.3,0.1-5c-0.2-1.7-1-3.2-1.4-4.9c-1-3.5-0.9-7-1-10.6
	c-0.1-3.8-0.2-7.5,0.5-11.2c0.7-3.6,1.9-7.2,2.4-10.8c1.2-7.3,0.8-14.7-0.1-22c-0.9-7.3-3.3-14.1-5.3-21.1c-0.5-1.7-1.2-3.5-1.4-5.2
	c-0.2-1.7,0.6-3.4,1.3-4.9c1.4-3.4,2.5-6.8,3.5-10.3c0.9-3.4,1.9-6.6,3.4-9.7c1.5-3.2,3.2-6.2,4.6-9.4c3-6.8,5.9-13.7,9-20.4
	c0.4-0.8,0.7-1.6,1.1-2.4c0.3-0.5,0.8-1,1.1-1.5c-0.3,6.3-0.6,12.6-0.9,18.9c-0.1,3-0.2,6.1-0.2,9.1c-0.1,3.3-0.3,6.5-0.6,9.7
	c-0.5,6.4-0.3,12.9,0,19.3c0.1,3.2,0.3,6.3,0.6,9.5c0.1,1.5,0.4,2.9,0.9,4.3c0.4,1.2,0.8,2.9,1.9,3.6c0.8,0.5,1.8,1,2.7,0.3
	c1.1-0.8,1.2-2.6,1.4-3.8c0.5-3-0.1-6.1-0.4-9.1c-0.6-6.4-0.2-12.8,0.2-19.2c0.4-6.5,0.8-13,1.5-19.4c0.3-3.2,1-6.5,1.7-9.6
	c0.2-1,0.7-2,1.6-2.6c1-0.6,1.9-0.3,3-0.4c2.6-0.3,3.9-3.3,5.3-5.1c0.7-1,1.8-2.8,3.1-3c1.3-0.2,2.3,1.2,3.5,1.5
	c1.4,0.3,2.8-0.1,3.8-1.1c1.3-1.2,2.5-2.5,3.7-3.8c2.3-2.6,4.6-5.2,7.2-7.5c0.5,1.4,1,2.6,1.1,4.1c0.2,1.5,0.3,3.1,0.4,4.6
	c0.3,2.7,0.6,5.5,1.8,8c1.1,2.2,2.7,3.6,4.8,4.9c0.9,0.6,1.7,1.2,2.1,2.1c0.2,0.5,0.3,1.1,0.5,1.5c0.3,0.5,0.9,0.8,1.3,1.2
	c0.3-0.6,0.7-1.1,1-1.8c0.2-0.7,0.4-1.5,0.5-2.2c0.3-1.5,0.6-3,1.1-4.4c0.8-2.4,2.7-4,4.6-5.5c0.3,1.2,0.6,2.4,0.9,3.7
	c0.3,1.2,0.7,2.5,1.6,3.3c0.7,0.6,1.6,0.9,2.6,0.9c1,0,1.9-0.5,2.9-0.4c2.1,0.2,1.3,3.3,1.2,4.6c-0.3,2.9-0.6,5.7,0.3,8.5
	c0.9,2.6,1.8,5.4,3.2,7.8c0.3,0.5,0.6,0.9,0.7,1.5c0.1,0.6-0.2,1.1,0,1.6c0.3,1.2,1.4,2,1.6,3.2c0.5,2.7,0.2,5.5,1.3,8.1
	c0.9,2.2,3,2.3,4.3,0.4c0.8-1.1,0.9-2.4,1.2-3.6c0.3-1.5,0.7-3,0.8-4.6c0.3-2.9-0.3-6.1-0.1-9.1c0-0.6,0.6-1.2,0.8-1.8
	c0.1-0.2,0.2-12,0.5-11.8c0.1,0.1,0.9,7,1,11.3c0,1.5,0.3,3.7,0.6,5.2c0.5,3,0.4,6.4,0.9,9.3c1,6,2.1,12,3.6,17.9
	c1.5,6,2.5,12.1,3.5,18.2c2.1,12,4.2,24.1,6.5,36c1.2,6.1,2.4,12.1,3.7,18.1c1.3,5.9,3.1,11.8,4.6,17.7c1.6,6,3.1,12,4.6,18
	c0.7,2.9,1.5,5.7,2.1,8.6c0.6,2.8,1.1,5.6,2,8.3c0.4,1.2,1.3,2.4,1.1,3.7c-0.2,1.1-0.6,2.9-1.5,3.7c-0.6,0.5-1.7,1.3-2.4,0.1
	c-0.7-1.2-0.4-2.8-0.6-4c-0.3-1.8-1.9-3-3.7-2.1c-2,1-1.2,4.6-1,6.3c0.4,2.6,1.5,5.1,0.9,7.9c-0.3,1.3-1,2.4-1.7,3.6
	c-0.7,1.2-1.3,2.4-1.7,3.7c-2,5.3-1.2,10.9-1.4,16.4c-0.1,1.5-0.1,2.7-0.7,4.1c-0.3,0.6-0.4,0.8-0.9,0.3c-0.6-0.6-0.7-1.4-0.8-2.1
	c-0.4-2.9-1.1-5.7-1-8.7c0.1-2.5-0.2-4.7-1.6-6.8c-0.5-0.7-1.1-1.9-2-2.1c-1.1-0.3-2.3,1.2-3,1.9c-2,1.8-3.6,4-5.4,6.1
	c-0.2-0.7-0.5-1.3-0.5-2c-0.1-1.1-0.1-2.1-0.1-3.2c-0.1-2-0.2-4-0.2-5.9c0-2.5,0.8-6-1.2-7.9c-1.9-1.9-5.8-3-8.4-2.5
	c-1.3,0.2-2.3,0.9-3,2.1c-0.4,0.7-0.7,1.2-1.3,1.8c-0.7,0.6-1.5,1.1-2.1,1.6c-0.3-1-0.6-2-0.9-3c-0.2-0.8-0.4-1.6-1.1-2.1
	c-0.6-0.4-1.6-0.5-2.2-0.2c-0.6,0.3-0.5,1-0.5,1.6c-0.2,2.2-1.6,4.1-1.9,6.3c-0.3,1.9-0.3,3.8-1.8,5.2c-0.2-0.5-0.5-1-0.5-1.6
	c-0.1-0.7-0.1-1.5-0.2-2.2c-0.1-1.6-0.2-3.2-0.4-4.7c-0.2-3-0.4-6.1-0.7-9.1c-0.5-5.7-0.8-11.7-2.7-17.2c-0.9-2.6-2.3-5.1-3.1-7.8
	c-0.9-2.7-1.6-5.5-2.3-8.3c-1.4-5.8-2.8-11.7-4.1-17.5c-0.7-3.1-1.3-6.3-2.1-9.5c-0.2-0.6-0.3-1.2-0.3-1.9c0-0.3,0.1-0.6,0.1-1
	c0.1-0.3,0.5-0.7,0.5-1.1c0-0.4-0.6-1.1-0.9-1.4c-0.5-0.6-0.9-1.2-1.4-1.9c-0.6,0.5-1.2,1.2-2,1.3c-0.9,0.1-2-0.3-2.8-0.5
	c-2-0.4-4-0.6-6.1-0.6c-4-0.1-8-0.6-12-1c-2.1-0.2-4.2-0.4-6.3-0.4c-1.5-0.1-3.1-0.6-4.2,0.6c-2.4,2.6-3,6.4-4.2,9.7
	c-1.3,3.8-3.2,7.5-4.8,11.2c-1.6,3.7-3,7.4-4.4,11.1c-2.8,7.7-5.9,15.4-7.9,23.4c-0.5,1.8-0.6,3.9-1.6,5.4c-0.8,1.1-2,1.8-3.3,2.2
	c-1.9,0.6-4,0.9-5.9,1.4c-1,0.3-2.1,0.6-3.1,0.9c-0.4,0.1-0.9,0.2-1.2,0.5c-0.2,0.3-0.3,0.7-0.5,1c0.6,0.2,1,0.5,1.7,0.3
	c0.7-0.3,1.2-0.6,2-0.8c1.7-0.4,3.4-0.8,5.2-1.1c2.4-0.5,5-1,6.6-3.1c1.7-2.2,1.7-5.5,2.4-8.1c0.9-3.4,2.2-6.8,3.4-10.1
	c2.4-6.6,4.8-13.2,7.6-19.7c0.7-1.6,1.4-3.2,2-4.7c0.7-1.5,1.5-2.9,2.2-4.4c1.4-3.3,2.7-6.7,4.1-10c0.4-1.1,0.8-2.4,2-2.9
	c1.3-0.5,3-0.2,4.3-0.1c3.5,0.1,7,0.2,10.5,0.4c3.6,0.2,7.3,0.4,10.9,0.7c1.7,0.1,4.3-0.1,5,1.8c0.5,1.2,0.6,2.5,0.9,3.7
	c0.4,1.7,0.7,3.4,1.1,5.1c0.7,3.4,1.5,6.8,2.3,10.2c1.5,6.8,3,13.7,5.2,20.3c1.1,3.2,2.2,6.4,3.3,9.6c1.1,3.2,1.4,6.6,1.6,9.9
	c0.6,7,1.2,14,2.3,21c0.1,0.8,0.2,1.7,0.4,2.5c0.1,0.8,0.5,1.3,0.9,1.9c0.4-0.3,0.9-0.5,1.3-0.9c0.4-0.4,0.6-1,0.9-1.5
	c0.6-1.1,1.2-2.2,1.7-3.4c0.5-1.2,0.9-2.4,1.1-3.6c0.2-1.4,0.5-2.6,0.9-4c1.1,1.1,1.1,3.5,3,3.7c1.7,0.2,3.4-1.9,4.3-3
	c1.2-1.5,2.3-3.3,4.5-2.7c0.9,0.2,1.6,0.8,2.5,1.1c0.6,0.2,1.2,0.4,1.8,0.8c1,0.6,1.2,1.5,1.2,2.5c0,2.1-0.2,4.3-0.2,6.4
	c0,2.4,0.2,4.9,0.5,7.3c0.1,1.1,0.1,4,1.9,3.6c0.8-0.2,1.6-0.9,2.2-1.3c0.9-0.7,1.5-1.9,2.2-2.8c1-1.3,2.7-3.4,3.9-3.6
	c0.5-0.1,1,1.8,1.2,2.3c0.4,1.2,0.5,2.6,0.7,3.6c0.3,2.3,0.4,4.6,0.6,6.9c0.2,2.3,0.3,4.6,1.6,6.5c0.5,0.7,1,1.4,1.9,1.3
	c0.9-0.1,1.5-0.9,2-1.6c2.2-3.8,1.2-8.8,1.2-13c0-2.3,0.2-4.6,0.8-6.8c0.7-2.4,1.9-4.2,3.1-6.3c1.3-2.2,0.7-5.1,0.5-7.5
	c-0.1-1.2-0.2-2.4-0.4-3.5c-0.2-1.2-0.2-2.4,0.5-3.5c0.6,1.6,0.6,3.3,1.7,4.7c0.9,1.1,2.5,1.3,3.6,0.3c0.6-0.5,0.9-1.3,1.5-1.8
	c0.6-0.6,1.3-0.8,1.9-1.3c1.3-1.1,0.7-2.5,0.1-3.8c-1.7-3.4-2.3-7.3-3.1-11c-0.9-3.9-1.7-7.8-2.5-11.8c-1.7-7.8-4-15.4-6-23.1
	c-2-7.7-3.7-15.6-5.4-23.4c-0.9-3.9-1.5-7.8-2.1-11.7c-0.7-4.1-1.4-8.1-2.1-12.2c-0.6-3.9-1.5-7.7-2.2-11.6c-0.7-4-1.4-8-2.2-12
	c-0.7-3.9-1.9-7.6-2.8-11.5c-0.9-3.9-1.5-7.9-2.2-11.9c-1.4-7.9-3.4-15.6-3.7-23.6c-0.1-2-0.1-4,0-6c0-1.1,0.2-2.9-0.8-3.7
	c-1.1-0.8-1.8,0.8-2.1,1.6c-0.3,0.8-0.2,1.5-0.3,2.3c-0.1,1.1-0.2,2.1-0.4,3.2c-0.2,1.9-0.7,3.8-0.9,5.8c-0.2,1.9,0.2,3.8,0.2,5.7
	c0,3.6-0.5,7.4-1.3,10.9c-0.3,1.5-1.7,6.3-2.2,3.7c-0.3-2.6-0.6-5.2-0.9-7.8c-0.1-1.3-0.3-2.6-0.5-3.9c-0.2-1.4-0.7-2.1-1.5-3.3
	c-3.1-4-4.1-9.4-3.8-14.4c0.1-2,1.1-4.5-0.1-6.4c-0.9-1.4-2.5-1.9-4.1-1.7c-0.9,0.1-1.8,0.6-2.6,0.3c-1-0.3-1.2-1.5-1.4-2.4
	c-0.4-1.8-0.5-4.6-2.6-5.4c-1-0.4-1.5,0.5-2.2,1.1c-0.8,0.8-1.7,1.5-2.5,2.3c-1.8,2-2.5,4.9-3.4,7.4c-1.1-0.5-2.2-1-3.3-1.6
	c-1.2-0.7-1.7-1.6-2.4-2.8c-1.1-2.2-1.9-4.4-2.3-6.8c-0.4-2.6-0.1-5.3-0.2-8c-0.1-2-0.6-3.5-2.4-4.6c-0.4-0.2-1-0.7-1.4-0.5
	c-0.5,0.2-1,1.1-1.4,1.5c-0.9,1-1.9,2-2.8,3.1c-1.7,2-3.4,4.1-5.1,6.1c-1.1,1.3-2.8,3.5-4.8,2.6c-1-0.5-2-1.3-3-1.9
	c-0.2-0.1-0.4-0.3-0.6-0.4c-0.4-0.1-0.3-0.1-0.7,0.2c-0.5,0.4-1,0.8-1.6,1.2c-1.9,1.4-3.1,3.8-4.3,5.8c-0.5,0.7-1,1.4-1.8,1.8
	c-0.9,0.4-1.9,0.3-2.9,0.5c-2,0.6-3.4,2.2-3.8,4.2c-0.5,2.8-0.9,5.5-1.3,8.3c-0.8,5.5-1.2,11.1-1.6,16.6c-0.4,5.6-1.2,11.3-0.9,16.9
	c0.2,2.8,0.4,5.5,0.6,8.3c0.2,2.6,0.7,5.4,0.1,8c-0.1,0.5-0.1,1.4-0.7,1.4c-0.5,0.1-0.8-0.6-1.1-1c-0.6-1.1-0.8-2.8-1-4.1
	c-0.5-2.7-0.3-5.6-0.4-8.4c-0.3-11.3-0.2-22.5,0.3-33.8c0.2-5.5,0.4-11.1,0.7-16.6c0.2-2.7,0.4-5.5,0.4-8.2c0-0.9-0.1-1.8-0.6-2.6
	c-0.2-0.3-0.8-1.1-1.1-1.1c-0.3,0-1.4,1.2-1.6,1.4c-1.8,1.6-2.8,3.3-3.6,5.4c-0.8,2.1-1.8,4-2.8,6.1c-1.1,2.3-1.8,4.7-2.6,7.2
	c-0.8,2.4-1.7,4.7-2.7,7c-2,4.8-4.9,9.1-6.5,14c-1.6,5-3.1,10.1-4.7,15.2c-0.1,0.4-0.3,1.6-1,1c-0.3-0.2-0.4-1.2-0.5-1.6
	c-0.4-1.4-0.7-2.8-1.1-4.2c-0.4-1.3-0.7-2.6-1.1-3.9c-0.3-1-0.7-1.8-1.7-2.2c-2-0.8-3.7,0-4.3,2c-0.8,2.6-1.6,5.3-2.3,7.9
	c-0.7,2.6-2.3,7.5-3.2,10c-0.6-2-1-5.3-1.1-7.5c0-0.9-0.1-3.4-0.4-4.2c-0.5-1.9-0.7-2.2-0.9-3.1c-0.7-3.8,0.1-6.9-1.6-10.4
	c-1.5-3.2-3.3-6.2-5.9-8.6c-1.2-1.1-2.6-2.1-4.1-2.9c-1.4-0.7-2.8-1.5-3.8-2.8c-1.2-1.5-1.6-3.4-2.1-5.2c-0.5-2.1-1.1-4.1-1.6-6.2
	c-0.9-3.7-1.7-7.5-3.2-11c-1.2-2.9-3.1-5.9-5.8-7.6c-2.3-1.4-5.1-2.1-7.8-1.9c-1.4,0.1-2.8,0.5-3.9,1.3c-1.3,0.9-2.3,2.2-3.5,3.2
	c-1.4,1.2-3,2.2-4.4,3.4c-1.2,1-2.3,1.7-3.9,1.8c-1.4,0.1-2.8-0.2-3.9-1c-1.2-0.9-1.9-2.1-3.2-2.9c-3.1-1.8-5.4,0.3-7,3
	c-2,3.5-3.5,7.2-5.4,10.8c-0.9,1.7-1.9,3.4-3.1,4.9c-0.4,0.5-0.8,1-1.5,0.6c-0.7-0.5-0.6-1.9-0.6-2.6c-0.2-2.2-0.4-4.4-0.5-6.5
	c-0.1-1.1,0.3-4.2-1.4-4.2c-0.7,0-1.6,0.7-2.2,1.1c-0.9,0.5-1.7,1.1-2.4,1.8c-1.5,1.4-2.8,2.9-4.2,4.5c-0.3,0.4-0.7,0.7-1,1.1
	c-0.2,0.3-0.7,1-1,1.1c-0.5,0.3-0.6-0.1-0.5-0.6c0.1-0.5,0.2-1.1,0.3-1.6c0.4-2.1,0.8-4.3,1.2-6.4c0.8-3.8,3-7.7,2.4-11.7
	c-0.3-1.9-1.2-2.9-2.7-3.9c-1.4-1-1.2,0.4-2.1,0.9c-1.5,0.9-2.7,2.3-3.9,3.6c-1.3,1.4-2.7,2.3-4.4,3.1c-1.8,0.8-3.4,1.7-5,2.8
	c0.5,0.1,0.3,0.2,0.2,0.6c-0.1,0.3-0.2,0.6-0.2,1c-0.2,0.6-0.3,1.3-0.5,1.9c-0.3,1.3-0.7,2.7-1,4c-0.3,1.3-0.7,2.5-1,3.8
	c0,0.2-0.1,0.9-0.2,1c-0.1,0-0.3-0.1-0.4-0.1c-0.3,0.1-0.4,0-0.4-0.2c-0.1-0.4,0.2-1.5,0.2-1.9c-0.9,0.8-1,2.4-2,3.1
	c-1.1,0.7-2.1,1.1-2.8,2.4c-0.5,1-0.6,2.2-1.5,3c-0.9,0.8-2.5,0.9-3.5,1.6c-1.3,0.8-2.6,1.4-2.8,3c-0.2,1.8-0.3,3.7-0.4,5.5
	c-0.3,3.3-0.6,6.7-1.2,9.9c-0.3,1.8-0.7,3.6-1.3,5.4c-0.3,0.9-0.6,1.9-0.9,2.8c-0.3,0.8-0.9,1.7-0.8,2.6c0.3-0.2,0.7-0.4,1-0.6
	c-0.3,1.4-1.1,2.3-1.7,3.5c-0.7,1.3-1,3.1-1.3,4.5c-0.7,3.2-1.2,6.4-1.1,9.7c0.1,1.7,0.4,3.4,0.7,5.1c0.3,1.3,0.2,2.6-0.4,3.9
	c-0.3,0.7-1.5,2.7-2.5,2.1c-1-0.6-0.9-2.5-1.6-3.4c-0.6-0.7-2.4-1.7-3.3-1.5c-1.2,0.4-1.5,2.6-1.8,3.6c-1,3.4-1.3,7-1.8,10.4
	c-0.5,3.5-1,7-1.6,10.5c-0.3,1.6-0.7,3.2-1.5,4.7c-0.3,0.6-0.7,1.4-1.1,1.9c-0.8,0.9-0.9-0.8-1-1.3c-0.6-3.3-0.3-6.7-0.5-10.1
	c-0.2-3.5-0.5-7-0.2-10.4c0.1-1.8,0.4-3.5,0.8-5.2c0.3-1.6,0-3.2,0-4.9c0-3.4,0.1-6.8-0.1-10.2c-0.2-3.5-0.7-6.9-1.2-10.4
	c-0.5-3.5-0.6-7-0.8-10.5c-0.1-1.7-0.2-3.4-0.3-5.1c-0.1-1.6-1.1-2.9-1.4-4.4c-0.3-1.5,0-3.1-0.4-4.5c-0.3-1.2-1.2-2.1-1.9-3.1
	c-0.3-0.4-0.5-1-0.9-1.2c-0.6-0.2-1.4,0.2-1.9,0.4c-1.5,0.5-2.7,1.4-4.4,1.2c-2.5-0.2-4.2-2.7-6.6-0.8c-1.1,0.8-1.9,2-3.3,2.4
	c-0.6,0.2-1.3,0.2-1.9,0c-0.6-0.2-1.1-0.5-1.7-0.3c-1.2,0.4-1.5,2.2-1.8,3.2c-0.6,1.7-1.4,3.3-2,4.9c-0.7,1.6-1.4,3.3-2.1,4.9
	c-0.3,0.7-0.5,1.4-1.1,1.8c-0.1,0.1-0.6,0.5-0.7,0.5c-0.1,0-0.6-0.7-0.7-0.8c-0.8-1.2-0.8-3.2-1-4.6c-0.3-1.5-0.6-3-1.1-4.4
	c-0.4-1.1-0.8-2.5-1.7-3.3c-0.8-0.7-1.9-1-2.5-2c-0.5-1-0.4-2.3-0.3-3.4c0.1-1.5-0.2-3.1-0.6-4.6c-0.3-1.2-0.7-2.3-2-2.8
	c-1.2-0.4-2,0-2.7,0.9c-1,1.3-2,2.6-2.9,3.9c-0.9,1.4-1.4,2.7-2.1,4.2c-1.4,3-4.6,0.1-6.9,0.6c-1.3,0.2-2.2,1-2.9,2
	c-1.1,1.4-2.1,2.9-3.1,4.3c-1,1.4-2.1,2.9-3.1,4.3c-0.5,0.7-1,1.4-1.5,2.1c-0.2,0.3-0.4,0.6-0.7,0.8c-0.1,0.1-0.4,0.4-0.5,0.4
	c-0.3,0.1-0.2,0-0.4-0.2c-0.5-0.5-0.5-1.2-0.6-1.9c-0.1-0.9-0.2-1.8-0.3-2.6c-0.2-1.7-0.3-3.4-0.5-5.1c-0.2-1.6-0.4-3.3-0.6-4.9
	c-0.2-1.4-0.1-3.3-1.1-4.4c-0.8-1-1.6-1.1-2.5-0.2c-1,0.9-1.2,2.7-1.5,3.9c-1.8,6.6-2.1,13.6-3.2,20.3c-1.1,7-2.3,14-3.6,20.9
	c-2.5,13.8-5.7,27.5-8.7,41.3c-0.7,3.4-1.4,6.8-2.1,10.3c-0.7-0.7-0.7-1.8-0.8-2.7c-0.2-1.1-0.3-2.2-0.5-3.3c-0.3-2.2-0.7-4.3-1-6.5
	c-0.7-4.3-1.3-8.6-2-12.9c-1.4-8.5-3.4-16.8-5.7-25.1c-0.6-2.2-1.2-4.5-1.7-6.7c-0.3-1.1-0.5-2.3-0.9-3.3c-0.4-1-0.7-1.6-1.4-0.8
	c-1.8,2.7-2.3,6.2-4.2,4.7c-1.7-2.5-1.5-6.4-2.1-9c-0.7-2.9-1.3-5.8-1.9-8.7c-0.3-1.4-0.6-2.7-1-4.1c-0.2-0.8-0.6-1.7-1.5-2
	c-1.8-0.6-4.2,0.5-5.2,2c-0.6,0.9-1.1,1.6-2.2,2c-1.1,0.4-2,0.3-2.7-0.7c-1.5-2.1-1.9-4.8-3.3-6.9c-0.5-0.8-1.3-1.4-2.1-1.7
	c-1.1-0.3-1.7,0.2-2.6,0.7c-0.4,0.2-1.3,0.4-1.5,0.8c-0.2,0.3,0,0.7-0.3,1c-0.6,0.8-1.9,0.6-2.8,0.7c-2.4,0.1-4.6,1.1-6.9-0.1
	c-1.1-0.6-2-1.5-2.9-2.4c-1-1-2-2.1-2.9-3.2c-1.3-1.6-2.8-3.7-5.2-3.1c-2.3,0.6-3.4,2.9-5.4,3.9c-1.9,0.9-3.1-1.7-5-1.6
	c-2,0.1-3.3,3.4-4.1,4.9c-1.2,2.3-1.8,4.7-2.4,7.2c-0.5,2.1-1.5,4.4-3.9,4.8c-1.5,0.2-3.8-1.2-5-0.1c-0.6,0.5-0.7,1.5-0.8,2.2
	c-0.2,1.6-0.3,3.2-0.4,4.9c-0.3,3.3-0.4,6.6-0.7,9.8c-0.2,2.8-0.6,6.7-2.5,8.8c-1,0.3-2.5-0.6-2.6-1.5c-0.1-1.1-0.4-2.9-0.6-4.1
	c-0.3-2.1-0.6-3.9-0.4-6.1c0.3-3.8,0.9-10.5,0.8-14.9c-0.1-2,0-4.1-0.5-6c-0.3-1.2-1.1-3.1-2.7-2.8c-1.6,0.3-2,2.7-2.3,3.9
	c-0.6,2.1-0.7,4.2-1,6.3c-1.2,8.7-3.2,17.2-5.1,25.7c-1.9,8.3-2.3,17-4.4,25.3c-1.2,4.6-2.9,9.2-4.2,13.8c-1.3,4.7-2.9,13-4.1,17.7
	c-0.8-0.7-0.8-5.8-0.9-6.7c-0.1-1.2-0.1-2.3-0.2-3.5c-0.1-2.3-0.3-4.5-0.5-6.8c-0.5-4.6-1.2-9.1-1.9-13.6c-0.3-2.2-0.7-4.4-1-6.5
	c-0.3-2.3-0.4-4.7-0.6-7.1c-0.3-4.6-1-9.1-1.1-13.7c-0.1-2,0.1-4-0.6-5.9c-0.6-1.7-4.3-2.4-5.4-2.2c-0.8,0.1-2.7,0-3.4-0.5
	c-0.8-0.6-1.4-0.7-1.7-1.5c-0.5-1.3-0.2-0.9-1.1-2.6c-0.6-1.2-0.6-0.8-1,0.5c-0.4,1.6-0.1,2.3-0.2,3.9c-0.1,1.9-0.1,4-0.1,5.9
	c0,1.8,0.1,3.7,0.1,5.5c0,0.9,0,4.8-1.3,6.3c-0.6,0.7-3.1,0-3.3-0.4c-0.3-0.6-0.6-3.2-0.8-3.9c-0.4-1.5-0.7-3-1-4.6
	c-0.5-3.2-0.2-6.5-0.6-9.8c-0.2-1.6-0.5-3.1-0.7-4.7c-0.2-1.5-0.3-3-0.6-4.5c-0.3-1.3-0.9-2.5-1.6-3.6c-0.7-1-1.5-2.3-2.9-2.4
	c-1.5,0-2.5,1.4-3.5,2.3c-1.3,1.2-2,2.5-4.3,2.9c-1.5,0.2-1.9-2.5-2.8-4.2c-0.8-1.7-1.2-3.5-1.8-5.3c-0.5-1.6-1.1-3.2-2.5-4.2
	c-0.4-0.3-1.1-0.8-1.7-0.6c-0.6,0.1-1.1,0.9-1.5,1.3c-2.2,2.7-2.9,6.4-3.5,9.7c-0.6,3.8-1.2,7.7-1.9,11.5c-0.7,3.9-2.2,7.6-3.5,11.3
	c-1.4,3.8-2.7,7.6-3.9,11.4c-2.5,7.9-5.1,15.8-7.1,23.8c-1.1,4.5-2.2,9-3.4,13.5c-0.6,2.3-1.2,4.5-1.9,6.7c-0.3,1-0.5,2-1,3
	c-0.5,1-1.7,7.8-3.4,6.4c-1.5-1.4-2.1-5.2-2.5-8.4c-0.3-2.2-0.6-6.6-1-8.7c-0.5-2.5-0.5-4.2-1.1-6.7c-0.7-2.6-0.5-5-1.1-7.7
	c-1.2-5.1-2.1-10.3-3.2-15.5c-1.1-5.3-2.2-10.5-3.2-15.8c-0.8-4.5-1.8-9.1-4.1-13.2c-1.1-1.9-2.5-3.7-3-5.9
	c-0.6-2.4,0.7-4.5,0.6-6.9c-0.1-2.4-0.1-4.8-0.4-7.2c-0.1-0.8-0.4-1.3-1.2-1.4c-0.9-0.1-1.9,0.4-2.4,1c-1.2,1.4-2.2,2.6-3,4.2
	c-0.9,1.9-2.4,3.6-3.3,5.6c-0.5,0.9-1,1.8-1.7,2.6c-0.4,0.5-1,1.6-1.7,1.7c-0.6,0.1-1.2-0.7-1.6-1.1c-0.6-0.7-1.3-1.6-2.2-2
	c-1.8-0.6-3.5,2.4-4.6,3.5c-1.8,1.7-2,3.1-3.7,4.9c-0.8,0.8-1.9,2.6-2.8,3.2c-0.9,0.6-1.8,1.3-2.8,1.4c-1.2,0-2.8-0.8-3.7,0.1
	c-0.9,1-0.6,2.1-0.8,3.4c-0.2,1.2-0.6,2.7-1.3,3.8c-0.2,0.4-0.8,0.4-1.2,0.4c-0.3,0-0.3-0.2-0.4-0.5c-0.1-0.6-0.1-1.2-0.1-1.8
	c-0.1-2.7-0.2-5.5-0.3-8.2c-0.1-2-0.5-3.8-2-5.2c-1-0.9-2.5-1-3.4,0.1c-0.6,0.7-0.8,1.6-1,2.5c-0.3,1.3-0.5,2.7-0.8,4
	c-0.9,5.2-1.7,10.4-2.6,15.6c-0.8,5.3-1.8,10.6-2.3,15.9c-0.2,2.5-0.3,5.1-0.7,7.6c-0.1,0.6-0.2,1.2-0.4,1.8
	c-0.1,0.3-0.2,1.6-0.4,1.8c-0.9,0.6-1.3-2.6-1.4-3c-1.1-5.3-1.9-10.6-2.7-16c-0.8-5.3-1.4-10.6-2.4-15.8c-0.9-5.2-1.5-10.4-1.9-15.7
	c-0.1-1.3-0.2-2.6-0.3-3.9c-0.1-1.3-0.6-1.5-1.4-2.4c-0.8,1-1.4,1.7-1.8,2.9c-0.4,1.2-1,2.3-1.4,3.5c-0.7,2.6-0.4,5.6-0.5,8.2
	c-0.1,2.8-0.2,5.6-0.2,8.3c0,2.3,0.3,4.3-1.4,6.1c-0.9-2.4-2-4.8-2.6-7.3c-0.6-2.6-1-5.2-1.5-7.8c-1-5.4-1.6-10.9-1.6-16.4
	c0-1.7-0.3-3.5-1.9-4.5c-1.5-1-3.6-0.3-4.1-2.4c-0.5-1.9-1.2-3.9-3.2-4.5c-0.8-0.3-1.7-0.2-2.4,0.3c-0.8,0.6-1,1.6-1.6,2.3
	c-0.6,0.7-1.4,1.2-2.4,1.3c-1,0.1-2.1-0.4-2.9,0.5c-0.8,0.9-0.7,2.8-0.8,3.9c-0.1,1.3-0.3,2.5-0.6,3.8c-1.4-2.6-2.8-5.1-4.2-7.7
	c-1.6-2.9-2.4-6-3.3-9.1c-0.5-1.6-0.9-3.1-1.4-4.7c-0.4-1.4-0.6-3.1-1.4-4.3c-1.4-2.3-4.1,0.3-5.2,1.6c-1.9,2-2.5,4.6-4.1,6.8
	c-0.4,0.6-2.1,2.9-2.8,2.6c-0.4-0.2-1-1.1-1.3-1.5c-0.5-0.5-1-1-1.5-1.4c-1.9-1.4-3.9-1-5.4,0.8c-1.9,2.3-2.8,5.3-4.5,7.8
	c-1.4,2.1-3.2,2.9-5.7,3.3c-2.4,0.4-2.5,2.1-2.4,4.2c0.1,1.6-0.2,3.2-0.3,4.8c-0.1,1.6-0.3,3.3-0.4,4.9c-0.3,3.3-0.5,6.6-0.8,9.8
	c-0.5,6.6-1.1,13.2-1.8,19.8c-0.3,3.3-0.6,6.6-1.1,9.9c-0.2,1.6-0.5,3.2-0.8,4.8c-0.1,0.7-0.3,1.5-0.5,2.2c-0.1,0.4-0.3,2.1-0.6,2.3
	c0,0-0.5-0.1-0.5-0.1c-0.2-0.2-0.1-0.1-0.2-0.4c-0.1-0.4,0-0.8,0-1.2c0-0.8,0-1.7-0.1-2.5c-0.1-1.6-0.4-3.1-0.5-4.7
	c-0.2-3.3,0.2-6.6,0.5-9.9c0.5-6.6,1-13.1,1.8-19.7c0.8-6.6,1.2-13.2,1.5-19.9c0.3-5.9,1.3-12.4-1.3-17.9c-0.5-1-1.1-2.5-2.2-2.9
	c-1.1-0.4-2.4,0.2-3.4,0.7c-2.4,1.3-3.4,3.7-4.4,6.1c-2.5,5.9-4.7,11.9-6.7,18c-2,6-4.4,11.7-6.8,17.5c-1.2,2.8-2.3,5.7-3.3,8.6
	c-1,3.1-1.7,6.2-2.6,9.4c-1.8,6.3-4,12.5-5.7,18.8c-1.7,6.3-3.1,12.7-4.9,19c-0.9,3.1-2,6.1-3.1,9.1c-1.1,3.1-2.1,6.2-3.2,9.4
	c-1,3-2,6-3.2,9c-1.1,2.8-2.1,5.8-3.4,8.5c-0.6,1.3-1.3,2.5-1.8,3.9C88.2,325.7,87.2,329.1,87.4,329.1z M671.7,257.1
	c-0.2,1.6-0.3,3.2-0.5,4.7c-0.3,3-0.5,6.1-0.7,9.1c-0.3,6.1-0.6,12.1-0.9,18.2c-0.1,2.9-0.7,5.7-0.4,8.6c0.1,1.2,0.6,2.1,1.7,2.7
	c0.8,0.4,1.7,0.5,2.6,0.9c1.3,0.6,1.2,1.9,1.2,3.1c0,1.3,0.2,2.4,0.5,3.7c0.2,1.1,0.4,3,1.2,3.8c1,0.8,1.6,0.1,2.1-0.8
	c0.7-1.3,1.3-2.7,2-4c0.9-1.6,1.9-3,3.9-3.2c1.2-0.1,3.5,0.9,4.3-0.4c0.8-1.3,0.3-3.2,1.3-4.5c0.4-0.5,0.9-0.7,1.5-0.9
	c0.8-0.2,2,0,2.6-0.6c0.7-0.6,0.3-1.8,0.4-2.5c0.1-1.2,0.3-2.3,0.9-3.3c0.5-0.9,0.4-1.8,0.8-2.9c0.5-1.3-0.1-1.9,0-3.3
	c0.1-3,0.2-6.5,0-9.5c-0.1-2.9,0-3,0-9.7c0-0.7,0.7-1,0.4-1.7c-0.2-0.3-0.6-2.2-1-2.2c-0.9-0.1-1.7,1.5-2.1,2.1
	c-1.6,2.3-3.2,4.3-4,7.1c-0.4,1.3-0.4,2.7-0.9,4c-0.4,1.4-1.1,2.7-1.5,4.1c-0.9-1.2-1.7-2.5-2.5-3.8c-0.9-1.5-2.1-3.1-2.6-4.8
	c-0.2-0.9,0-2,0.1-2.9c0.1-0.9,0.2-1.8,0.3-2.7c0.2-2,0.5-3.9,0.7-5.9c0.2-1.9,0.3-3.9,0-5.7c-0.1-0.5-0.3-1.3-0.7-1.6
	c-0.5-0.4-1.5,0-2,0.3c-1.6,0.8-2.9,2.2-4.2,3.4c-0.4,0.3-0.3,0.4-0.8,0.3c-0.3-0.1-0.7-0.5-0.9-0.7 M812.6,231.9
	c-1.3,5.7-4.3,10.8-6.2,16.3c-0.9,2.8-1.6,5.7-1.6,8.7c0,1.4,0.1,2.7,0.3,4.1c0.2,1.3,0.5,2.8,1.2,4c1.1,1.8,3.7,1.7,4.1-0.5
	c0.5-2.8,0.5-5.8,0.8-8.6c0.1-1.6,0.3-3.2,0.4-4.7c0.1-0.9,0.3-1.9,0.8-2.7c1.2-2,3.8-2.2,5.9-2.8c1.5-0.4,3-0.8,4.4-1.3
	c1.1-0.3,2.2-0.8,3.4-0.8c0.9-0.1,1.7,0.1,2.5,0.6c0.9,0.6,1.3,1.9,2.3,2.2c0.6,0.2,2.2,0.4,2.7-0.2c0.7-0.7,0.1-2.5-0.3-3.2
	c-1.4-2.4-2.3-5.1-3.4-7.8c-0.6-1.4-1.1-2.9-1.7-4.3c-0.4-1.1-0.6-2.5-0.9-3.7c-0.3-1.4,0-8.3-0.3-9.8c-0.3-1.7-0.1-3.2,0.1-4.8
	c0.1-1.2,0.6-2.9-0.3-4c-0.9-1-1.7-0.2-2.5,0.3c-0.9,0.6-1.8,1.2-2.5,2c-0.8,1.1-0.2,2.6-1,3.7c-2,2.8-0.7,0.8-2.7,3
	c-1,0.8-1.8,1.6-2.4,2.8c-0.6,1.1-1,2.4-1.4,3.6C813.5,226.6,813.2,229.3,812.6,231.9 M708.4,271.6c-0.7-0.2-0.7-0.3-0.7-1
	c-0.1-0.5-0.1-1-0.2-1.6c-0.1-1.1-0.2-2.2-0.3-3.4c-0.1-1.2-0.5-2.1-2.4-1.4c-1.6,0.6-1.3,1.7-1.8,3.1c-0.7,1.9-1.2,3.3-1.1,5.4
	c0.1,2.1-0.7,4-0.8,6.1c-0.1,2.2-0.3,4.4-0.5,6.6c-0.2,2.2-0.3,4.4-0.5,6.6c-0.1,2.2-0.2,3.9,1.1,5.8c0.4,0.6,1,1.4,1.8,1.2
	c0.9-0.1,1.3-1.1,1.5-1.9c0.7-2.2,0.9-4.5,1-6.7c1.1,0.5,2.1,1.3,3.4,1.3c1.1,0,2-0.7,2.5-1.6c1.2-2.1,0.5-6.5,3.8-6.5
	c0.9,0,2,0.2,2.3-0.8c0.2-0.5,0.1-1,0.1-1.5c0-1,0-2.1,0-3.1c0-2,0-4-0.1-6c-0.1-1.5-0.1-3.5-1.2-4.7
	C714.2,265,709.9,270.1,708.4,271.6C708.2,271.5,709,271,708.4,271.6z M125,385.5c0,3.1,0.4,6.3,2.5,8.8c0.4,0.5,1,1.3,1.6,1.5
	c0.8,0.3,1.3-0.7,1.6-1.3c0.7-1.8,0.8-3.7,0.4-5.6c-0.4-2-1.1-3.7-0.9-5.8c0.2-1.9,0.9-3.6,0.8-5.6c-0.1-1.4-0.4-2.7-1.7-3.3
	c-0.9-0.4-2.2-0.4-3,0.3c-1.2,1.1-1.9,3.3-2,4.9c0,1.1,0.3,2.2,0.4,3.3C124.8,383.7,124.9,384.6,125,385.5
	C125,389.6,124.9,384.5,125,385.5z M334.5,365.5c-0.6,0-0.3-0.6-0.4-1c0-0.5,0-1-0.1-1.5c-0.1-0.6-0.3-1.2-0.8-1.7
	c-0.8-0.7-2.7-1.2-3.7-0.7c-1.2,0.5-0.9,2-0.9,2.9c0,2,0.2,4,0.3,6c0.1,1.5-0.2,3.8,0.8,5c0.5,0.7,1.9,2.4,2.8,2.1
	c1.8-0.6,1.9-3.7,1.9-5.1C334.5,372.5,334.5,370.5,334.5,365.5C334.4,365.5,334.5,368.2,334.5,365.5z M56.4,158.1
	c0-1.2-0.8-1.3-1.8-1.4c-1.3-0.1-1.9,0.2-2,1.6c-0.1,1.3,0.3,1.9,1.6,1.8C55.4,159.8,56.3,159.4,56.4,158.1
	C56.4,156.5,56.3,159.8,56.4,158.1z"/>
<path fill="none" stroke="#F7B5E8" stroke-width="2" stroke-miterlimit="10" d="M492.5,221.7c1.5,6.1,4.1,12.8,5.5,19
	c1.4,6.2,2.9,12.8,3.9,19.1c1,6.2,1.9,12.4,2.9,18.7c1,6.2,0.8,12.6,1.6,18.8c0.9,6.9,3.5,13.6,4.3,20.5c-0.4-1.5-0.8-3-1.3-4.5
	c-0.5,0.1-0.3,0.2-0.2,0.7c0.1,0.2,0.1,0.5,0.2,0.7c0.2,0.6,0.3,1.2,0.5,1.8c0.2,0.9,0.3,2.7,1,3.4c0-0.1,0.1-0.8,0.2-0.9
	c0.4-0.2,0.5,0.3,0.6,0.5c0.3,0.6,0.4,1.5,0.6,2.2c0.5,1.6,0.8,3.2,1.2,4.8c0.7,3.2,1.3,6.4,2,9.6c1.3,6.4,2.7,12.8,4.5,19.1
	c1.7,6.2,3.8,12.4,5.7,18.5c0.9,3,1.7,6,2.7,8.9c0.9,2.8,2,5.7,2.8,8.5c0.9,3.2,3.6,6.2,4.4,9.9c0.1,0.5,0,3,0.2,4.8
	c0.1,0.9,0,3.2,0,4.1c0,0.6-0.6,2.9-1.7,2.4c-0.5-0.4-1.4-1.9-1.7-2.4c-0.3-0.5-0.5-1.1-0.8-1.7c-0.6-1.1-1.2-2.1-1.8-3.2
	c-0.6-1.1-1.1-2.2-1.5-3.3c-0.4-1.2-0.3-2.6-1-3.7c-0.5-0.7-0.1-0.2-1.3-1.4c-0.9-0.9-0.5,1.8-0.7,2.8c-0.2,1.5,0,3-0.3,4.4
	c-0.3,1.4-1.3,2.3-2.5,3.3c-1.2,0.8-5.4-4.2-6.1-4.6c-0.5-0.3-0.5,3-0.7,4c-0.3,1.9,0,8.4-3,6.9c-2.8-1.7-3.6-5.7-4.5-8.7
	c-0.6-2-1.1-4-1.7-6c-0.5-1.8-0.9-3.8-1.6-5.6c-0.6-1.5-1.8-1.6-3.2-1.8c-1.2-0.2-2.3-0.8-2.9-1.8c-0.8-1.5-0.8-3.4-0.9-5.1
	c-0.1-1.7,0.1-3.7-0.4-5.2c-0.3-1.1-1.2-2.2-2-3c-0.9-0.8-1.9-0.7-2.8,0.2c-0.6,0.6-0.8,1.4-1.1,2.2c-0.4,1-0.7,2-1.1,3
	c-0.7,1.9-1.3,3.8-2,5.7c-0.6,1.4-0.4,0.6-1.4,1.7c-0.9,1-1.4,3.3-1.6,4.6c-0.2,1.7-0.7,3-1.1,4.7c-0.1,0.4-0.9,1.9-1.1,2.3
	c-0.2,0.4-2.4,4.3-2.8,4.3c-0.6,0-1.4-3.4-1.6-3.7c-0.5-0.7-12.5-57.6-13-61.2c-0.2-1.3-29-0.9-32.8-1.2c-1-0.1-1.9,0.7-2.5,2
	c-1.8,3.7-3.9,7.2-5.7,10.9c-1.7,3.7-5.9,14.7-6.1,15.5c-0.3,1.1-1.8,7-2.1,7.9c-0.5,1.9-0.8,3.1-1.4,4.9c-0.2,0.7-0.8,2.4-1,3.1
	c-0.3,1-0.9,2.6-1.2,3.6c-0.5,1.8-1.8,5.3-2.8,6.9c-0.8,1.3-2.2,0.2-3.5-0.4c-1.3-0.5-1.8-0.2-2.4,1.1c-0.8,1.6-1.1,2.7-2,4.2
	c-0.4,0.7-1.2,2.5-1.6,3.2c-0.2,0.3-1.7,2.3-2,2.4c-0.4,0.2-1.5,0.2-2.2-0.2c-0.7-0.3-2.2-1.2-2.8-0.9c-1.2,0.8-1.2-2-1.8-3.5
	c-0.3-0.8-0.4-1.8-0.5-2.7c-0.2-1.1-0.3-2.2-0.5-3.3c-0.6-4-1.2-8-1.8-12.1c-0.5-4.1-0.9-8.3-1.5-12.4c-0.6-4-1.3-8.1-2-12.1
	c-1.3-8.2-2-16.5-2.5-24.9c-0.3-4.2-0.7-8.4-0.9-12.5c-0.1-4.1-0.8-9.2,0.8-12.1c1-1.9,0-4.3-0.1-6.4c0-1-0.1-2-0.1-3
	c0-1.1-0.2-2.3,0-3.3c0.2-0.8,0.5-1.6,0.8-2.4c0.4-1,0.6-2,0.8-3.1c0.4-2,0.8-4,1.2-6c0.8-4,1.6-8,3.1-11.9
	c1.3-3.7,2.4-7.5,3.4-11.2c2.1-8,1.8-16.2,3.5-24.3c0.9-4.1,2.1-9.6,3-13.7c0.9-3.8,1.4-7,1.9-10.9c0.4-3.5,0.6-8.4,3.8-10.3
	c1-0.2,2.2,2.1,2.2,2.9c0.1,1.1,0.4,3.2,0.5,4.3c0.1,2.2,0.1,5.3,0.1,7.5c0.1,4.6-1.3,7.8-0.8,12.3c0.1,1.1,0.3,2.2,0.4,3.3
	c0.1,1.1,0.1,2.5,0.5,3.6c0.5,1.3,1.7,2.7,2.6,1.5c2-2.7,2.3-6.1,2.6-9.7c0.3-5.2,0.4-12.6,1.8-16c2.1-2,4.8,1.4,6.8-0.7
	c1-1,1.9-3.1,2.2-4.5c0.4-1.7,1.1-3.6,1.8-5.2c0.7-1.7,1.2-2.7,2-4.3c0.5-1.1,2-2.5,3.5-2c1.2,0.4,2.3,1.8,3.7,1.6
	c0.6-0.1,2.6-2,3.3-2.5c0.8-0.6,2.5-1.9,4.3-1.5c1.7,0.3,4.6,4.4,4.9,4.7c0.7,0.6,2,2.1,2.7,2.7c1.3,1.1,2.1,1.6,3.9,1.9
	c1.5,0.2,2.5-0.4,4-0.4c1.7,0,3.3,0.1,4.2-1.3c0.7-1.2,3.1-2.2,4.3-1.8c0.6,0.2,2.2,2.6,2.4,3.1c0.3,0.8,0.9,2.3,1.3,3.1
	c0.7,1.6,0.9,1.5,2,2.9c0.5,0.6,1.2,0.5,1.9,0c0.5-0.4,1.8-1.6,2.4-2.3c0.6-0.7,4.2-2.4,5.1-1.7c1.1,0.9,2.6,7.3,3,8.7
	c0.6,2.8,1.2,5.8,1.9,8.6c0.3,1.4,0.4,2.8,0.6,4.2c0.1,0.9,0.1,1.5,1,2.3c0.8,0.7,1.2,0.1,1.7-0.5c0.4-0.6,0.8-1.2,1.2-1.8
	c0.2-0.3,0.7-1.3,0.8-1.6C491.7,221.8,492.3,220.9,492.5,221.7z M433.1,270.5c0.4,1.3,0.7,2.6,1.4,3.8c0.8,1.3,1.4,2.6,1.9,4
	c0.5,1.3,0.9,2.7,1.3,4.1c0.4,1.3,0.7,2.8,1.3,4.1c0.4,0.9,1.1,1.7,2.2,1.6c1.2,0,2.2-0.8,3.5-0.5c1.3,0.3,2.2,1.4,3.1,2.3
	c1,1,2,1.8,3.3,2.5c0.3-0.7,1-1.4,1.1-2.2c0.1-1-0.2-2.1-0.3-3.1c-0.2-2-0.5-4-0.9-6c-0.4-1.9-1.1-3.7-1.9-5.5
	c-0.8-1.8-1.2-3.7-1.7-5.6c-0.9-3.8-1.4-8.2-3.8-11.3c-0.4-0.5-1-1.6-1.7-1.7c-0.8-0.1-1,0.7-1.2,1.3c-0.4,1.2-0.7,2.5-1.4,3.6
	c-0.4,0.6-0.9,1.1-1.5,1.4c-0.7,0.4-1.7,0.3-2.3,0.8c-0.8,0.6-1,2.1-1.3,3C433.8,268.2,433.4,269.4,433.1,270.5
	C433.5,271.8,433.6,268.7,433.1,270.5z M435.9,287.2c-0.7-2.7-1.3-5.3-2.1-8c-0.3-1.1-0.5-2.6-1.1-3.6c-0.5-0.9-1.5-1.4-2.2-2
	c-0.6,1.1-1.4,2.1-1.8,3.3c-0.4,1.4-0.6,2.9-0.9,4.3c-0.3,1.4-0.6,2.9-1,4.3c-0.3,1.2-0.6,2.4-0.2,3.7c0.3,0.8,0.9,1.7,1.8,1.9
	c0.6,0.1,1.2-0.2,1.8-0.3c0.7-0.1,1.4-0.3,2-0.5C434,289.8,436.1,289.3,435.9,287.2C434.9,283.4,436.1,289.4,435.9,287.2z"/>
<path fill="none" stroke="#F7B5E8" stroke-width="2" stroke-miterlimit="10" d="M334.8,202.6c2.4,1,4.5,11.9,6.3,13.5
	c1.6,1.4,3.8,0.2,5.5-1.3c3.8-3.3,4-3.7,5.5-2.5c1.5,1.2,3.7,9.9,3.9,12.3c0.4,5.1-0.5,10.7,0.8,15.7c0.3,1.1,0.5,2.3,1,3.4
	c0.4,0.9,1.3,1.5,2.1,2c0.8,0.5,1.1,0.5,1.8-0.1c0.8-0.6,1.1-1.7,1.3-2.6c0.6-2.2,0.3-4.5,0.3-6.7c0-2.6,0-5.2,0.1-7.8
	c0-1.2,0.1-2.4,0.1-3.6c0-0.6,0-1.2,0.2-1.7c0.1-0.3,0-0.3,0.3-0.4c0.4-0.2,0.5,0.2,0.7,0.6c0.9,1.4,1.2,3.4,3,3.9
	c2,0.6,4.3,0.2,6.4,0.9c1.9,0.6,2.1,2.3,2.2,4.1c0.4,5.2,0.8,10.3,1.2,15.5c0.4,5.2,1,10.3,1.7,15.4c0.7,5.2,1.3,10.4,2,15.6
	c0.6,5.1,0.9,10.2,1.3,15.3c0.4,4.9,1.3,9.8,0.6,14.8c0,0.3-0.1,0.6-0.3,0.9c-0.2,0.3-0.6,0.4-0.8,0.7c-0.4,0.6-0.4,1.7-0.3,2.4
	c0.1,2.6,0.3,5.2,0.5,7.7c0.7,10.3,1.7,20.6,2.5,30.8c0.4,5.1,1.4,10,2.3,15c0.9,5.2,1.8,10.3,2.7,15.5c0.8,5.1,1.5,10.2,2.2,15.2
	c0.2,1.2,0.3,2.3,0.5,3.5c0.1,0.7,0.6,2.5-0.3,2.9c-0.8,0.3-2-0.9-2.6-1.2c-1.1-0.7-2.2-1.4-3.3-2.2c-1.9-1.3-3.7-2.8-5.6-4.2
	c-1.4-1-3.1-1.7-4.6-0.5c-1.2,1-1.6,2.6-2.4,3.9c-0.4,0.6-0.8,1.2-1.5,1.5c-0.3,0.1-0.6,0.2-0.9,0.3c-0.9,0.1-0.9-0.1-1.2-0.9
	c-0.3-1-0.6-2-1.1-2.9c-0.5-0.8-1.4-1.3-2.2-2c-0.8,1.2-1.5,2.4-2.1,3.8c-0.3,0.7-0.6,1.4-0.9,2.2c-0.1,0.4-0.3,0.7-0.7,0.4
	c-0.3-0.2-0.2-0.8-0.3-1.2c-0.3-3.2,0-6.4-0.3-9.6c-0.1-2-0.9-3.5-2.7-4.4c-0.5-0.2-1-0.4-1.5-0.6c-0.3-0.1-0.5-0.3-0.7-0.5
	c-0.2-0.2-0.6-0.9-0.9-1c-0.3-0.1-1.1,0.4-1.4,0.5c-0.5,0.1-1,0.1-1.5,0c-2.3-0.4-3.3-2.4-3.5-4.5c-0.3-3.3-0.6-6.7-0.7-10
	c-0.3-6.7,0-13.3,0-19.9c0-3.3-0.1-6.6-0.6-9.9c-0.5-3.3-1.2-6.5-1.7-9.8c-0.9-6.7-1.8-13.4-2.6-20.1c-0.4-3.3-0.7-6.6-0.9-10
	c-0.1-1.7-0.2-3.3-0.3-5c-0.1-0.7-0.2-1.4-0.4-2.1c-0.1-0.4-0.4-1.5-0.9-1.6c-1.1-0.2-2,2.3-2.3,3c-0.7,1.4-1.3,2.9-1.9,4.4
	c-1.1,3-1.6,6.2-3,9.1c-0.6,1.3-1,2.9-1.6,4.2c-0.7,1.4-1.5,4.6-1.9,6.2c-0.7,3.2-0.7,4.1,0.1,7.3c0.7,3,1.3,6.3,2,9.5
	c0.7,3.1,0.8,6.2,0.8,9.3c0,1.6,0.6,4.3-0.9,4.8c-1.9,0.8-1.7-3.6-1.9-5.5c-0.1-1.4-0.4-2.4-0.5-4.2c-0.1-0.6-0.8-2.2-1.4-2.3
	c-0.7-0.1-1.1,0.8-1.4,1.4c-0.9,1.6-2.9,9.7-5,2.8c-0.7-2.2-4,7.3-4.6,9.5c-1.6-0.8-3.7-2-5.5-1.2c-2.1,0.9-2.1,3.9-2.3,5.8
	c-0.7,6.9-0.2,13.9,0.9,20.7c0.3,1.8,0.6,3.4,0.7,5.3c0,0.9,0,1.8-0.1,2.6c-0.2,1.1-0.8,2.9-0.7,2.6c-1.5,2.7-3.8-4.7-4.3-7.8
	c-0.5-3.2,0-9-0.5-12.2c-0.2-1.5-0.6-3.1-0.5-4.7c0-1.3,0.3-2.8-0.5-3.9c-0.6-0.9-1.8-1.2-2.9-0.9c-1,0.3-1.3,1.2-1.5,2.1
	c-0.4,1.6-1.2,3.1-1.9,4.6c-0.7,1.5-1.1,5.7-1.7,7.2c-1-2.7-2.8-7.9-3.7-10.7c-0.7-2-0.5-5.2-3.1-5.5c-1.2-0.1-2.3,0.3-3.4,0.6
	c-1.1,0.2-3.6,0.6-4.6,0c-1-0.6-1.3-1.8-1.8-2.8c-0.7-1.4-1-3-1.7-4.4c-2.6-5.3-5.2-10.6-6.7-16.4c-1.6-6-2.9-12.1-4.4-18.1
	c-0.8-3.2-1.4-6.8-2.7-9.8c-0.6-1.3-2.9-4.9-4.2-4.3c-1.1,0.5-2.8,18.2-3.8,28.2c-0.5,4.9-1.2,10.3-1.6,15.3
	c-0.4,5.1-0.2,9-0.2,14.1c0,2.8-0.6,6-0.6,8.9c0,1.5-0.1,2.9-0.2,4.4c0,0.4-0.3,2.9-0.4,3.4c-0.1,0.8-2.9,4.3-5.7,5.2
	c-2.1-14.8-5.1-31.8-7.9-46.5c-1.4-7.4-3.1-14.8-5-22.1c-0.5-1.8-1-3.6-1.4-5.4c-0.5-1.8-1-3.6-0.9-5.4c0.1-1.8,0.1-3.5-0.1-5.3
	c-0.2-1.8-0.5-3.7-0.7-5.5c-0.4-3.8-0.9-7.5-1.3-11.3c-0.1-0.9-0.2-1.9-0.3-2.8c0-0.2-0.2-1.2-0.2-1.4c0.2-3.3,0.9-3.8,1.1-4.2
	c0.6-1.2,0.9-2.3,1.1-3.4c1-7.6,1.2-10.9,2.1-18.5c0.5-3.7,1.1-7.8,1.7-11.5c0.5-3.8,1.2-7.1,1.9-10.8c0.2-0.8,0.2-1.8,0.5-3
	c0.4-1.4,1.4-2,1.5-2.1c0.2-0.1,1.3-0.4,2.6,0.5c1.1,0.7,1.3,4,1.4,5.1c0.2,3.8,0.1,5.1,0.4,9c0.1,1.1,0,2.5,0.8,2
	c1.2-0.9,1.9-1.7,2.2-3.1c0.1-0.8,0.3-1.6,0.4-2.3c0.1-0.8,0.1-1.7,0.5-2.4c0.7-1.3,2-0.7,3.1-0.5c1.3,0.2,2.4-0.2,3.3-1
	c1.1-1,2-2.3,3-3.4c1.2-1.3,6-7.2,7.3-8.5c1.1-1.1,2.7,2.1,4.1,2.6c1.4,0.5,2.4-0.1,3-1.3c1.7-3,2.8-3.5,3.9-6.4
	c0.6-1.6,1.2-3.2,2.3-4.6c0.5-0.6,1.6-2.2,2.5-2.2c0.8-0.1,2.3,0.2,2.4,0.9c0.2,0.9,0.5,4.3,0.4,5.2c0,1-0.2,2.9-0.2,4
	c-0.1,1.9-0.7,3.2-0.3,5c0.8,3.7,2.4,4.7,4.1,8.1c1.6,3.4,2.7,8.6,3.2,12.3c0.6,4,1.7,8.2,2.5,12.1c0.8,4.1,1.5,7.1,2.2,11.2
	c0.7,3.9,1.2,6.6,2,10.5c0.8,4,1.6,8.9,2.3,12.9c0.8,4-0.1,7.8,1.3,11.6c0.4,0.9,0.8,3.7,2.2,3.4c1.3-0.3,1.7-3.2,2.1-4.5
	c1-3.1,1.9-5.9,2.7-8.9c1.1-4,2.1-8.6,3.3-12.6c2.3-7.9,4.2-14.3,6.3-22.3c1-3.8,2.4-8.5,4-12.2c1.5-3.6,2.7-7.1,3.9-10.8
	c2.4-7.8,2.8-14.9,4.7-22.7C330.9,205.6,332.4,201.6,334.8,202.6z M341.3,237.3c-0.1,2,3,5,4.8,3.1c1.2-1.3,0.5-2.8,0.2-4.3
	c-0.3-1.5-0.4-3.1-0.7-4.6c-0.3-1.5-0.8-3-1.7-4.3c-0.3-0.4-0.9-1.4-1.5-1.4c-0.7,0-0.9,0.9-1,1.4c-0.4,1.8-0.6,3.3-0.2,5.1
	C341.6,234,342.1,235.8,341.3,237.3C341.2,239.2,342.4,235.3,341.3,237.3z M241.6,258c-0.1,0,0.1,4.3,0.2,4.8c0.3,1.1,1,2.7,2.2,3.2
	c1.3,0.5,2.2-0.4,2.5-1.6c0.4-1.6,0.5-3.5,0.6-5.1c0.1-1.6,0.3-3.3-0.3-4.8c-0.4-1.2-1-2.4-2.3-2.7c-1.1-0.2-2.3,0.1-2.7,1.2
	c-0.3,0.7-0.1,1.5-0.1,2.3C241.6,256.2,241.6,257.1,241.6,258C241.6,258,241.6,256.7,241.6,258z"/>
<path fill="none" stroke="#F7B5E8" stroke-width="2" stroke-miterlimit="10" d="M224.4,380.9c5,1.6,10.1,2.4,15,4.5
	c-11.8,7.2-24.3,13.2-36.6,19.5c-0.2-1.3,0-2.7,0.1-4c0.2-2.1,0.6-4.2,1-6.2c0.9-4.6,2-9.3,3.4-13.8c0.6-1.9,1.2-3.9,2.2-5.7
	C214.1,377.1,219.3,379.3,224.4,380.9z"/>
<path fill="none" stroke="#F7B5E8" stroke-width="2" stroke-miterlimit="10" d="M716,267.1c0,3.7,1.8,8.5,1.8,12.2
	c0,0.6,0.2,2.3-0.2,2.5c-0.4,0.3-1.4,0.2-1.9,0.4c-1.2,0.5-2.2,1.4-2.9,2.5c-0.8,1.5-1.4,8.2-4.3,6.1c-0.6-0.5-0.7-0.9-1.1-1.4
	c-0.3-0.4-0.7,0.1-1.1-0.2c-0.1-0.1-0.6-0.4-0.3-1.2c0.1-0.3-0.2,0-0.5,0.2c-1.6,1-1.6,2.6-1.8,4.2c-0.2,1.8-0.3,3.6-0.7,5.4
	c-0.1,0.4-0.1,0.9-0.4,1c-0.7,0.3-0.7-0.4-0.7-0.9c-0.1-0.9-0.2-1.8-0.1-2.8c0.3-3.9-0.4-7.9,0-11.8c0.3-3.8,1.5-7.4,1.6-11.1
	c0-1.8-0.1-3.7,0.5-5.4c0.3-0.7,0.6-1.5,0.9-2.2c0.1-0.3,0.2-1,0.8-0.7c0.3,0.2,0.2,0.9,0.3,1.3c0.2,2.2,0.2,9.5,3.2,7.8
	c1.5-0.8,2.7-3,3.9-4c1.4-1.1,3.1-0.4,4.9-1C717.8,272.9,715.2,267.4,716,267.1z"/>
<path fill="none" stroke="#F7B5E8" stroke-miterlimit="10" d="M192,227.5c2,0.9,2.8,2.5,2.9,4.6c0.1,1.3,0.2,2.7,0.3,4
	c0,1-0.1,2-1,2.5c-0.8,0.4-1.9,0.5-2.5-0.2c-0.7-0.7-0.8-1.9-0.8-2.9C190.7,232.9,191.6,230.2,192,227.5
	C194.1,228.5,191.6,229.7,192,227.5z"/>
<path fill="none" stroke="#F7B5E8" stroke-width="2" stroke-miterlimit="10" d="M181,270.5c-1.8,2.4-4.3,0.4-6.5-0.1
	c-1.5-0.4-3-0.5-4.5-0.3c-1.5,0.2-2.7,0.8-4.1,1.4c-2.1,1-3.6,2.5-4.4,4.7c-1,2.7-1,5.8-1.4,8.7c-0.2,1.4-0.2,3.2-0.9,4.4
	c-0.5,0.8-0.6-0.1-0.7-0.7c-0.1-0.8-0.1-1.5,0.1-2.3c0.5-3.2,1-6.5,1.6-9.7c0.3-1.5,0.8-3,1.3-4.5c0.5-1.4,1.4-2.6,1.5-4
	c0.1-0.6,0-1.2,0.2-1.9c0.3-0.8,0.6-1.6,0.9-2.4c0.6-1.5,1.2-3.1,1.8-4.6c1.3-3.5,2.7-7,4-10.5c0.7-1.8,1.4-3.6,2-5.3
	c0.5-1.4,0.8-2.8,2-3.6c0.2,0.7,0.5,1.3,0.5,2c0,0.6-0.1,1.1,0.1,1.6c0.3,1,1,1.8,1.9,2.3c0.9,0.5,1.8,0.9,2.2,1.9
	c0.5,1.1,0.4,2.5,0.5,3.7C179.7,257.7,179.9,264.2,181,270.5C179.4,272.7,180.8,269.3,181,270.5z"/>
<path fill="none" stroke="#F7B5E8" stroke-miterlimit="10" d="M209,248.4c0.3,2.5,0.7,5,1,7.4c0.2,1.2,0.3,2.4,0.5,3.6
	c0.1,0.5,0.7,1.4,0.3,1.9c-0.2,0.2-0.4,0.4-1.2,0.4c-0.7,0-0.7-0.2-1.1-0.5c-2.3-1.9-1.4-4.3-1.4-6.4c0-1.3,0-2.5,0-3.8
	c0-0.5-0.1-1.1,0.1-1.6C207.3,248.6,207.3,248.3,209,248.4C209.6,252.7,208.5,248.3,209,248.4z"/>
<path fill="none" d="M340.3,239.2c-0.1,2.4,4.1,5.9,6.5,3.6c1.6-1.5,0.7-3.3,0.3-5c-0.4-1.8-0.5-3.6-1-5.4c-0.4-1.8-1.1-3.6-2.3-5.1
	c-0.4-0.5-1.2-1.6-2-1.6c-0.9,0-1.2,1-1.3,1.6c-0.6,2.1-0.7,3.9-0.2,6C340.7,235.2,341.5,237.3,340.3,239.2
	C340.3,241.4,341.8,236.8,340.3,239.2z"/>
<ellipse fill="none" cx="244.2" cy="258.8" rx="2.2" ry="6.3"/>
<path fill="none" stroke="#F7B5E8" stroke-width="2" stroke-miterlimit="10" d="M818,218.7c-1,0.8-1.8,1.6-2.4,2.8
	c-0.6,1.1-1,2.4-1.4,3.6c-0.7,2.6-1,5.3-1.6,7.9c-1.3,5.7-4.3,10.8-6.2,16.3c-0.9,2.8-1.6,5.7-1.6,8.7c0,1.4,0.1,2.7,0.3,4.1
	c0.2,1.3,0.5,2.8,1.2,4c1.1,1.8,3.7,1.7,4.1-0.5c0.5-2.8,0.5-5.8,0.8-8.6c0.1-1.6,0.3-3.2,0.4-4.7c0.1-0.9,0.3-1.9,0.8-2.7
	c1.2-2,3.8-2.2,5.9-2.8c1.5-0.4,3-0.8,4.4-1.3c1.1-0.3,2.2-0.8,3.4-0.8c0.9-0.1,1.7,0.1,2.5,0.6c0.9,0.6,1.3,1.9,2.3,2.2
	c0.6,0.2,2.2,0.4,2.7-0.2c0.7-0.7,0.1-2.5-0.3-3.2c-1.4-2.4-2.3-5.1-3.4-7.8c-0.6-1.4-1.1-2.9-1.7-4.3c-0.4-1.1-0.7-2.5-0.9-3.7
	c-0.3-1.5,0-8.3-0.3-9.8c-0.3-1.7-0.1-3.2,0.1-4.8c0.1-1.2,0.6-2.9-0.3-4c-0.9-1-1.7-0.2-2.5,0.3c-0.9,0.6-1.8,1.2-2.5,2
	c-0.8,1.1-0.1,2.7-1,3.7C818.5,218.3,819.6,217.2,818,218.7z"/>
</svg>
