<?xml version="1.0" encoding="utf-8"?>
<!-- Generator: Adobe Illustrator 18.1.1, SVG Export Plug-In . SVG Version: 6.00 Build 0)  -->
<svg version="1.1" id="Layer_1" xmlns="http://www.w3.org/2000/svg" xmlns:xlink="http://www.w3.org/1999/xlink" x="0px" y="0px"
	 viewBox="0 0 462.9 239.7" enable-background="new 0 0 462.9 239.7" xml:space="preserve">
<g>
	<path fill="#FFFFFF" d="M142.7,189.6c-1.5,0.4-3,0.9-4.5,1.3c2.2-4.1,4.5-7.5,7.5-11c-1.5-1.3-3.1,0.8-4.6,1.8
		c-1.4-6.6,8.1-7.4,8.1-13.6c-2.5,2.1-5,4.2-7.5,6.4c0.7-5.8,7.1-7.8,8-13.2c-1.3,1.1-2.7,2.1-4,3.2c-1.8,1.4-1.9,2.5-3.8,0.6
		c3.2-2.9,6.4-5.8,9.6-8.7c2.1-1.9,3.2-3.1-0.2-1.7c-1.7,0.7-3.4,2.5-4.9,3.6c-0.9,0.7-3.8,4-4.4,1.1c-0.1-0.6,3.6-3.6,4.3-4.3
		c3.4-3.4,6.7-6.7,10.1-10.1c-1.7-1.6-8.4,5.3-10.6,7c-1.1,0.9-2.2,1.7-3.2,2.6c-1.7-0.1-2.2-0.9-1.5-2.5c-0.3-1.6,0.2-4,0.3-5.6
		c0.2-4.3,0.3-8.7,1.4-12.9c1.1-4.5,3.1-8.7,3.9-13.3c1.8-9.6-0.7-17.5-2-26.8c-1.1-7.5,4.8-16,7.3-22.9c-2-0.7-5.3,7.7-6.3,9.5
		c-3.4,6.3-3.1-1.9-3.5-5.1c-1.1-9.2-2.1-18.3-3.2-27.5c-0.5-4.4-1-8.8-1.5-13.2c-0.5-4.2-0.3-9.2-1.5-13.2
		c-1.1-3.5-0.7-2.6-2.2-0.5c-1.1,1.6-1.5,4.3-2.2,6.1c-1.6,4.4-3.2,8.9-4.8,13.3c-1.1,3.1-2.3,9.9-4.5,12.3c-2,2.2-2.2-0.2-2.8-2.4
		c-0.7-2.5-1.4-4.9-2.1-7.4c-2.4-8.5-4.7-16.9-7.1-25.4c-0.6-2.1-2-12.4-5.1-10.5c-1.1,0.7-1.2,10.7-1.3,12.2c-1,9.2-2,18.3-3,27.5
		C94.2,34.3,89.5,21.2,81.7,9.9c0,13.6,0,27.1,0,40.7C72.5,39,65.3,25.6,53.4,16.5c2.1,9.1,5.5,18,7.2,27.2
		c0.8,4.5,1.3,9.1,1.7,13.7c0.2,2,0.4,13.3,2.2,12.8c1.8-0.5-1.2-11.8,2.3-11.7c1,0,6.7,10.3,7.4,11.5c4.7,7.4,7.5,15.1,9.4,23.6
		c2,8.7,3.4,17.5,5.6,26.2c2.3,9.2,5.1,18.2,7.2,27.5c4,17.3,4.4,36.1,2.9,53.6c2.3-3.7,4.6-9.8,7.8-12.8c2-1.8,1.8-2,2.1,1
		c0.2,2.6-0.5,5.8-0.9,8.4c-0.9,5.7-1.8,11-8.7,9.2c-8.1-2-10.2-13.1-12.9-19.9c-3.5-8.8-7.1-17.8-7.7-27.4c2.5,0.4,2.6-1.9,3.5-4
		c-5-1.3-4.6-7.1-7.4-10.4c1.6,0.2,3.1,0.3,4.7,0.5c-0.5-5.7-9.4-6.3-7.5-12.9c3.4,0.9,5.2,1.2,8.6,0.6c-2.4-3.2-7.2-5.7-9.1-9
		c-1.4-2.5,1.1-1,2.7-0.3c2.2,1,4.5,2,6.7,3c1.8-4.4-3.3-5.2-5.1-8.2c1.8,0.6,7.3,3.5,6.5-0.1c-0.4-1.9-4-3.4-5.5-4.1
		c-4.7-2.3-9.8-3.6-12.7-8.3c4.2,1.5,9.8,4.8,14.2,5.1c5.9,0.4-0.3-4-2.8-5c-2.9-1.2-8.3-1.9-10.2-4.6c-2.4-3.4,1.2-1.8,3.3-1
		c2.4,0.9,4.8,1.8,7.2,2.8c0.1-7.9-15.2-4.7-11.9-13.6c2.9,1,5.8,2,8.7,3c-1.9-5.5-11.1-5.7-8.6-12.8c1.8,0.7,3.6,1.3,5.4,2
		c1.8,0.7,5.2,2.2,3.3-0.8c-1.9-3.1-7.6-6.3-10.4-8.6c-0.5,1.9-0.9,3.9-1.4,5.8c-7.3-8.9-14.5-17.8-21.8-26.7
		c3.4,19,6.7,38,10.1,57.1c-5.2-5.9-7.4-13.8-14.9-17.5c1.8,9.8,3.8,18.9,7,28.3c3.5,10.4,7.2,20.7,10.4,31.2
		c5.7,18.7,15.5,36.6,28.3,51.4c-9.3,8.1-19-1.7-29.1,0.5c5.6,1.6,11.2,3,16.8,4.1c2.7,0.5,4.8,1.1,7.4,0.3c2.2-0.7,3.6-2,6.1-2.1
		c4.3-0.2,9,1.4,13.2,1.9c5.6,0.7,11.2,1.1,16.7,2c4.4,0.8,9.1,3.2,13.5,3.4c4.1,0.2,7.8-1.4,12-0.4c5,1.2,7.5,4.4,12.9,3.3
		c4.1-0.9,8.1-1.8,12.1,0.1c4.1,1.9,7.4,1.4,12,1.6c5.4,0.3,10.9,1,16.3,0.9c4.8-0.1,9.3-2.1,13.9-2.3c5.2-0.2,11.1,1.9,16.2,2.6
		c10.5,1.5,20.8,0,31.2-0.5c11.3-0.5,22.6-0.1,34-0.1c-3-2.7-7.5-1.9-11.2-1.9c-5.2,0-10.4,0-15.6,0.1c-9.2,0.1-18.3,0.9-27.4,1.4
		c-8.7,0.5-16-1.6-24.5-2.7c-7.7-1-14.8,2.2-22.6,1.9c-8.3-0.3-16.5-2.1-24.8-2.7c-5.3-0.4-18.5,3.2-17.5-5.3
		c2-17.5,11.2-33.5,18.7-49c9.3-19.1,16-39.7,24.2-59.3c-5.9,2.2-13.1,3.1-17.6,8c-2.6,2.8-3.1,5.9-4.2,9.4c-1.5,4.8-4,9.5-6,14.1
		c2.2,1,2.5-2.1,3.4-4c0.9-1.8,1.8-3.6,2.6-5.4c1.5-3.5,2.1-7.4,4-10.7c3.1-5.4,9.1-7,14.7-8c-6.2,14.9-12.1,29.8-18.3,44.7
		c-3.1,7.4-6.3,14.7-9.9,21.9C149.9,176,145.3,183.4,142.7,189.6z M221.1,158.7c-3.7-5.6-5.9-12.4-8.6-18.5
		c-2-4.5-4.1-13.9-9.2-15.6c-2.9-1-7.7,0-10.7,0.1c-2.2,0.1-6.1-0.5-7.6,1.5c-1.3,1.7-0.5,5.1-0.3,7c0.4,3.9,0.7,7.8,1,11.7
		c1.2,14.5,2.1,28.9,1.6,43.5c-0.1,3.2-2,11.2,1.6,13.2c1.6,0.9,4.5,0.3,6.2,0.2c4.2-0.1,8.5,0,12.7,0c-0.3-5.3-0.5-10.5-0.8-15.8
		c-0.1-2.4-0.9-5.9-0.4-8.2c0-0.7-0.1-1.4-0.1-2.1c1.4-1.3,2.4-1,3,1c3.9,3,7,9.7,9.9,13.7c2.7,3.7,5.2,8.1,8.4,11.3
		c3.5,3.6,9.1,2.1,13.7,1.8c1.1-0.1,2.2-0.2,3.3-0.2c1.5,0.3,1.8-0.5,1.1-2.3c0.6-2.6-0.1-6.1-0.2-8.7c-0.2-10.8-0.4-21.6-0.6-32.4
		c-0.2-10.7-0.4-21.5-0.6-32.2c0-1.4-0.1-2.9-0.1-4.3c0.7-2.1,0-2.8-2.1-2.1c-1.6-0.5-4.2,0.1-5.9,0.1c-3.6,0-7.4-0.7-11-0.2
		c-4.8,0.7-5,4.1-4.8,8.4C221.1,139.2,221.1,148.9,221.1,158.7C220.7,158.1,221.1,150.3,221.1,158.7z M426.1,106.3
		c-5.1,1.1-10.3,2.2-15.4,3.3c-2.5,0.5-4.9,1-7.4,1.6c-4.1,0.9-4.3,1-5.7,4.9c-3.3,9-5.7,17.7-7.8,27c-2.1,9.7-4.2,19.4-6.8,28.9
		c-2.7,9.8-6.3,19.1-8.6,29c7.2-1.3,14.7-2.3,21.8-4.1c3.7-0.9,3.8-2.9,4.6-6.5c0.9-4.1,1.1-10.8,5.7-12.6c1.3-0.5,2.8-0.5,4.1-0.5
		c3-0.1,2.2-0.1,3.3,2.1c2.1,4.2,2.1,11.2,3,15.8c0.2,1.2,0.5,6.9,1.4,7.5c0.9,0.6,6.2-1,7.5-1.2c2.4-0.4,4.9-0.7,7.3-1.1
		c3.7-0.6,4.1,0,3.7-3.8c-1.2-9.8-2.3-19.7-3.5-29.5C430.9,146.9,428.5,126.6,426.1,106.3C417.4,108.1,429.9,138.5,426.1,106.3z
		 M374.9,127.9c0.2-7.1-1.6-14.1-8.4-17.4c-8.3-4-19-4.6-28-3.3c-6.4,0.9-17.9,2.7-21,9.5c-1.7,3.6-0.7,8.1-0.5,12
		c0.2,5.7,0.4,11.4,0.5,17.2c0.2,10.4,0.3,20.8,0.7,31.1c0.1,5,0.3,10,0.4,15c0.1,2.6-1.1,9.7,1.5,11.6c2.4,1.7,7.3-0.9,9.7-1.6
		c6-1.7,7.7-2.6,8-9c0.5-9.9-0.3-20.4,1.1-30.1c0.7-4.8,5.2-5.3,9.2-7c4.9-2.1,9.7-4.3,14.3-6.9
		C370.2,144.4,375.4,137.3,374.9,127.9C375.2,118.3,375.4,136.9,374.9,127.9z M304.3,173.9c-1.7-8.8-3.3-17.7-5-26.5
		c-1.4-7.4-1.8-17.3-5.8-23.9c-3.1-5.1-9.3-7.4-15.1-7.2c-7.1,0.3-11.2,5.4-14.3,11.2c-6.9,13.1-9.7,30.3-6.5,44.8
		c2.6,11.8,11.5,29.2,24.8,31.4c6.3,1,13.1-1.7,16.8-6.9C303.4,190.8,303.2,180.9,304.3,173.9C301.6,159.7,303.2,180.9,304.3,173.9z
		 M153,66.1c1.2,1,3.7-1.5,4.9-2.3c0.9,17.1,2.6,33.4-2.3,50.1c-2.5,8.5-4.7,17.2-6.6,25.9c-0.8,3.8-0.2,5.6,3.5,3.1
		c1.6-1.1,3.1-2.6,4.5-3.9c1.1-1,4.9-3.9,1.4-3.1c-2.2,0.5-3,3-5,1.8c-1.4-0.8-1.4-4.1-1.3-5.4c0.3-3.3,2.2-6.7,3.3-9.8
		c2.7-8.1,4.4-16.6,5-25.1c0.7-8.5,0.4-17.1-0.3-25.6c-0.3-3.7-0.1-8.6-1.7-12c-1.3-2.7-0.8-2.2-2.3-0.3
		C154.8,61.3,153.9,64.1,153,66.1C153.2,66.3,154.3,63.4,153,66.1z"/>
	<path d="M142.6,189.7c7.4-14.3,15-28.2,21.1-43.1c6-14.6,11.8-29.2,17.9-43.7c-5.7,1.1-11.7,2.7-14.7,8c-1.7,3-2.2,6.6-3.5,9.8
		c-0.8,1.8-1.7,3.6-2.6,5.4c-0.9,1.9-1.6,5.8-3.9,4.8c2-4.6,4.5-9.3,6-14.1c1.1-3.4,1.6-6.6,4.2-9.4c4.5-4.8,11.7-5.8,17.6-8
		c-7.3,17.4-14,35.1-21.2,52.6c-3.4,8.3-8.2,15.8-11.8,24c-3.5,8-6,16.4-8.2,24.8c-0.7,2.8-3,7.4-1.5,10.2c1.9,3.4,6.3,2,9.3,1.8
		c8.7-0.4,17.3,1.4,25.8,2.3c4.3,0.5,8.6,0.7,12.9,0.6c3.6-0.1,6.6-1.7,10.1-2c8.2-0.8,16.1,2.9,24.3,3.1c9.9,0.2,19.8-1.3,29.7-1.6
		c5.2-0.1,10.4-0.1,15.6-0.2c4.6,0,11.9-1.5,15.6,1.9c-11.3,0-22.7-0.4-34,0.1c-10.5,0.5-20.8,2-31.2,0.5
		c-5.1-0.7-11.1-2.9-16.2-2.6c-4.6,0.2-9.1,2.2-13.9,2.3c-5.5,0.1-10.9-0.6-16.3-0.9c-4.6-0.3-7.9,0.2-12-1.6c-4-1.8-8-0.9-12.1-0.1
		c-5.4,1.1-7.9-2.1-12.9-3.3c-4.3-1-7.8,0.6-12,0.4c-4.4-0.2-9.1-2.6-13.5-3.4c-5.5-1-11.1-1.3-16.7-2c-4.2-0.6-8.9-2.1-13.2-1.9
		c-2.4,0.1-3.9,1.4-6.1,2.1c-2.6,0.9-4.7,0.3-7.4-0.3c-5.7-1.1-11.3-2.5-16.8-4.1c10.2-2.2,19.8,7.6,29.1-0.5
		c-12.8-14.8-22.6-32.7-28.3-51.4c-3.1-10.1-6.7-20.1-10-30.2c-3.3-9.8-5.5-19.2-7.3-29.4c7.5,3.7,9.7,11.5,14.9,17.5
		c-3.4-19-6.7-38-10.1-57.1c7.3,8.9,14.5,17.8,21.8,26.7c0.5-1.9,0.9-3.9,1.4-5.8c2.9,2.4,8.5,5.5,10.4,8.6c1.6,2.5-0.4,1.9-2.4,1.1
		c-2.1-0.8-4.2-1.5-6.3-2.3c-2.5,7.1,6.7,7.4,8.6,12.8c-2.9-1-5.8-2-8.7-3c-3.3,8.9,12.1,5.8,11.9,13.6c-2.4-0.9-4.8-1.8-7.2-2.8
		c-2-0.8-5.7-2.4-3.3,1c1.9,2.7,7.4,3.4,10.2,4.6c2.5,1.1,8.7,5.5,2.8,5c-4.4-0.3-10-3.6-14.2-5.1c2.9,4.7,8,6,12.7,8.3
		c1.5,0.7,4.4,1.9,5.1,3.6c1.8,4.2-4.1,1.3-6.1,0.6c1.9,3,6.9,3.8,5.1,8.2c-1.9-0.9-3.8-1.7-5.7-2.6c-1.4-0.6-5.3-3-3.6-0.1
		c1.9,3.3,6.7,5.8,9.1,9c-3.4,0.7-5.3,0.3-8.6-0.6c-1.8,6.6,7,7.2,7.5,12.9c-1.6-0.2-3.1-0.3-4.7-0.5c2.8,3.3,2.4,9.2,7.4,10.4
		c-0.9,2.1-1,4.4-3.5,4c0.6,9.6,4.2,18.6,7.7,27.4c2.8,6.9,4.8,17.9,12.9,19.9c6.9,1.7,7.8-3.5,8.7-9.2c0.4-2.4,1.3-6,0.9-8.4
		c-0.4-2.3,0.3-3.2-2.1-1c-3.2,3-5.5,9-7.8,12.8c1.5-17.6,1-36.3-2.9-53.6c-2.1-9.2-4.8-18.3-7.2-27.5c-2.2-8.7-3.6-17.5-5.6-26.2
		C81.8,85,79,77.3,74.3,69.9c-1-1.5-6.3-11.5-7.4-11.5c-3.9-0.1-0.1,10.4-2.3,11.7c-1.4,0.8-2.1-11.4-2.2-12.8
		c-0.4-4.2-0.8-8.5-1.5-12.6c-1.7-9.6-5.2-18.8-7.4-28.2C65.3,25.6,72.5,39,81.7,50.6c0-13.6,0-27.1,0-40.7
		c7.8,11.3,12.5,24.4,19.4,36.2c1-8.8,1.9-17.6,2.9-26.4c0.2-1.6,0.1-12.2,1.4-13.2c2.8-2.1,4.6,8.7,5.1,10.5
		c2.4,8.5,4.7,16.9,7.1,25.4c0.5,1.9,2,11.4,4.5,10.9c1.2-0.3,4.4-12.1,4.8-13.3c1.5-4.1,3-8.2,4.5-12.3c0.7-2,1.5-4.1,2.2-6.1
		c1.2-3.3,1.4-4.1,2.6-0.6c1.3,3.8,1.1,9.2,1.5,13.2c0.5,4.4,1,8.8,1.5,13.2c1,8.8,2,17.6,3,26.4c0.2,2,0.1,4.7,0.8,6.6
		c1.1,3.2,0.6,2.6,2.4,0.5c1.5-1.7,4.5-11.2,6.8-10.4c-2.6,6.9-8.4,15.3-7.3,22.9c1.3,9.3,3.8,17.2,2,26.8
		c-0.9,4.6-2.8,8.8-3.9,13.3c-1,4.2-1.2,8.6-1.4,12.9c-0.1,1.6-0.5,4-0.3,5.6c0.6,4,2.2,1.9,4.7-0.1c2-1.7,8.8-8.7,10.6-7
		c-3.1,3.1-6.2,6.2-9.4,9.4c-0.7,0.7-5.1,4.2-5,5c0.3,2.9,3.6-0.5,4.4-1.1c1.4-1,3.3-2.9,4.9-3.6c3.1-1.4,2.1-0.8,0.9,1
		c-2.2,3.4-7.4,6.7-10.3,9.4c1.8,1.8,1.9,0.9,3.8-0.6c1.3-1.1,2.7-2.1,4-3.2c-0.9,5.4-7.3,7.5-8,13.2c2.5-2.1,5-4.2,7.5-6.4
		c0,6.2-9.5,7-8.1,13.6c1.5-1,3.1-3,4.6-1.8c-3.1,3.5-5.3,6.9-7.5,11c1.5-0.4,3-0.9,4.5-1.3c-0.7,0.9-5.1,5.1-5,6
		c0.4,2.9,3.2-0.3,3.8-1c0.8-0.8,2.7-2.5,2.9-3.7C144.9,189.1,144.5,188.1,142.6,189.7C147.7,179.9,144.4,188.1,142.6,189.7z
		 M108.3,205c6.4,2.3,14.4,7.1,21.3,4.6c6.5-2.3,5.8-11,6.7-16.8c2.9-17.8,5-35.1,4.4-53.2c-0.3-8.7-1.3-16.9-3.6-25.3
		c-1.1-4-2.4-7.9-3.5-11.9c-1.1-3.8-1.6-10.1-3.7-13.3c-1.7-2.7-1.5,0.7-1.4,2.5c0.1,2.5,0.2,5.1,0.3,7.6c0.2,4.4,0.4,8.7,0.6,13.1
		c0.4,9.4,0.8,18.9,1.3,28.3c-2.5,0.1-1.7-2.1-1.8-4.3c-0.1-1.8-0.2-3.6-0.3-5.4c-0.2-4-0.4-8-0.6-12c-0.4-7.6-0.7-15.3-1.1-22.9
		c-0.1-1.9,0.1-11.7-2-5.7c-1.1,3.3-1.2,7.2-1.8,10.6c-0.7,3.9-1.3,7.8-2,11.7c-0.6,3.3-2.6,8.5-2,11.8c0.4,2.6,3.2,4.9,3.8,7.5
		c0.7,3.1-1.1,5.6-1.1,8.4c0.1,7.3,2.4,14.9,2.9,22.3c0.5,7.8,0.7,15.6,0.5,23.5c-0.1,3.6-0.1,7.1-0.3,10.7c-0.3,4.3-2,7-3.6,10.9
		c0.1-4.3,1.5-8.4,1.9-12.7c0.5-5-0.3-10.1-0.8-15c-0.5-4.8-1.1-9.6-1.5-14.5c-0.5-4.9,0.5-9.9-0.3-14.8
		c-3.6-19.6-9.3-38.4-16.4-56.9c-3.1,10.4-10.2,20.1-9.4,31.4c2.4-1.7,4.5-4.9,6.7-7c-0.2,6.9-8.2,11.2-5.9,18.6
		c1.6-2.3,3.2-4.6,4.8-6.9c2.7-3.7,3.1-1.1,1.5,1.9c-2.7,5-6.3,9.1-3.6,15c2.8-3.8,5.6-7.5,8.5-11.3C111.3,158.4,113,182,108.3,205
		C112.4,206.5,112.9,182.7,108.3,205z M113.4,111.2c2.3-0.8-1.1-23.1-1.4-26.5c-0.8-9.5-1.6-18.9-2.4-28.4
		c5.4,18.6,2.5,38.6,8.2,57.2c2-8.9,3.7-17.9,5.3-26.9c0.8-4.7,1.8-7.4-0.3-11.7c-1.9-3.7-2.5-7.7-3.5-11.7c-2-8.7-3.9-17.3-5.9-26
		c-1.8-7.9-2.4-17.6-6.6-24.5c-3,16.2-4.5,33-5,49.5c-0.3,9,0.5,16.6,3.2,25.2C107.7,95.4,110.6,103.3,113.4,111.2
		C113.7,111.1,110.6,103.3,113.4,111.2z M78.2,195c-0.3-4.9-0.5-9.8-0.8-14.7c1.8,5.6,1.7,11.9,3.7,17.4c2,5.7,6.8,6.1,11.9,7.7
		c-5.7-12.6-10.2-24.9-13.9-38.3c-1.7-6.2-3.2-12.4-5.1-18.6c-1.9-6.3-4.8-9.6-9.3-14.2c-8.6-8.9-13.6-19.4-20.6-29.4
		c-0.7-1-4.1-7.3-5.3-7.5c-3.2-0.7,0,7,0.4,8.3c1.8,6.4,3.7,12.8,5.5,19.2c1.1-1.8,2.6-5.8,3.8-3.1c1.1,2.5,0,8.4,0,11.1
		c2.5-0.4-1.2-6.8,2.7-3.5c2.6,2.1,1.4,6.2,1.4,9.1c0,1.6,0.4,8,1.9,8c1.3-0.1,1.9-8.5,2-9.8c3.2,0.6,1.8,6.6,1.8,9.6
		c0,3.9,0,7.9,0,11.8c1.2-3.2,2.5-6.3,3.7-9.5c2.3,7-1.3,14.5,1.5,21.4c1.6-3.6,1.6-8.4,2.6-12.3c3.6,8.5-1.9,17.9,3.2,26.2
		c0.5-3.4,1.1-6.7,1.6-10.1C72.2,181.7,69.7,190.3,78.2,195C77.9,190,68.9,189.9,78.2,195z M85.2,17.6c-3.2,0.8-0.9,20.4-0.8,24
		c0.3,9.2,0.6,18.3,0.9,27.4c0.5,15.9,0.1,33.7,7.6,48.2c3.2-7.5,8.3-15.7,9.3-23.9c1.1-8.6-2.4-17.4-2.2-26.1
		c0.2-9.4,0.2-16.5-3.4-25.3C93.2,33.6,88.9,25.8,85.2,17.6C84.9,17.7,90.1,28.3,85.2,17.6z M128.9,69.3c0,4.6-0.2,8.8,1,13.3
		c0.3,1.2,1.7,6.8,3.5,7c0.8,0.1,2.8-2,3.2-2.5c5.8-6.5,3.3-16.5,2.2-24.1c-1.4-9.8-2.3-19.8-3.3-29.6c-0.1-0.6-0.3-6.1-0.7-6.4
		c-2-1.4-2.6,3.8-3,4.9c-1.3,4.2-2.7,8.5-4,12.7c1.4-1.1,2.7-2.1,4.1-3.2c-1.1,6.3-9.3,8.1-9,15.2c1.6-1.3,3.3-2.6,4.9-4
		c0.7,6.1-9.8,6-6.1,13.1c2.1-1.6,4.2-3.1,6.2-4.7c-1.1,2.2-4.1,6.3-3.8,8.9C124.5,73.5,127.1,70.6,128.9,69.3
		C128.9,72.6,128,70,128.9,69.3z M58.4,21.9c-2.1,1.3,2.4,12.1,3,15c1.1,5.8,1.4,10.3,4.3,15.6c4.8,8.6,10,19,17.2,25.8
		c0-5.3,0.6-10.9,0-16.1c-0.5-5.2-3.4-8.6-6.1-12.8C70.7,40.2,64.6,31,58.4,21.9C58.1,22.1,63.5,29.4,58.4,21.9z M102.5,192.1
		c7.2-8.3,8.7-17.2,6.6-27.6C103.2,172.9,101.9,181.8,102.5,192.1z M106.1,141.3c-5.7,4-7.5,11.3-4.1,18.7
		C104,153.4,109.4,148.5,106.1,141.3z M107.3,153.4c-1.8,5.7-8.3,10.2-4.2,18.5C105.1,165.1,110.9,160.5,107.3,153.4z"/>
	<path d="M221.1,158.7c0-9.8,0-19.4-0.5-29.2c-0.2-4.4-0.1-7.7,4.8-8.4c3.6-0.5,7.4,0.2,11,0.2c1.7,0,4.2-0.4,5.9-0.1
		c2.1-0.7,2.8,0,2.1,2.1c0,1.4,0.1,2.9,0.1,4.3c0.2,10.7,0.4,21.5,0.6,32.2c0.2,10.8,0.4,21.6,0.6,32.4c0,2.4,0.9,6.4,0.2,8.7
		c0,0.7,0,1.5,0,2.2c-1.5,0.1-2.9,0.2-4.4,0.3c-4.6,0.3-10.1,1.9-13.7-1.8c-3.2-3.3-5.7-7.6-8.4-11.3c-3.1-4.2-6-10.2-9.9-13.7
		c-2.3-2.1-2.4-2-2.8,1.1c-0.4,2.5,0.3,5.7,0.4,8.2c0.3,5.3,0.5,10.5,0.8,15.8c-3.9,0-7.8-0.1-11.7-0.1c-1.9,0-5.1,0.8-6.9-0.1
		c-3.8-1.9-2.1-8.8-2-12.3c0.5-14.9-0.3-29.7-1.6-44.5c-0.3-3.5-0.6-7.1-0.9-10.6c-0.2-2-1.2-5.8-0.1-7.7c2.1-3.5,14-2.6,17.5-2
		c5.9,0.9,7.7,9.9,9.8,14.7C214.9,145.6,217.2,152.8,221.1,158.7C221.1,150.3,220.7,158.1,221.1,158.7z M204.6,170.2
		c8.9,7.9,15.6,17.5,22.4,27.2c3.7,5.4,7.1,5,13.3,4.5c-0.1,0,4-0.1,4.2-0.4c0.3-0.4-0.1-3.7-0.1-4.4c-0.1-4-0.2-8.1-0.2-12.1
		c-0.3-13.1-0.5-26.3-0.8-39.4c-0.1-6.2-0.2-12.4-0.4-18.6c0,0.1,0.2-4.1-0.1-4.4c-0.5-0.5-4,0-4.8,0c-3,0-6.1-0.1-9.1,0
		c-5.5,0.4-6.4,2.2-6.4,7.5c0.1,7.1,0.4,14.2,0.7,21.4c0.1,2.9,0.3,5.9,0.4,8.8c0-0.1,0.4,4.2,0.2,4.4c-2.2,2-2.7-1.2-3.3-2.5
		c-3-6-6.2-11.9-8.9-18.1c-2.1-4.8-3.9-15.4-9.3-17.9c-2.2-1-5.1-0.6-7.4-0.4c-4.9,0.4-8.9,0.4-9,6.4c-0.2,14.4,1.1,29,1.7,43.4
		c0.3,6.8-0.8,15.4,1,21.9c0.5,1.7-0.3,1.8,1.2,2.4c1.3,0.6,4.1,0,5.6,0c3.5,0,7,0,10.5,0C205.6,190.1,205.1,180.2,204.6,170.2
		C214.3,178.8,205.1,180.5,204.6,170.2z"/>
	<path d="M426.1,106.3c2.3,19.9,4.7,39.9,7,59.8c1.2,9.8,2.3,19.7,3.5,29.5c0.5,4.3,0.8,4.2-3.5,4.9c-2.1,0.3-4.2,0.6-6.2,1
		c-1.3,0.2-7.5,2-8.5,1.3c-0.9-0.6-1.2-6.3-1.4-7.5c-0.9-4.9-1.9-9.8-2.8-14.8c-0.6-3-0.4-3.3-3.5-3.1c-1.2,0.1-2.5,0-3.7,0.4
		c-4.9,1.7-5,7.7-6,12.1c-0.7,3.6-0.7,5.9-4.4,7c-7,2.1-14.9,2.8-22.1,4.1c2.3-9.8,6-19.2,8.6-29c2.6-9.6,4.7-19.2,6.8-28.9
		c2-9.3,4.4-18.1,7.8-27c1.4-3.9,1.6-4.1,5.7-4.9c2.1-0.4,4.2-0.9,6.3-1.3C415.2,108.6,420.7,107.5,426.1,106.3
		C429.9,138.5,417.4,108.1,426.1,106.3z M414.4,174.7c1.1,5.4,2.3,10.8,3.4,16.2c0.5,2.3,1,4.7,1.5,7c0.8,3.6,1,2.9,4.5,2.4
		c2.5-0.4,5.1-0.8,7.6-1.2c4.3-0.7,3.8-0.8,3.3-5c-0.6-5.1-1.2-10.2-1.8-15.3c-2.4-21.4-4.9-42.8-7.3-64.1c-0.2-1.8,0.1-4.9-1.4-5.7
		c-1.4-0.8-5.5,0.8-7,1c-4.7,0.9-9.7,1.5-14.3,2.8c-5.1,1.5-5.4,6.6-6.9,11.3c-1.5,4.7-2.7,9.5-3.9,14.4c-5,20.3-9.7,40.5-16,60.5
		c5.3-1.1,10.7-1.9,16-2.8c2.6-0.5,4.9-0.8,6.3-3.3c1.8-3.2,1.5-7.5,2.5-10.9C402.9,175.7,408.9,175.9,414.4,174.7
		C416.3,183.7,411.9,175.3,414.4,174.7z"/>
	<path d="M374.9,127.9c0.4,7.8-3.3,14.8-9.7,19.2c-3.6,2.5-7.8,4.3-11.8,6.2c-3.7,1.8-9.7,2.9-12.8,5.6c-2.7,2.3-1.9,6.5-2,9.7
		c-0.2,5.3-0.3,10.5-0.5,15.8c-0.1,3.7,0.9,10.6-1,13.8c-1.9,3.3-9.4,4.4-12.9,5.2c-3,0.7-4.6,0.6-5.5-2.7
		c-1.2-4.6-0.3-10.7-0.4-15.4c-0.3-10.4-0.6-20.8-0.8-31.1c-0.2-10.7-0.9-21.5-0.9-32.2c0-8.7,6.7-11.2,14.1-13.3
		c10.7-3.1,22-3,32.6,0.5C372.1,112.2,375.2,118.9,374.9,127.9C375.4,136.9,375.2,118.3,374.9,127.9z M320,201.3
		c5.2,0.2,12,0.3,14.9-4.8c3.7-6.4,2.3-16.7,2.4-23.8c0.1-3.9-0.9-9.3,0.5-12.9c1.4-3.9,6.4-4.2,9.8-5.5c7.1-2.7,14.8-5.9,20.1-11.6
		c4.7-5.1,6.7-12.1,5.8-18.9c-1.2-8.5-7.1-11.8-14.8-13.6c-9.1-2.2-18.9-2.5-28,0.3c-3.6,1.1-8.5,2.8-11,5.9
		c-2.9,3.6-2,10.3-1.9,14.6C318,154.4,320,177.8,320,201.3C332.2,201.8,320,193.5,320,201.3z"/>
	<path d="M304.3,173.9c-1.9,11.9-1.8,27.8-17,29.8c-14,1.8-24.3-14.5-28.2-25.9c-4.8-14-3-30.5,2.3-44.2c2.3-6,5.6-13.4,11.8-16.1
		c5.3-2.4,12.7-1.1,17.2,2.6c6.3,5.2,6.5,15.7,8,23.1C300.5,153.4,302.4,163.7,304.3,173.9C303.2,180.9,301.6,159.7,304.3,173.9z
		 M302.1,177c-1-10.8-2.6-21.3-4.7-32c-1.6-7.8-1.8-20.2-9.5-24.7c-18.6-11-27.3,15.9-29.1,29.4c-2.3,17.6,1.6,34.9,14.8,47.6
		c5.6,5.4,13.8,6.1,20.3,1.7C301.4,193.8,301.8,185.2,302.1,177C301.6,172,301.9,184.2,302.1,177z"/>
	<path d="M153,66.1c1-2,3.6-9.7,5.3-7.2c1.8,2.7,1.5,9.7,1.8,12.9c0.7,8.2,1,16.4,0.4,24.6c-0.6,8.9-2.2,17.7-5.1,26.1
		c-1.1,3.2-2.9,6.4-3.3,9.8c-0.1,1.3-0.2,3.5,0.7,4.6c2.3,2.9,2.6-0.4,5.5-1.1c3-0.7,0.7,1.3-0.6,2.4c-1.7,1.5-3.4,3.3-5.3,4.5
		c-3.7,2.5-4.3,0.8-3.5-3.1c1.8-8.3,3.9-16.7,6.3-24.9c5-17.1,3.5-33.5,2.6-51.1C156.6,64.6,154.2,67.1,153,66.1
		C154.3,63.4,153.2,66.3,153,66.1z"/>
	<path fill="#FFFFFF" d="M108.3,205c4.7-23,3-46.7-1.2-69.6c-2.8,3.8-5.6,7.5-8.5,11.3c-2.7-5.9,0.9-10.1,3.6-15
		c1.6-3,1.4-5.9-1.5-1.9c-1.7,2.3-3.2,4.6-4.8,6.9c-2.3-7.4,5.6-11.6,5.9-18.6c-2.2,2.1-4.3,5.3-6.7,7c-0.9-11.3,6.2-21,9.4-31.4
		c7.1,18.6,12.8,37.3,16.4,56.9c0.8,4.6-0.2,9.1,0.2,13.8c0.4,4.8,1,9.6,1.5,14.5c0.5,4.9,1.2,10,0.9,15c-0.3,4.6-1.9,9.1-2,13.7
		c1.4-3.4,3.3-6,3.6-9.8c0.3-3.9,0.3-7.9,0.3-11.8c0.1-7.5,0-14.9-0.5-22.4c-0.5-7.5-1.9-14.8-2.7-22.3c-0.4-3.2,1.4-5.6,1-8.8
		c-0.4-3.1-3.3-5.4-3.9-8.3c-0.6-2.8,1.3-7.8,1.8-10.7c0.7-3.9,1.3-7.8,2-11.7c0.6-3.6,0.7-8.3,2-11.6c0.6-1.6,0.6-3.3,1.6-0.9
		c0.6,1.4,0.2,3.9,0.3,5.4c0.4,8,0.7,16,1.1,24c0.2,3.6,0.3,7.3,0.5,10.9c0.1,2.2,0.2,4.4,0.3,6.5c0.1,2.1-0.9,4.4,1.8,4.3
		c-0.4-9.4-0.8-18.9-1.3-28.3c-0.2-4.4-0.4-8.7-0.6-13.1c-0.1-1.7-1.4-11.6,0.8-11.1c0.9,0.2,3.3,12,3.7,13.3
		c1.2,4.3,2.6,8.6,3.8,12.9c2.4,8.4,3.4,16.6,3.6,25.3c0.5,17.7-1.4,34.7-4.2,52.1c-1,6-0.2,15.4-6.9,17.9
		C122.7,212.1,114.6,207.3,108.3,205C112.9,182.7,112.4,206.5,108.3,205z"/>
	<path fill="#FFFFFF" d="M113.4,111.2c-2.8-7.9-5.7-15.8-8.3-23.8c-2.8-8.6-3.5-16.2-3.2-25.2c0.6-16.5,2.1-33.3,5-49.5
		c4,6.6,4.7,15.9,6.4,23.4c2,9,4.1,18.1,6.1,27.1c0.9,4,1.6,8,3.5,11.7c1.9,3.8,1.3,6.4,0.5,10.6c-1.7,9.4-3.4,18.7-5.5,28
		c-5.7-18.6-2.8-38.5-8.2-57.2c0.8,9.5,1.6,18.9,2.4,28.4C112.3,88.1,115.6,110.5,113.4,111.2C110.6,103.3,113.7,111.1,113.4,111.2z
		"/>
	<path fill="#FFFFFF" d="M78.2,195c-8.5-4.7-6-13.3-7.3-21.3c-0.5,3.4-1.1,6.7-1.6,10.1c-5.1-8.3,0.4-17.7-3.2-26.2
		c-0.9,3.8-1,8.7-2.6,12.3c-2.8-6.9,0.8-14.4-1.5-21.4c-1.2,3.2-2.5,6.3-3.7,9.5c0-3.9,0-7.9,0-11.8c0-1.9,0-3.7,0-5.6
		c0-2.2,0.9-3.5-1.8-4c-0.2,1.7-0.1,8.7-1.3,9.7c-2.1,1.7-2.5-6.6-2.6-7.8c0-2.9,0.9-6-0.9-8.5c-0.8-1.1-1.7-2.7-3-1
		c-1,1.5,3,3.4-0.3,3.9c0-2.8,1.1-8.6,0-11.1c-1.2-2.7-2.7,1.3-3.8,3.1c-1.8-6.4-3.7-12.8-5.5-19.2c-0.3-1.1-3.5-9-0.4-8.3
		c1.4,0.3,4.4,6.3,5.3,7.5c7,10,11.9,20.5,20.6,29.4c4.2,4.3,7.2,7.5,9,13.4c2,6.4,3.5,13,5.3,19.4c3.7,13.4,8.2,25.7,13.9,38.3
		c-5.1-1.6-9.9-2-11.9-7.7c-2-5.5-1.9-11.8-3.7-17.4C77.6,185.2,77.9,190.1,78.2,195C68.9,189.9,77.9,190,78.2,195z"/>
	<path fill="#FFFFFF" d="M85.2,17.6c3.7,8.1,8,16,11.4,24.3c3.6,8.8,3.6,16,3.4,25.3c-0.2,8.7,3.3,17.5,2.2,26.1
		c-1,8.1-6.1,16.4-9.3,23.9c-7.5-14.5-7.1-32.3-7.6-48.2c-0.3-8.8-0.6-17.6-0.8-26.4C84.4,39,82.1,18.4,85.2,17.6
		C90.1,28.3,84.9,17.7,85.2,17.6z"/>
	<path fill="#FFFFFF" d="M128.9,69.3c-1.8,1.3-4.4,4.2-4.8,0.6c-0.3-2.6,2.8-6.8,3.8-8.9c-2.1,1.6-4.2,3.1-6.2,4.7
		c-3.7-7.2,6.8-7.1,6.1-13.1c-1.6,1.3-3.3,2.6-4.9,4c-0.4-7,7.8-8.9,9-15.2c-1.4,1.1-2.7,2.1-4.1,3.2c1.3-4.2,2.7-8.5,4-12.7
		c0.5-1.5,0.8-6,3-4.9c0.6,0.3,0.6,5.8,0.7,6.4c1,9.9,1.9,19.8,3.3,29.6c1.1,7.6,3.6,17.6-2.2,24.1c-0.4,0.4-2.6,2.5-3.2,2.5
		c-1.7-0.2-3.1-5.8-3.5-7C128.7,78.1,128.9,73.9,128.9,69.3C128,70,128.9,72.6,128.9,69.3z"/>
	<path fill="#FFFFFF" d="M58.4,21.9c6.2,9.1,12.3,18.3,18.4,27.5c2.6,3.9,5.3,7.1,6,11.9c0.8,5.4,0.1,11.4,0.1,16.9
		c-7.2-6.9-12.4-17.2-17.2-25.8c-2.7-4.9-3.2-9.2-4.2-14.6C61,34.8,56.2,23.3,58.4,21.9C63.5,29.4,58.1,22.1,58.4,21.9z"/>
	<path fill="#FFFFFF" d="M102.5,192.1c-0.6-10.3,0.7-19.2,6.6-27.6C111.2,174.9,109.7,183.8,102.5,192.1z"/>
	<path fill="#FFFFFF" d="M106.1,141.3c3.3,7.2-2.2,12.1-4.1,18.7C98.6,152.6,100.5,145.3,106.1,141.3z"/>
	<path fill="#FFFFFF" d="M107.3,153.4c3.6,7.1-2.2,11.7-4.2,18.5C99.1,163.6,105.5,159.1,107.3,153.4z"/>
	<path fill="#FFFFFF" d="M142.6,189.7c4-3.4,0.5,4.2-1.5,5.5c-0.6,0.6-1.1,1.2-1.7,1.8c-2-0.8-2.1-1.7-0.3-2.9
		C139.5,192.9,142.2,190.1,142.6,189.7z"/>
	<path fill="#FFFFFF" d="M204.6,170.2c0.5,10,1,19.9,1.5,29.9c-2.9,0-5.8,0-8.6,0c-1.2,0-7.4,0.9-8.4,0c-0.9-0.8-0.4-5.7-0.5-7
		c-0.2-3.6-0.3-7.2-0.5-10.9c-0.6-13.4-1.1-26.8-1.6-40.2c-0.2-4.1-2.5-13.2,2.3-15.5c2.4-1.2,7.8-1.1,10.6-0.9
		c6.1,0.4,7.4,5.5,9.3,10.6c2.1,5.3,4.3,10.5,6.8,15.6c1.4,2.8,2.9,5.7,4.3,8.5c0.4,0.8,1.7,4.6,2.3,4.7c2.9,0.9,1.8-3.4,1.7-4.8
		c-0.3-6.2-0.6-12.3-0.8-18.5c-0.2-4.4-2.3-14,0.6-17.5c2.4-3,9.3-1.8,12.6-1.8c1.4,0,3.5-0.4,4.7,0c2.6,0.9,1.1-1.6,2,2.2
		c0.8,3.3,0.1,7.5,0.2,10.9c0.3,13.1,0.5,26.2,0.8,39.3c0.1,7.3,0.3,14.7,0.4,22c0,0,0.4,4.1,0.1,4.4c-0.7,0.7-5,0.4-6.3,0.5
		c-2.8,0.2-5.9,0.7-8.3-1c-4.7-3.3-7.9-11-11.4-15.6C214.4,180,209.8,174.8,204.6,170.2C205.1,180.5,214.3,178.8,204.6,170.2z"/>
	<path fill="#FFFFFF" d="M414.4,174.7c-5.1,1.1-11.2,0.8-13.2,6.5c-1.3,3.6-0.7,8.3-2.7,11.6c-1.3,2.3-3.3,2.7-5.8,3.2
		c-5.5,1-11,1.8-16.5,2.9c6.3-20,11-40.2,16-60.5c1.2-4.8,2.4-9.6,3.9-14.4c1.5-4.7,1.8-9.9,6.9-11.3c4.6-1.3,9.6-1.9,14.3-2.8
		c1.5-0.3,5.6-1.8,7-1c1.5,0.8,1.2,3.9,1.4,5.7c2.4,21.4,4.9,42.8,7.3,64.1c0.6,5.1,1.2,10.2,1.8,15.3c0.5,4.3,1,4.3-3.3,5
		c-2.5,0.4-5.1,0.8-7.6,1.2c-1.3,0.2-2.6,0.4-3.8,0.6c-0.1-0.7-0.3-1.3-0.4-2c-1.1-2-1.2-5.7-1.7-8
		C416.7,185.5,415.6,180.1,414.4,174.7C411.9,175.3,416.3,183.7,414.4,174.7z M415.7,132.6c-2.6-0.8-2.9-0.6-4.6,1.7
		c-1.5,2.1-2.2,4.1-3,6.6c-1.6,4.9-3,9.8-4.5,14.7c2.8,0,5.5,0,8.3,0c4,0,3.8,0,3.8-4.2C415.7,145.2,415.7,138.9,415.7,132.6
		C414.8,132.3,415.7,140.3,415.7,132.6z"/>
	<path fill="#FFFFFF" d="M320,201.3c0-20.7-1.1-41.3-1.9-62c-0.3-8.5-3-21.1,5.6-25.9c8-4.5,17.7-5.5,26.6-4.6
		c7.6,0.8,17.8,2.1,21.6,9.7c3,6,2.2,14.3-1.1,20c-3.5,6.1-9.7,9.8-15.9,12.7c-4.2,2-8.7,3.3-13,5c-4.1,1.7-4.4,4-4.5,8.1
		c-0.2,9.4,1.2,20.9-1.7,29.9C333.6,201.3,326.3,201.6,320,201.3C320,193.5,332.2,201.8,320,201.3z M333.8,125.8
		c0.2,3.2-0.7,14.1,3,15.2c3.1,0.9,14.8-6.7,15.8-9.5c1.8-4.7-4.2-7.6-7.5-8.5C340.5,121.7,335.9,121.2,333.8,125.8
		C334.1,130.4,333.9,125.5,333.8,125.8z"/>
	<path fill="#FFFFFF" d="M302.1,177c-0.2,8.3-0.7,16.8-8.2,21.9c-6.5,4.5-14.7,3.7-20.3-1.7c-13.2-12.7-17.1-30-14.8-47.6
		c1.8-13.5,10.5-40.4,29.1-29.4c7.7,4.5,7.9,16.9,9.5,24.7C299.5,155.7,301.1,166.1,302.1,177C301.9,184.2,301.6,172,302.1,177z
		 M272.2,141.8c-3.4,7.8-4.9,18.8-0.8,26.8c2.9,5.7,10.6,8.1,12.5,0.4c1.6-6.3,1.2-16.8-0.9-23C281.2,140.8,276.8,141.4,272.2,141.8
		C268.4,150.3,281.3,141,272.2,141.8z"/>
	<path d="M415.7,132.6c0,6.3,0,12.6,0,18.9c0,3.5,0.6,4.2-3,4.2c-3,0-6.1,0-9.1,0c1.5-4.9,2.9-9.9,4.5-14.7c0.8-2.4,1.5-4.5,3-6.6
		C412.8,132,413,131.8,415.7,132.6C415.7,140.3,414.8,132.3,415.7,132.6z M413.6,153.2c0-3.5,0-7,0-10.5c0-1,0.7-9.7-1.6-8.3
		c-1.3,0.7-2.3,6.9-2.8,8.4c-1.1,3.5-2.3,7-3.4,10.4C408.4,153.2,411,153.2,413.6,153.2C413.6,146.6,411.1,153.2,413.6,153.2z"/>
	<path d="M333.8,125.8c2.1-4.4,6.2-4.1,10.6-3c3.5,0.9,10,3.7,8.2,8.7c-1,2.7-12.4,10.1-15.4,9.5C332.9,140.2,334,129.3,333.8,125.8
		C333.9,125.5,334.1,130.4,333.8,125.8z M336.4,123.3c0,5.7,0,11.3,0,17c3.3-1.8,14.8-5.8,15-10.4
		C351.6,124.4,340,124.1,336.4,123.3C336.4,127.1,340.9,124.3,336.4,123.3z"/>
	<path d="M272.2,141.8c4.7-0.4,9-0.9,10.8,4.1c2.2,6.2,2.5,16.7,0.9,23c-1.9,7.7-9.6,5.3-12.5-0.4
		C267.2,160.6,268.8,149.6,272.2,141.8C281.3,141,268.4,150.3,272.2,141.8z M270.2,154.8c0.6,5.1,0,15.1,6.5,17.1
		c6.6,2,5.6-7.3,5.5-11.1c0-4,1.3-16.2-3.7-17.9C272.2,140.8,271.2,151.1,270.2,154.8C270.8,159.4,270.9,152.3,270.2,154.8z"/>
	<path fill="#FFFFFF" d="M413.6,153.2c-2.6,0-5.2,0-7.8,0c1-3.2,2.1-6.3,3.1-9.5c0.4-1.3,1.8-8.6,3.1-9.3c2.4-1.4,1.6,6.1,1.6,7.3
		C413.6,145.5,413.6,149.4,413.6,153.2C411.1,153.2,413.6,146.6,413.6,153.2z"/>
	<path fill="#FFFFFF" d="M336.4,123.3c3.5,0.8,15.4,1.1,15,6.7c-0.4,4.6-11.6,8.5-15,10.4C336.4,134.7,336.4,129,336.4,123.3
		C340.9,124.3,336.4,127.1,336.4,123.3z"/>
	<path fill="#FFFFFF" d="M270.2,154.8c1-3.7,1.7-13.2,7.8-12c5.7,1.2,4.2,13.8,4.2,18c0,3.3,1.3,12.2-4.9,11.5
		C270.4,171.4,270.8,159.3,270.2,154.8C270.9,152.3,270.8,159.4,270.2,154.8z"/>
	<line fill="none" x1="49" y1="106.3" x2="49" y2="106.3"/>
	<line fill="#FFFFFF" stroke="#FFFFFF" stroke-miterlimit="10" x1="49" y1="106.3" x2="39.3" y2="51.3"/>
	<line fill="#FFFFFF" stroke="#FFFFFF" stroke-miterlimit="10" x1="61.1" y1="78.1" x2="39.3" y2="51.3"/>
</g>
</svg>
