<?xml version="1.0" encoding="utf-8"?>
<!-- Generator: Adobe Illustrator 18.1.1, SVG Export Plug-In . SVG Version: 6.00 Build 0)  -->
<svg version="1.1" id="Layer_1" xmlns="http://www.w3.org/2000/svg" xmlns:xlink="http://www.w3.org/1999/xlink" x="0px" y="0px"
	 viewBox="0 0 960 560" enable-background="new 0 0 960 560" xml:space="preserve">
<path fill="none" stroke="#FCCCFB" stroke-width="3" stroke-miterlimit="10" d="M524.7,309.8h-88.9c-3.4,0-6.2-2.8-6.2-6.2v-46.5
	c0-3.4,2.8-6.2,6.2-6.2h88.9c3.4,0,6.2,2.8,6.2,6.2v46.5C530.9,307,528.2,309.8,524.7,309.8z"/>
<path fill="#FCCCFB" stroke="#FCCCFB" stroke-width="3" stroke-miterlimit="10" d="M434.5,253.7l45.4,26.4c0.4,0.3,1,0.3,1.4,0
	l45.4-26.4c1.2-0.7,0.7-2.6-0.7-2.6h-90.8C433.8,251.1,433.3,253,434.5,253.7z"/>
<path fill="none" stroke="#FCCCFB" stroke-width="3" stroke-miterlimit="10" d="M526.7,308.2l-46.4-28.5L433.9,307
	c-1.2,0.7-0.7,2.5,0.7,2.5h91.8C527,309.5,527.3,308.6,526.7,308.2z"/>
</svg>
